<svg xmlns="http://www.w3.org/2000/svg" xmlns:xlink="http://www.w3.org/1999/xlink" width="290.701" height="45" viewBox="0 0 218.026 33.75"><symbol id="a"><path d="M.156.46v-.1c.037.067.076.1.115.1A.062.062 0 00.315.444.05.05 0 00.333.406.045.045 0 00.32.374.04.04 0 00.29.361C.279.36.266.366.251.377.237.39.227.395.221.395.213.395.207.39.2.385A.235.235 0 01.156.319V.104C.156.08.159.061.165.048A.05.05 0 01.187.026.099.099 0 01.234.018V0h-.23v.018c.024 0 .04.003.052.01a.042.042 0 01.017.025.251.251 0 01.002.048v.173a.663.663 0 01-.003.093.035.035 0 01-.012.022.032.032 0 01-.02.007.097.097 0 01-.035-.008L0 .406.135.46h.02z"/></symbol><symbol id="b"><path d="M.07.292A.23.23 0 01.117.136.147.147 0 01.232.08c.03 0 .055.008.077.024a.18.18 0 01.054.083l.015-.01a.234.234 0 00-.06-.122A.16.16 0 00.196 0c-.053 0-.1.02-.138.063A.242.242 0 000 .23c0 .077.02.137.059.18.039.042.088.064.148.064.05 0 .09-.017.123-.05A.18.18 0 00.378.292H.07m0 .029h.207a.191.191 0 01-.01.06.096.096 0 01-.037.043.09.09 0 01-.05.016.101.101 0 01-.073-.032A.136.136 0 01.07.321z"/></symbol><symbol id="c"><path d="M.167.412V.118C.167.076.172.05.181.04A.06.06 0 01.23.018H.27V0H.003v.018h.02c.013 0 .025.003.036.01A.05.05 0 01.08.053a.213.213 0 01.006.064v.294H0v.035h.087v.03c0 .044.007.082.021.113a.18.18 0 00.165.104A.15.15 0 00.368.66C.387.646.396.63.396.61A.04.04 0 00.383.584.038.038 0 00.356.57a.046.046 0 00-.024.008.138.138 0 00-.03.035.122.122 0 01-.033.036.063.063 0 01-.034.01.06.06 0 01-.038-.013.066.066 0 01-.023-.037.692.692 0 01-.007-.13V.447h.116V.412H.167z"/></symbol><symbol id="e"><path d="M.566.692L.58.467H.566a.283.283 0 01-.087.146.21.21 0 01-.134.044.218.218 0 01-.12-.033.221.221 0 01-.083-.107.479.479 0 01-.03-.182C.111.275.12.223.14.179a.216.216 0 01.087-.1.25.25 0 01.132-.036c.043 0 .08.01.114.027A.379.379 0 01.58.18L.596.17A.348.348 0 00.48.041.294.294 0 00.322 0C.212 0 .128.04.067.122A.349.349 0 000 .336a.38.38 0 00.044.182.33.33 0 00.292.174A.312.312 0 00.48.657a.077.077 0 01.029-.01C.517.646.524.65.53.655a.076.076 0 01.018.036h.017z"/></symbol><symbol id="f"><path d="M.548.662L.556.507H.537a.188.188 0 01-.015.058.096.096 0 01-.04.042.137.137 0 01-.066.014H.323V.115c0-.04.004-.066.013-.076.012-.014.031-.02.057-.02h.023V0h-.28v.018h.023c.028 0 .048.009.06.025.006.01.01.035.01.072V.62h-.08A.222.222 0 01.083.614.09.09 0 01.04.578.144.144 0 01.019.507H0l.008.155h.54z"/></symbol><symbol id="g"><path d="M.579.692L.596.483H.579a.286.286 0 01-.067.118.21.21 0 01-.152.057.216.216 0 01-.193-.1.36.36 0 01-.055-.201c0-.063.013-.12.037-.173A.26.26 0 01.245.07.233.233 0 01.438.042.282.282 0 01.502.07V.26a.17.17 0 01-.007.065.048.048 0 01-.024.024.13.13 0 01-.055.008v.018h.256V.358H.66C.635.358.618.349.608.333A.171.171 0 01.598.26V.06A.485.485 0 00.367 0C.238 0 .141.041.075.123A.329.329 0 000 .336C0 .394.014.45.042.503A.359.359 0 00.179.65.335.335 0 00.35.692.335.335 0 00.416.687.595.595 0 00.5.66.135.135 0 01.537.65c.006 0 .011.002.015.008.005.006.008.017.009.033h.018z"/></symbol><symbol id="h"><path d="M.45.222H.193L.148.117A.165.165 0 01.132.06c0-.01.005-.02.014-.027C.156.025.176.02.208.018V0H0v.018c.028.005.046.011.054.02a.3.3 0 01.055.094l.233.545h.017l.23-.55A.258.258 0 01.64.04.105.105 0 01.704.018V0H.442v.018C.468.02.486.024.495.031.505.04.51.048.51.06a.202.202 0 01-.02.067L.45.222M.437.258L.324.525.208.258h.228z"/></symbol><use xlink:href="#a" transform="matrix(14 0 0 -14 5.585 15.97)"/><use xlink:href="#b" transform="matrix(14 0 0 -14 10.677 16.161)"/><use xlink:href="#c" transform="matrix(14 0 0 -14 16.9 15.97)"/><use xlink:href="#d" transform="matrix(14 0 0 -14 21.022 15.97)"/><use xlink:href="#d" transform="matrix(14 0 0 -14 24.522 15.97)"/><use xlink:href="#d" transform="matrix(14 0 0 -14 28.022 15.97)"/><use xlink:href="#e" transform="matrix(14 0 0 -14 31.398 16.182)"/><use xlink:href="#f" transform="matrix(14 0 0 -14 40.64 15.97)"/><use xlink:href="#g" transform="matrix(14 0 0 -14 49.248 16.182)"/><use xlink:href="#h" transform="matrix(14 0 0 -14 58.973 15.97)"/><use xlink:href="#h" transform="matrix(14 0 0 -14 69.123 15.97)"/><use xlink:href="#h" transform="matrix(14 0 0 -14 79.231 15.97)"/><use xlink:href="#h" transform="matrix(14 0 0 -14 89.34 15.97)"/><use xlink:href="#e" transform="matrix(14 0 0 -14 99.844 16.182)"/><use xlink:href="#h" transform="matrix(14 0 0 -14 108.771 15.97)"/><use xlink:href="#g" transform="matrix(14 0 0 -14 119.304 16.182)"/><use xlink:href="#f" transform="matrix(14 0 0 -14 129.344 15.97)"/><use xlink:href="#g" transform="matrix(14 0 0 -14 137.952 16.182)"/><use xlink:href="#h" transform="matrix(14 0 0 -14 147.677 15.97)"/><use xlink:href="#g" transform="matrix(14 0 0 -14 158.168 16.182)"/><use xlink:href="#h" transform="matrix(14 0 0 -14 167.893 15.97)"/><use xlink:href="#h" transform="matrix(14 0 0 -14 178.043 15.97)"/><use xlink:href="#h" transform="matrix(14 0 0 -14 188.151 15.97)"/><use xlink:href="#f" transform="matrix(14 0 0 -14 197.02 15.97)"/><use xlink:href="#d" transform="matrix(14 0 0 -14 5.496 29.97)"/><use xlink:href="#d" transform="matrix(14 0 0 -14 8.996 29.97)"/><use xlink:href="#d" transform="matrix(14 0 0 -14 12.496 29.97)"/><use xlink:href="#d" transform="matrix(14 0 0 -14 15.996 29.97)"/><use xlink:href="#d" transform="matrix(14 0 0 -14 19.496 29.97)"/><use xlink:href="#d" transform="matrix(14 0 0 -14 22.996 29.97)"/><use xlink:href="#e" transform="matrix(14 0 0 -14 31.524 30.182)"/><use xlink:href="#f" transform="matrix(14 0 0 -14 40.766 29.97)"/><use xlink:href="#g" transform="matrix(14 0 0 -14 49.374 30.182)"/><use xlink:href="#h" transform="matrix(14 0 0 -14 59.1 29.97)"/><use xlink:href="#h" transform="matrix(14 0 0 -14 69.25 29.97)"/><use xlink:href="#h" transform="matrix(14 0 0 -14 79.357 29.97)"/><use xlink:href="#h" transform="matrix(14 0 0 -14 89.465 29.97)"/><use xlink:href="#d" transform="matrix(14 0 0 -14 98.708 29.97)"/><symbol id="i"><path d="M0 .074h.252V0H0v.074z"/></symbol><use xlink:href="#i" transform="matrix(14 0 0 -14 102.82 27.345)" fill="red"/><use xlink:href="#f" transform="matrix(14 0 0 -14 110.261 29.97)" fill="#fc0"/><use xlink:href="#e" transform="matrix(14 0 0 -14 118.902 30.182)" fill="red"/><use xlink:href="#f" transform="matrix(14 0 0 -14 129.141 29.97)"/><use xlink:href="#e" transform="matrix(14 0 0 -14 138.428 30.182)" fill="red"/><use xlink:href="#f" transform="matrix(14 0 0 -14 149.314 29.97)" fill="#fc0"/><use xlink:href="#g" transform="matrix(14 0 0 -14 158.264 30.182)"/><use xlink:href="#h" transform="matrix(14 0 0 -14 167.99 29.97)"/><use xlink:href="#h" transform="matrix(14 0 0 -14 178.098 29.97)"/><use xlink:href="#h" transform="matrix(14 0 0 -14 188.206 29.97)"/><use xlink:href="#f" transform="matrix(14 0 0 -14 197.102 29.97)"/></svg>