<svg xmlns="http://www.w3.org/2000/svg" xmlns:xlink="http://www.w3.org/1999/xlink" width="517.795" height="52.913" viewBox="0 0 388.346 39.685"><symbol id="a"><path d="M0 0z"/></symbol><symbol id="b"><path d="m0 .597.161.079h.016v-.56C.177.08.18.057.182.048a.037.037 0 0 1 .02-.02A.164.164 0 0 1 .26.017V0H.01v.018c.032 0 .052.003.061.008.01.005.016.011.02.019a.262.262 0 0 1 .005.072v.357c0 .048-.002.08-.005.093A.038.038 0 0 1 .079.59a.032.032 0 0 1-.021.007.13.13 0 0 1-.05-.015L0 .597z"/></symbol><symbol id="c"><path d="M.437.127.391 0H0v.018c.115.105.196.19.243.257.047.066.07.127.07.182a.144.144 0 0 1-.039.104.123.123 0 0 1-.092.04.144.144 0 0 1-.088-.029A.165.165 0 0 1 .037.49H.02c.008.06.029.106.063.138a.176.176 0 0 0 .126.049.186.186 0 0 0 .134-.052.163.163 0 0 0 .054-.122.236.236 0 0 0-.023-.1.663.663 0 0 0-.117-.168 3.477 3.477 0 0 0-.152-.16h.173c.035 0 .06.001.074.004a.099.099 0 0 1 .038.015c.012.008.021.02.03.034h.018z"/></symbol><symbol id="d"><path d="M.01.548A.268.268 0 0 0 .082.65a.162.162 0 0 0 .107.036.149.149 0 0 0 .123-.051.127.127 0 0 0 .032-.083c0-.048-.03-.098-.091-.15A.197.197 0 0 0 .345.336.177.177 0 0 0 .376.231.22.22 0 0 0 .322.082C.274.027.205 0 .115 0 .071 0 .04.006.024.017.008.027 0 .04 0 .052c0 .01.004.018.011.025a.04.04 0 0 0 .028.01.084.084 0 0 0 .025-.003.285.285 0 0 0 .038-.018.245.245 0 0 1 .04-.018.135.135 0 0 1 .039-.006c.033 0 .062.013.086.04a.127.127 0 0 1 .037.09A.176.176 0 0 1 .26.29a.199.199 0 0 1-.057.035.184.184 0 0 1-.075.016H.111v.015a.2.2 0 0 1 .077.028.147.147 0 0 1 .057.055.145.145 0 0 1 .018.07.108.108 0 0 1-.11.113C.103.621.06.594.026.54L.01.548z"/></symbol><symbol id="e"><path d="M.45.244v-.07H.36V0H.28v.175H0v.062l.307.439h.054V.244H.45m-.17 0v.329L.048.244H.28z"/></symbol><symbol id="f"><path d="M.386.674.348.59h-.2L.106.502A.349.349 0 0 0 .311.406.216.216 0 0 0 .375.25.22.22 0 0 0 .354.153.257.257 0 0 0 .229.027.264.264 0 0 0 .114 0C.074 0 .045.007.027.02.009.034 0 .049 0 .065c0 .01.004.017.011.024a.04.04 0 0 0 .029.01.056.056 0 0 0 .022-.003.198.198 0 0 0 .032-.02A.13.13 0 0 1 .168.05c.039 0 .072.015.1.043A.144.144 0 0 1 .313.2c0 .04-.013.077-.039.112a.247.247 0 0 1-.106.08.432.432 0 0 1-.145.026l.127.257h.237z"/></symbol><symbol id="g"><path d="M.405.688V.668A.32.32 0 0 1 .3.644.295.295 0 0 1 .22.585.38.38 0 0 1 .152.497.53.53 0 0 1 .11.38.248.248 0 0 0 .25.43.154.154 0 0 0 .369.375a.2.2 0 0 0 .05-.14.25.25 0 0 0-.05-.152A.189.189 0 0 0 .207 0a.161.161 0 0 0-.115.045A.297.297 0 0 0 0 .27a.438.438 0 0 0 .264.395c.04.014.078.021.113.021h.028M.102.346a.843.843 0 0 1-.01-.107C.093.208.099.174.11.137A.201.201 0 0 1 .162.05a.086.086 0 0 1 .06-.023c.028 0 .054.014.076.04a.173.173 0 0 1 .034.115.298.298 0 0 1-.034.144C.276.366.245.387.204.387A.118.118 0 0 1 .164.38.395.395 0 0 1 .102.346z"/></symbol><symbol id="h"><path d="M.063.676h.355V.657L.198 0H.143l.198.596H.159A.17.17 0 0 1 .08.583a.164.164 0 0 1-.066-.07L0 .52l.063.157z"/></symbol><symbol id="i"><path d="M.131.345A.463.463 0 0 0 .03.45a.16.16 0 0 0-.023.08c0 .044.017.08.05.112A.185.185 0 0 0 .19.687.187.187 0 0 0 .32.644a.13.13 0 0 0 .048-.1A.134.134 0 0 0 .341.47.383.383 0 0 0 .23.38.623.623 0 0 0 .345.273.173.173 0 0 0 .382.169a.158.158 0 0 0-.053-.12A.197.197 0 0 0 .189 0a.187.187 0 0 0-.147.06A.153.153 0 0 0 0 .162C0 .192.01.22.03.25.05.278.082.31.13.345m.077.052A.35.35 0 0 1 .282.48a.15.15 0 0 1 .016.07c0 .034-.01.06-.029.08A.105.105 0 0 1 .19.66.115.115 0 0 1 .11.63.089.089 0 0 1 .077.563c0-.017.004-.034.013-.05a.187.187 0 0 1 .037-.05l.08-.066M.154.327a.228.228 0 0 1-.06-.075.196.196 0 0 1-.02-.087C.075.123.087.089.11.064A.114.114 0 0 1 .197.026c.035 0 .063.01.084.03.021.02.032.044.032.072a.111.111 0 0 1-.019.063.699.699 0 0 1-.14.136z"/></symbol><symbol id="j"><path d="M.013 0v.018c.043 0 .082.01.118.03.037.019.072.052.106.1.034.047.058.1.071.156A.263.263 0 0 0 .17.254.157.157 0 0 0 .05.31.204.204 0 0 0 0 .452c0 .058.017.11.05.155a.185.185 0 0 0 .296.015.306.306 0 0 0 .071-.206A.411.411 0 0 0 .363.21a.458.458 0 0 0-.15-.158A.305.305 0 0 0 .04 0H.013m.303.34a.78.78 0 0 1 .009.102.362.362 0 0 1-.016.102.191.191 0 0 1-.046.084.092.092 0 0 1-.067.03.097.097 0 0 1-.076-.04C.098.594.087.555.087.503.087.434.1.38.13.342A.095.095 0 0 1 .208.298C.223.3.241.303.262.31.282.317.3.327.316.34z"/></symbol><symbol id="k"><path d="M0 .339c0 .075.011.14.034.195a.273.273 0 0 0 .091.122c.03.02.06.031.09.031C.268.688.313.662.354.61A.41.41 0 0 0 .428.35.514.514 0 0 0 .395.152.26.26 0 0 0 .31.036.173.173 0 0 0 .21 0C.149 0 .096.037.054.112A.455.455 0 0 0 0 .339M.096.327c0-.091.01-.166.033-.223C.148.055.176.03.212.03.23.03.248.039.267.054a.152.152 0 0 1 .043.08.965.965 0 0 1 .023.237.648.648 0 0 1-.024.189.168.168 0 0 1-.045.08.077.077 0 0 1-.107-.014.249.249 0 0 1-.049-.128A1.185 1.185 0 0 1 .096.327z"/></symbol><use xlink:href="#a" transform="matrix(9 0 0 -9 1.842 9.826)"/><use xlink:href="#b" transform="matrix(9 0 0 -9 5.668 9.826)"/><use xlink:href="#a" transform="matrix(9 0 0 -9 9.114 9.826)"/><use xlink:href="#c" transform="matrix(9 0 0 -9 15.247 9.826)"/><use xlink:href="#a" transform="matrix(9 0 0 -9 19.554 9.826)"/><use xlink:href="#d" transform="matrix(9 0 0 -9 25.85 9.932)"/><use xlink:href="#a" transform="matrix(9 0 0 -9 29.985 9.826)"/><use xlink:href="#a" transform="matrix(9 0 0 -9 32.235 9.826)"/><use xlink:href="#a" transform="matrix(9 0 0 -9 34.485 9.826)"/><use xlink:href="#a" transform="matrix(9 0 0 -9 36.735 9.826)"/><use xlink:href="#a" transform="matrix(9 0 0 -9 38.985 9.826)"/><use xlink:href="#a" transform="matrix(9 0 0 -9 41.235 9.826)"/><use xlink:href="#a" transform="matrix(9 0 0 -9 43.485 9.826)"/><use xlink:href="#a" transform="matrix(9 0 0 -9 45.735 9.826)"/><use xlink:href="#a" transform="matrix(9 0 0 -9 47.985 9.826)"/><use xlink:href="#a" transform="matrix(9 0 0 -9 50.235 9.826)"/><use xlink:href="#a" transform="matrix(9 0 0 -9 52.485 9.826)"/><use xlink:href="#a" transform="matrix(9 0 0 -9 54.735 9.826)"/><use xlink:href="#a" transform="matrix(9 0 0 -9 56.985 9.826)"/><use xlink:href="#a" transform="matrix(9 0 0 -9 59.235 9.826)"/><use xlink:href="#a" transform="matrix(9 0 0 -9 61.485 9.826)"/><use xlink:href="#a" transform="matrix(9 0 0 -9 63.735 9.826)"/><use xlink:href="#a" transform="matrix(9 0 0 -9 65.985 9.826)"/><use xlink:href="#a" transform="matrix(9 0 0 -9 68.235 9.826)"/><use xlink:href="#a" transform="matrix(9 0 0 -9 70.485 9.826)"/><use xlink:href="#a" transform="matrix(9 0 0 -9 72.735 9.826)"/><use xlink:href="#a" transform="matrix(9 0 0 -9 74.985 9.826)"/><use xlink:href="#a" transform="matrix(9 0 0 -9 77.235 9.826)"/><use xlink:href="#a" transform="matrix(9 0 0 -9 79.485 9.826)"/><use xlink:href="#a" transform="matrix(9 0 0 -9 81.735 9.826)"/><use xlink:href="#a" transform="matrix(9 0 0 -9 83.985 9.826)"/><use xlink:href="#a" transform="matrix(9 0 0 -9 86.235 9.826)"/><use xlink:href="#a" transform="matrix(9 0 0 -9 88.485 9.826)"/><use xlink:href="#a" transform="matrix(9 0 0 -9 90.735 9.826)"/><use xlink:href="#a" transform="matrix(9 0 0 -9 92.985 9.826)"/><use xlink:href="#a" transform="matrix(9 0 0 -9 95.235 9.826)"/><use xlink:href="#a" transform="matrix(9 0 0 -9 97.485 9.826)"/><use xlink:href="#a" transform="matrix(9 0 0 -9 99.735 9.826)"/><use xlink:href="#a" transform="matrix(9 0 0 -9 101.985 9.826)"/><use xlink:href="#a" transform="matrix(9 0 0 -9 104.235 9.826)"/><use xlink:href="#a" transform="matrix(9 0 0 -9 106.485 9.826)"/><use xlink:href="#a" transform="matrix(9 0 0 -9 108.735 9.826)"/><use xlink:href="#a" transform="matrix(9 0 0 -9 110.985 9.826)"/><use xlink:href="#a" transform="matrix(9 0 0 -9 113.235 9.826)"/><use xlink:href="#a" transform="matrix(9 0 0 -9 115.485 9.826)"/><use xlink:href="#a" transform="matrix(9 0 0 -9 117.735 9.826)"/><use xlink:href="#a" transform="matrix(9 0 0 -9 119.985 9.826)"/><use xlink:href="#a" transform="matrix(9 0 0 -9 122.235 9.826)"/><use xlink:href="#a" transform="matrix(9 0 0 -9 124.485 9.826)"/><use xlink:href="#a" transform="matrix(9 0 0 -9 126.735 9.826)"/><use xlink:href="#a" transform="matrix(9 0 0 -9 128.985 9.826)"/><use xlink:href="#a" transform="matrix(9 0 0 -9 131.235 9.826)"/><use xlink:href="#a" transform="matrix(9 0 0 -9 133.485 9.826)"/><use xlink:href="#a" transform="matrix(9 0 0 -9 135.735 9.826)"/><use xlink:href="#a" transform="matrix(9 0 0 -9 137.985 9.826)"/><use xlink:href="#a" transform="matrix(9 0 0 -9 140.235 9.826)"/><use xlink:href="#a" transform="matrix(9 0 0 -9 142.485 9.826)"/><use xlink:href="#a" transform="matrix(9 0 0 -9 144.735 9.826)"/><use xlink:href="#a" transform="matrix(9 0 0 -9 146.985 9.826)"/><use xlink:href="#a" transform="matrix(9 0 0 -9 149.235 9.826)"/><use xlink:href="#a" transform="matrix(9 0 0 -9 151.485 9.826)"/><use xlink:href="#a" transform="matrix(9 0 0 -9 153.735 9.826)"/><use xlink:href="#a" transform="matrix(9 0 0 -9 155.985 9.826)"/><use xlink:href="#e" transform="matrix(9 0 0 -9 146.801 9.826)"/><use xlink:href="#a" transform="matrix(9 0 0 -9 151.16 9.826)"/><use xlink:href="#a" transform="matrix(9 0 0 -9 153.41 9.826)"/><use xlink:href="#a" transform="matrix(9 0 0 -9 155.66 9.826)"/><use xlink:href="#f" transform="matrix(9 0 0 -9 156.757 9.932)"/><use xlink:href="#a" transform="matrix(9 0 0 -9 160.827 9.826)"/><use xlink:href="#g" transform="matrix(9 0 0 -9 166.622 9.932)"/><use xlink:href="#a" transform="matrix(9 0 0 -9 170.736 9.826)"/><use xlink:href="#h" transform="matrix(9 0 0 -9 175.947 9.95)"/><use xlink:href="#a" transform="matrix(9 0 0 -9 180.114 9.826)"/><use xlink:href="#i" transform="matrix(9 0 0 -9 185.014 9.932)"/><use xlink:href="#a" transform="matrix(9 0 0 -9 188.97 9.826)"/><use xlink:href="#a" transform="matrix(9 0 0 -9 191.22 9.826)"/><use xlink:href="#j" transform="matrix(9 0 0 -9 193.825 9.95)"/><use xlink:href="#a" transform="matrix(9 0 0 -9 197.97 9.826)"/><use xlink:href="#k" transform="matrix(9 0 0 -9 202.129 9.932)"/><use xlink:href="#a" transform="matrix(9 0 0 -9 206.304 9.826)"/><use xlink:href="#b" transform="matrix(9 0 0 -9 212.236 9.826)"/><use xlink:href="#a" transform="matrix(9 0 0 -9 215.682 9.826)"/><use xlink:href="#c" transform="matrix(9 0 0 -9 220.753 9.826)"/><use xlink:href="#a" transform="matrix(9 0 0 -9 225.06 9.826)"/><use xlink:href="#d" transform="matrix(9 0 0 -9 230.833 9.932)"/><use xlink:href="#a" transform="matrix(9 0 0 -9 234.969 9.826)"/><use xlink:href="#e" transform="matrix(9 0 0 -9 239.465 9.826)"/><use xlink:href="#a" transform="matrix(9 0 0 -9 243.825 9.826)"/><use xlink:href="#a" transform="matrix(9 0 0 -9 246.075 9.826)"/><use xlink:href="#a" transform="matrix(9 0 0 -9 248.325 9.826)"/><use xlink:href="#a" transform="matrix(9 0 0 -9 250.575 9.826)"/><use xlink:href="#a" transform="matrix(9 0 0 -9 252.825 9.826)"/><use xlink:href="#a" transform="matrix(9 0 0 -9 255.075 9.826)"/><use xlink:href="#a" transform="matrix(9 0 0 -9 257.325 9.826)"/><use xlink:href="#a" transform="matrix(9 0 0 -9 259.575 9.826)"/><use xlink:href="#a" transform="matrix(9 0 0 -9 261.825 9.826)"/><use xlink:href="#a" transform="matrix(9 0 0 -9 264.075 9.826)"/><use xlink:href="#a" transform="matrix(9 0 0 -9 266.325 9.826)"/><use xlink:href="#a" transform="matrix(9 0 0 -9 268.575 9.826)"/><use xlink:href="#a" transform="matrix(9 0 0 -9 270.825 9.826)"/><use xlink:href="#a" transform="matrix(9 0 0 -9 273.075 9.826)"/><use xlink:href="#a" transform="matrix(9 0 0 -9 275.325 9.826)"/><use xlink:href="#a" transform="matrix(9 0 0 -9 277.575 9.826)"/><use xlink:href="#a" transform="matrix(9 0 0 -9 279.825 9.826)"/><use xlink:href="#a" transform="matrix(9 0 0 -9 282.075 9.826)"/><use xlink:href="#a" transform="matrix(9 0 0 -9 284.325 9.826)"/><use xlink:href="#a" transform="matrix(9 0 0 -9 286.575 9.826)"/><use xlink:href="#a" transform="matrix(9 0 0 -9 288.825 9.826)"/><use xlink:href="#a" transform="matrix(9 0 0 -9 291.075 9.826)"/><use xlink:href="#a" transform="matrix(9 0 0 -9 293.325 9.826)"/><use xlink:href="#a" transform="matrix(9 0 0 -9 295.575 9.826)"/><use xlink:href="#a" transform="matrix(9 0 0 -9 297.825 9.826)"/><use xlink:href="#a" transform="matrix(9 0 0 -9 300.075 9.826)"/><use xlink:href="#a" transform="matrix(9 0 0 -9 302.325 9.826)"/><use xlink:href="#a" transform="matrix(9 0 0 -9 304.575 9.826)"/><use xlink:href="#a" transform="matrix(9 0 0 -9 306.825 9.826)"/><use xlink:href="#a" transform="matrix(9 0 0 -9 309.075 9.826)"/><use xlink:href="#a" transform="matrix(9 0 0 -9 311.325 9.826)"/><use xlink:href="#a" transform="matrix(9 0 0 -9 313.575 9.826)"/><use xlink:href="#a" transform="matrix(9 0 0 -9 315.825 9.826)"/><use xlink:href="#a" transform="matrix(9 0 0 -9 318.075 9.826)"/><use xlink:href="#a" transform="matrix(9 0 0 -9 320.325 9.826)"/><use xlink:href="#a" transform="matrix(9 0 0 -9 322.575 9.826)"/><use xlink:href="#a" transform="matrix(9 0 0 -9 324.825 9.826)"/><use xlink:href="#a" transform="matrix(9 0 0 -9 327.075 9.826)"/><use xlink:href="#a" transform="matrix(9 0 0 -9 329.325 9.826)"/><use xlink:href="#a" transform="matrix(9 0 0 -9 331.575 9.826)"/><use xlink:href="#a" transform="matrix(9 0 0 -9 333.825 9.826)"/><use xlink:href="#a" transform="matrix(9 0 0 -9 336.075 9.826)"/><use xlink:href="#a" transform="matrix(9 0 0 -9 338.325 9.826)"/><use xlink:href="#a" transform="matrix(9 0 0 -9 340.575 9.826)"/><use xlink:href="#a" transform="matrix(9 0 0 -9 342.825 9.826)"/><use xlink:href="#a" transform="matrix(9 0 0 -9 345.075 9.826)"/><use xlink:href="#a" transform="matrix(9 0 0 -9 347.325 9.826)"/><use xlink:href="#a" transform="matrix(9 0 0 -9 349.575 9.826)"/><use xlink:href="#a" transform="matrix(9 0 0 -9 351.825 9.826)"/><use xlink:href="#a" transform="matrix(9 0 0 -9 354.075 9.826)"/><use xlink:href="#a" transform="matrix(9 0 0 -9 356.325 9.826)"/><use xlink:href="#a" transform="matrix(9 0 0 -9 358.575 9.826)"/><use xlink:href="#a" transform="matrix(9 0 0 -9 360.825 9.826)"/><use xlink:href="#f" transform="matrix(9 0 0 -9 363.505 9.932)"/><use xlink:href="#a" transform="matrix(9 0 0 -9 367.575 9.826)"/><use xlink:href="#a" transform="matrix(9 0 0 -9 369.825 9.826)"/><use xlink:href="#g" transform="matrix(9 0 0 -9 373.514 9.932)"/><use xlink:href="#a" transform="matrix(9 0 0 -9 377.628 9.826)"/><use xlink:href="#a" transform="matrix(9 0 0 -9 379.878 9.826)"/><use xlink:href="#h" transform="matrix(9 0 0 -9 382.462 9.95)"/><symbol id="l"><path d="M.579.692.596.483H.579a.286.286 0 0 1-.067.118.21.21 0 0 1-.152.057.216.216 0 0 1-.193-.1.36.36 0 0 1-.055-.201c0-.063.013-.12.037-.173A.26.26 0 0 1 .245.07.233.233 0 0 1 .438.042.282.282 0 0 1 .502.07V.26a.17.17 0 0 1-.007.065.048.048 0 0 1-.024.024.13.13 0 0 1-.055.008v.018h.256V.358H.66C.635.358.618.349.608.333A.171.171 0 0 1 .598.26V.06A.485.485 0 0 0 .367 0C.238 0 .141.041.075.123A.329.329 0 0 0 0 .336C0 .394.014.45.042.503A.359.359 0 0 0 .179.65.335.335 0 0 0 .35.692.335.335 0 0 0 .416.687.595.595 0 0 0 .5.66.135.135 0 0 1 .537.65c.006 0 .011.002.015.008.005.006.008.017.009.033h.018z"/></symbol><symbol id="m"><path d="M.566.692.58.467H.566a.283.283 0 0 1-.087.146.21.21 0 0 1-.134.044.218.218 0 0 1-.12-.033.221.221 0 0 1-.083-.107.479.479 0 0 1-.03-.182C.111.275.12.223.14.179a.216.216 0 0 1 .087-.1.25.25 0 0 1 .132-.036c.043 0 .08.01.114.027A.379.379 0 0 1 .58.18L.596.17A.348.348 0 0 0 .48.041.294.294 0 0 0 .322 0C.212 0 .128.04.067.122A.349.349 0 0 0 0 .336a.38.38 0 0 0 .044.182.33.33 0 0 0 .292.174A.312.312 0 0 0 .48.657a.077.077 0 0 1 .029-.01C.517.646.524.65.53.655a.076.076 0 0 1 .018.036h.017z"/></symbol><use xlink:href="#a" transform="matrix(14 0 0 -14 387.678 9.826)" fill="#999"/><use xlink:href="#l" transform="matrix(14 0 0 -14 2.334 24.038)" fill="#999"/><use xlink:href="#l" transform="matrix(14 0 0 -14 12.442 24.038)" fill="#999"/><use xlink:href="#m" transform="matrix(14 0 0 -14 22.563 24.038)" fill="#999"/><symbol id="n"><path d="M.548.662.556.507H.537a.188.188 0 0 1-.015.058.096.096 0 0 1-.04.042.137.137 0 0 1-.066.014H.323V.115c0-.04.004-.066.013-.076.012-.014.031-.02.057-.02h.023V0h-.28v.018h.023c.028 0 .048.009.06.025.006.01.01.035.01.072V.62h-.08A.222.222 0 0 1 .083.614.09.09 0 0 1 .04.578.144.144 0 0 1 .019.507H0l.008.155h.54z"/></symbol><use xlink:href="#n" transform="matrix(14 0 0 -14 31.851 23.826)" fill="#fc0"/><use xlink:href="#l" transform="matrix(14 0 0 -14 40.478 24.038)" fill="green"/><use xlink:href="#m" transform="matrix(14 0 0 -14 50.61 24.038)" fill="red"/><use xlink:href="#m" transform="matrix(14 0 0 -14 59.933 24.038)" fill="red"/><use xlink:href="#m" transform="matrix(14 0 0 -14 69.257 24.038)" fill="red"/><use xlink:href="#n" transform="matrix(14 0 0 -14 78.582 23.826)" fill="#fc0"/><symbol id="o"><path d="M.45.222H.193L.148.117A.165.165 0 0 1 .132.06c0-.01.005-.02.014-.027C.156.025.176.02.208.018V0H0v.018c.028.005.046.011.054.02a.3.3 0 0 1 .055.094l.233.545h.017l.23-.55A.258.258 0 0 1 .64.04.105.105 0 0 1 .704.018V0H.442v.018C.468.02.486.024.495.031.505.04.51.048.51.06a.202.202 0 0 1-.02.067L.45.222M.437.258.324.525.208.258h.228z"/></symbol><use xlink:href="#o" transform="matrix(14 0 0 -14 86.826 23.826)" fill="#00f"/><use xlink:href="#m" transform="matrix(14 0 0 -14 97.34 24.038)" fill="red"/><use xlink:href="#n" transform="matrix(14 0 0 -14 106.61 23.826)" fill="#fc0"/><use xlink:href="#l" transform="matrix(14 0 0 -14 115.236 24.038)" fill="green"/><use xlink:href="#m" transform="matrix(14 0 0 -14 125.367 24.038)" fill="red"/><use xlink:href="#o" transform="matrix(14 0 0 -14 134.322 23.826)" fill="#00f"/><use xlink:href="#n" transform="matrix(14 0 0 -14 144.754 23.826)" fill="#999"/><use xlink:href="#l" transform="matrix(14 0 0 -14 153.362 24.038)" fill="#999"/><use xlink:href="#m" transform="matrix(14 0 0 -14 163.484 24.038)" fill="#999"/><use xlink:href="#m" transform="matrix(14 0 0 -14 172.808 24.038)" fill="#999"/><use xlink:href="#m" transform="matrix(14 0 0 -14 182.174 24.038)" fill="#999"/><use xlink:href="#n" transform="matrix(14 0 0 -14 191.416 23.826)" fill="#999"/><use xlink:href="#o" transform="matrix(14 0 0 -14 198.535 23.826)" fill="#999"/><use xlink:href="#m" transform="matrix(14 0 0 -14 209.04 24.038)" fill="#999"/><use xlink:href="#n" transform="matrix(14 0 0 -14 218.282 23.826)" fill="#999"/><use xlink:href="#l" transform="matrix(14 0 0 -14 226.89 24.038)" fill="#999"/><use xlink:href="#m" transform="matrix(14 0 0 -14 237.054 24.038)" fill="#999"/><use xlink:href="#o" transform="matrix(14 0 0 -14 246.103 23.826)" fill="#fff"/><use xlink:href="#n" transform="matrix(14 0 0 -14 254.972 23.826)" fill="#fff"/><use xlink:href="#l" transform="matrix(14 0 0 -14 263.58 24.038)" fill="#fff"/><use xlink:href="#m" transform="matrix(14 0 0 -14 273.702 24.038)" fill="#fff"/><use xlink:href="#m" transform="matrix(14 0 0 -14 283.026 24.038)" fill="#fff"/><use xlink:href="#m" transform="matrix(14 0 0 -14 292.392 24.038)" fill="#fff"/><use xlink:href="#n" transform="matrix(14 0 0 -14 301.634 23.826)" fill="#fff"/><use xlink:href="#o" transform="matrix(14 0 0 -14 308.753 23.826)" fill="#fff"/><use xlink:href="#m" transform="matrix(14 0 0 -14 319.258 24.038)" fill="#fff"/><use xlink:href="#n" transform="matrix(14 0 0 -14 328.5 23.826)" fill="#fff"/><use xlink:href="#l" transform="matrix(14 0 0 -14 337.108 24.038)" fill="#fff"/><use xlink:href="#m" transform="matrix(14 0 0 -14 347.272 24.038)" fill="#fff"/><use xlink:href="#l" transform="matrix(14 0 0 -14 359.866 24.038)" fill="#999"/><use xlink:href="#m" transform="matrix(14 0 0 -14 369.987 24.038)" fill="#999"/><use xlink:href="#n" transform="matrix(14 0 0 -14 379.23 23.826)" fill="#999"/><use xlink:href="#l" transform="matrix(14 0 0 -14 2.334 38.038)" fill="#999"/><use xlink:href="#l" transform="matrix(14 0 0 -14 12.442 38.038)" fill="#999"/><use xlink:href="#m" transform="matrix(14 0 0 -14 22.563 38.038)" fill="#999"/><use xlink:href="#n" transform="matrix(14 0 0 -14 31.851 37.826)" fill="#fff"/><use xlink:href="#l" transform="matrix(14 0 0 -14 40.46 38.038)" fill="#fff"/><use xlink:href="#m" transform="matrix(14 0 0 -14 50.581 38.038)" fill="#fff"/><use xlink:href="#m" transform="matrix(14 0 0 -14 59.905 38.038)" fill="#fff"/><use xlink:href="#m" transform="matrix(14 0 0 -14 69.271 38.038)" fill="#fff"/><use xlink:href="#n" transform="matrix(14 0 0 -14 78.513 37.826)" fill="#fff"/><use xlink:href="#o" transform="matrix(14 0 0 -14 85.633 37.826)" fill="#fff"/><use xlink:href="#m" transform="matrix(14 0 0 -14 96.137 38.038)" fill="#fff"/><use xlink:href="#n" transform="matrix(14 0 0 -14 105.38 37.826)" fill="#fff"/><use xlink:href="#l" transform="matrix(14 0 0 -14 113.988 38.038)" fill="#fff"/><use xlink:href="#m" transform="matrix(14 0 0 -14 124.151 38.038)" fill="#fff"/><use xlink:href="#o" transform="matrix(14 0 0 -14 133.079 37.826)" fill="#fff"/><use xlink:href="#n" transform="matrix(14 0 0 -14 145.211 37.826)" fill="#999"/><use xlink:href="#l" transform="matrix(14 0 0 -14 153.82 38.038)" fill="#999"/><use xlink:href="#m" transform="matrix(14 0 0 -14 163.941 38.038)" fill="#999"/><use xlink:href="#m" transform="matrix(14 0 0 -14 173.265 38.038)" fill="#999"/><use xlink:href="#m" transform="matrix(14 0 0 -14 182.631 38.038)" fill="#999"/><use xlink:href="#n" transform="matrix(14 0 0 -14 191.873 37.826)" fill="#999"/><use xlink:href="#o" transform="matrix(14 0 0 -14 198.993 37.826)" fill="#999"/><use xlink:href="#m" transform="matrix(14 0 0 -14 209.497 38.038)" fill="#999"/><use xlink:href="#n" transform="matrix(14 0 0 -14 218.739 37.826)" fill="#999"/><use xlink:href="#l" transform="matrix(14 0 0 -14 227.347 38.038)" fill="#999"/><use xlink:href="#m" transform="matrix(14 0 0 -14 237.511 38.038)" fill="#999"/><use xlink:href="#o" transform="matrix(14 0 0 -14 246.56 37.826)" fill="#00f"/><use xlink:href="#n" transform="matrix(14 0 0 -14 256.992 37.826)" fill="#fc0"/><use xlink:href="#l" transform="matrix(14 0 0 -14 265.62 38.038)" fill="green"/><use xlink:href="#m" transform="matrix(14 0 0 -14 275.75 38.038)" fill="red"/><use xlink:href="#m" transform="matrix(14 0 0 -14 285.074 38.038)" fill="red"/><use xlink:href="#m" transform="matrix(14 0 0 -14 294.398 38.038)" fill="red"/><use xlink:href="#n" transform="matrix(14 0 0 -14 303.723 37.826)" fill="#fc0"/><use xlink:href="#o" transform="matrix(14 0 0 -14 311.967 37.826)" fill="#00f"/><use xlink:href="#m" transform="matrix(14 0 0 -14 322.48 38.038)" fill="red"/><use xlink:href="#n" transform="matrix(14 0 0 -14 331.75 37.826)" fill="#fc0"/><use xlink:href="#l" transform="matrix(14 0 0 -14 340.377 38.038)" fill="green"/><use xlink:href="#m" transform="matrix(14 0 0 -14 350.508 38.038)" fill="red"/><use xlink:href="#l" transform="matrix(14 0 0 -14 359.846 38.038)" fill="#999"/><use xlink:href="#m" transform="matrix(14 0 0 -14 369.967 38.038)" fill="#999"/><use xlink:href="#n" transform="matrix(14 0 0 -14 379.21 37.826)" fill="#999"/></svg>