<svg xmlns="http://www.w3.org/2000/svg" xmlns:xlink="http://www.w3.org/1999/xlink" width="514.016" height="71.811" viewBox="0 0 385.512 53.858"><symbol id="a"><path d="M.156.365c.032.033.052.052.057.056.015.013.03.022.048.03.017.006.033.01.05.01A.112.112 0 0 0 .383.435a.12.12 0 0 0 .04-.07C.458.403.487.43.51.441A.15.15 0 0 0 .58.46.11.11 0 0 0 .643.442a.12.12 0 0 0 .044-.06.27.27 0 0 0 .01-.089V.101C.698.073.7.054.705.043A.043.043 0 0 1 .722.025.093.093 0 0 1 .765.018V0h-.22v.018h.009c.019 0 .034.003.045.01a.044.044 0 0 1 .016.026A.313.313 0 0 1 .617.1v.192a.163.163 0 0 1-.013.078C.59.39.57.4.542.4A.116.116 0 0 1 .49.39.278.278 0 0 1 .427.34V.1c0-.03.002-.05.005-.057a.044.044 0 0 1 .02-.02A.114.114 0 0 1 .5.019V0H.274v.018c.025 0 .042.003.05.008.01.006.017.015.02.027A.26.26 0 0 1 .347.1v.192C.347.33.34.356.33.373a.069.069 0 0 1-.06.03A.108.108 0 0 1 .218.39.201.201 0 0 1 .156.341V.1c0-.03.002-.048.006-.057A.045.045 0 0 1 .18.024.122.122 0 0 1 .229.018V0H.007v.018c.02 0 .035.002.043.006a.044.044 0 0 1 .019.02c.004.01.006.03.006.057v.171a.62.62 0 0 1-.004.095C.069.377.065.385.06.39A.03.03 0 0 1 .04.396.094.094 0 0 1 .007.388L0 .406.135.46h.02V.365z"/></symbol><symbol id="b"><path d="M.249.074A.737.737 0 0 0 .163.012.132.132 0 0 0 .106 0C.076 0 .05.01.03.032A.117.117 0 0 0 0 .115c0 .022.005.04.015.057a.194.194 0 0 0 .069.062c.033.02.088.044.165.072v.017c0 .045-.007.075-.021.092C.214.432.193.44.166.44A.07.07 0 0 1 .117.423.05.05 0 0 1 .1.385V.357C.1.342.097.33.089.322A.039.039 0 0 0 .058.31a.039.039 0 0 0-.03.013.05.05 0 0 0-.01.034c0 .028.013.054.042.078A.186.186 0 0 0 .18.47.21.21 0 0 0 .279.45.092.092 0 0 0 .321.402.267.267 0 0 0 .33.316V.165c0-.043 0-.07.002-.08C.334.077.336.07.34.068A.02.02 0 0 1 .353.062c.005 0 .01.001.014.003l.04.036V.074C.37.024.334 0 .301 0a.047.047 0 0 0-.038.017C.254.028.249.047.249.074m0 .031v.17a.964.964 0 0 1-.095-.04.164.164 0 0 1-.055-.046.087.087 0 0 1-.017-.05c0-.024.007-.044.021-.06A.064.064 0 0 1 .151.058C.176.057.21.073.25.105z"/></symbol><symbol id="c"><path d="M.002.617.14.672H.16V.568c.023.04.046.067.069.082a.13.13 0 0 0 .074.024.142.142 0 0 0 .112-.052A.25.25 0 0 0 .47.454.28.28 0 0 0 .403.262.176.176 0 0 0 .265.2a.172.172 0 0 0-.062.01.146.146 0 0 0-.044.03V.104c0-.031.001-.05.005-.059a.043.043 0 0 1 .02-.02.122.122 0 0 1 .05-.007V0H0v.018h.012c.018 0 .033.003.046.01.006.004.011.01.014.018a.196.196 0 0 1 .006.06V.53a.23.23 0 0 1-.004.055.033.033 0 0 1-.013.018.04.04 0 0 1-.023.006A.088.088 0 0 1 .008.6L.002.617M.16.539V.372c0-.036.001-.06.004-.071A.092.092 0 0 1 .196.25.104.104 0 0 1 .264.229c.032 0 .059.013.079.039a.22.22 0 0 1 .04.14c0 .068-.016.12-.046.157a.093.093 0 0 1-.12.027.272.272 0 0 1-.058-.053z"/></symbol><symbol id="d"><path d="M.07.292A.23.23 0 0 1 .117.136.147.147 0 0 1 .232.08c.03 0 .055.008.077.024a.18.18 0 0 1 .054.083l.015-.01a.234.234 0 0 0-.06-.122A.16.16 0 0 0 .196 0c-.053 0-.1.02-.138.063A.242.242 0 0 0 0 .23c0 .077.02.137.059.18.039.042.088.064.148.064.05 0 .09-.017.123-.05A.18.18 0 0 0 .378.292H.07m0 .029h.207a.191.191 0 0 1-.01.06.096.096 0 0 1-.037.043.09.09 0 0 1-.05.016.101.101 0 0 1-.073-.032A.136.136 0 0 1 .07.321z"/></symbol><symbol id="e"><path d="M.156.46v-.1c.037.067.076.1.115.1A.062.062 0 0 0 .315.444.05.05 0 0 0 .333.406.045.045 0 0 0 .32.374.04.04 0 0 0 .29.361C.279.36.266.366.251.377.237.39.227.395.221.395.213.395.207.39.2.385A.235.235 0 0 1 .156.319V.104C.156.08.159.061.165.048A.05.05 0 0 1 .187.026.099.099 0 0 1 .234.018V0h-.23v.018c.024 0 .04.003.052.01a.042.042 0 0 1 .017.025.251.251 0 0 1 .002.048v.173a.663.663 0 0 1-.003.093.035.035 0 0 1-.012.022.032.032 0 0 1-.02.007.097.097 0 0 1-.035-.008L0 .406.135.46h.02z"/></symbol><symbol id="f"><path d="M0 0z"/></symbol><symbol id="g"><path d="M.45.222H.193L.148.117A.165.165 0 0 1 .132.06c0-.01.005-.02.014-.027C.156.025.176.02.208.018V0H0v.018c.028.005.046.011.054.02a.3.3 0 0 1 .055.094l.233.545h.017l.23-.55A.258.258 0 0 1 .64.04.105.105 0 0 1 .704.018V0H.442v.018C.468.02.486.024.495.031.505.04.51.048.51.06a.202.202 0 0 1-.02.067L.45.222M.437.258.324.525.208.258h.228z"/></symbol><symbol id="h"><path d="M.445.338A.212.212 0 0 0 .548.29a.146.146 0 0 0 .048-.11.165.165 0 0 0-.032-.095A.18.18 0 0 0 .48.021.5.5 0 0 0 .313 0H0v.018h.025c.028 0 .047.009.06.026.007.012.01.036.01.073v.428c0 .04-.004.067-.013.078C.069.637.05.644.025.644H0v.018h.286A.565.565 0 0 0 .415.65.205.205 0 0 0 .526.588.152.152 0 0 0 .535.396a.178.178 0 0 0-.09-.058M.19.364A.409.409 0 0 1 .282.357c.047 0 .083.005.107.016.024.01.042.026.055.047a.132.132 0 0 1 .019.07.127.127 0 0 1-.047.098C.384.616.338.63.277.63A.332.332 0 0 1 .19.62V.364m0-.316A.492.492 0 0 1 .301.035c.06 0 .104.013.135.04C.467.1.482.133.482.172c0 .026-.007.05-.02.074a.14.14 0 0 1-.069.056.295.295 0 0 1-.117.02A1.165 1.165 0 0 1 .189.32V.048z"/></symbol><symbol id="i"><path d="M.566.692.58.467H.566a.283.283 0 0 1-.087.146.21.21 0 0 1-.134.044.218.218 0 0 1-.12-.033.221.221 0 0 1-.083-.107.479.479 0 0 1-.03-.182C.111.275.12.223.14.179a.216.216 0 0 1 .087-.1.25.25 0 0 1 .132-.036c.043 0 .08.01.114.027A.379.379 0 0 1 .58.18L.596.17A.348.348 0 0 0 .48.041.294.294 0 0 0 .322 0C.212 0 .128.04.067.122A.349.349 0 0 0 0 .336a.38.38 0 0 0 .044.182.33.33 0 0 0 .292.174A.312.312 0 0 0 .48.657a.077.077 0 0 1 .029-.01C.517.646.524.65.53.655a.076.076 0 0 1 .018.036h.017z"/></symbol><symbol id="j"><path d="m0 .597.161.079h.016v-.56C.177.08.18.057.182.048a.037.037 0 0 1 .02-.02A.164.164 0 0 1 .26.017V0H.01v.018c.032 0 .052.003.061.008.01.005.016.011.02.019a.262.262 0 0 1 .005.072v.357c0 .048-.002.08-.005.093A.038.038 0 0 1 .079.59a.032.032 0 0 1-.021.007.13.13 0 0 1-.05-.015L0 .597z"/></symbol><symbol id="k"><path d="M.437.127.391 0H0v.018c.115.105.196.19.243.257.047.066.07.127.07.182a.144.144 0 0 1-.039.104.123.123 0 0 1-.092.04.144.144 0 0 1-.088-.029A.165.165 0 0 1 .037.49H.02c.008.06.029.106.063.138a.176.176 0 0 0 .126.049.186.186 0 0 0 .134-.052.163.163 0 0 0 .054-.122.236.236 0 0 0-.023-.1.663.663 0 0 0-.117-.168 3.477 3.477 0 0 0-.152-.16h.173c.035 0 .06.001.074.004a.099.099 0 0 1 .038.015c.012.008.021.02.03.034h.018z"/></symbol><symbol id="l"><path d="M.01.548A.268.268 0 0 0 .082.65a.162.162 0 0 0 .107.036.149.149 0 0 0 .123-.051.127.127 0 0 0 .032-.083c0-.048-.03-.098-.091-.15A.197.197 0 0 0 .345.336.177.177 0 0 0 .376.231.22.22 0 0 0 .322.082C.274.027.205 0 .115 0 .071 0 .04.006.024.017.008.027 0 .04 0 .052c0 .01.004.018.011.025a.04.04 0 0 0 .028.01.084.084 0 0 0 .025-.003.285.285 0 0 0 .038-.018.245.245 0 0 1 .04-.018.135.135 0 0 1 .039-.006c.033 0 .062.013.086.04a.127.127 0 0 1 .037.09A.176.176 0 0 1 .26.29a.199.199 0 0 1-.057.035.184.184 0 0 1-.075.016H.111v.015a.2.2 0 0 1 .077.028.147.147 0 0 1 .057.055.145.145 0 0 1 .018.07.108.108 0 0 1-.11.113C.103.621.06.594.026.54L.01.548z"/></symbol><symbol id="m"><path d="M.45.244v-.07H.36V0H.28v.175H0v.062l.307.439h.054V.244H.45m-.17 0v.329L.048.244H.28z"/></symbol><symbol id="n"><path d="M.386.674.348.59h-.2L.106.502A.349.349 0 0 0 .311.406.216.216 0 0 0 .375.25.22.22 0 0 0 .354.153.257.257 0 0 0 .229.027.264.264 0 0 0 .114 0C.074 0 .045.007.027.02.009.034 0 .049 0 .065c0 .01.004.017.011.024a.04.04 0 0 0 .029.01.056.056 0 0 0 .022-.003.198.198 0 0 0 .032-.02A.13.13 0 0 1 .168.05c.039 0 .072.015.1.043A.144.144 0 0 1 .313.2c0 .04-.013.077-.039.112a.247.247 0 0 1-.106.08.432.432 0 0 1-.145.026l.127.257h.237z"/></symbol><symbol id="o"><path d="M.405.688V.668A.32.32 0 0 1 .3.644.295.295 0 0 1 .22.585.38.38 0 0 1 .152.497.53.53 0 0 1 .11.38.248.248 0 0 0 .25.43.154.154 0 0 0 .369.375a.2.2 0 0 0 .05-.14.25.25 0 0 0-.05-.152A.189.189 0 0 0 .207 0a.161.161 0 0 0-.115.045A.297.297 0 0 0 0 .27a.438.438 0 0 0 .264.395c.04.014.078.021.113.021h.028M.102.346a.843.843 0 0 1-.01-.107C.093.208.099.174.11.137A.201.201 0 0 1 .162.05a.086.086 0 0 1 .06-.023c.028 0 .054.014.076.04a.173.173 0 0 1 .034.115.298.298 0 0 1-.034.144C.276.366.245.387.204.387A.118.118 0 0 1 .164.38.395.395 0 0 1 .102.346z"/></symbol><symbol id="p"><path d="M.063.676h.355V.657L.198 0H.143l.198.596H.159A.17.17 0 0 1 .08.583a.164.164 0 0 1-.066-.07L0 .52l.063.157z"/></symbol><symbol id="q"><path d="M.131.345A.463.463 0 0 0 .03.45a.16.16 0 0 0-.023.08c0 .044.017.08.05.112A.185.185 0 0 0 .19.687.187.187 0 0 0 .32.644a.13.13 0 0 0 .048-.1A.134.134 0 0 0 .341.47.383.383 0 0 0 .23.38.623.623 0 0 0 .345.273.173.173 0 0 0 .382.169a.158.158 0 0 0-.053-.12A.197.197 0 0 0 .189 0a.187.187 0 0 0-.147.06A.153.153 0 0 0 0 .162C0 .192.01.22.03.25.05.278.082.31.13.345m.077.052A.35.35 0 0 1 .282.48a.15.15 0 0 1 .016.07c0 .034-.01.06-.029.08A.105.105 0 0 1 .19.66.115.115 0 0 1 .11.63.089.089 0 0 1 .077.563c0-.017.004-.034.013-.05a.187.187 0 0 1 .037-.05l.08-.066M.154.327a.228.228 0 0 1-.06-.075.196.196 0 0 1-.02-.087C.075.123.087.089.11.064A.114.114 0 0 1 .197.026c.035 0 .063.01.084.03.021.02.032.044.032.072a.111.111 0 0 1-.019.063.699.699 0 0 1-.14.136z"/></symbol><symbol id="r"><path d="M.013 0v.018c.043 0 .082.01.118.03.037.019.072.052.106.1.034.047.058.1.071.156A.263.263 0 0 0 .17.254.157.157 0 0 0 .05.31.204.204 0 0 0 0 .452c0 .058.017.11.05.155a.185.185 0 0 0 .296.015.306.306 0 0 0 .071-.206A.411.411 0 0 0 .363.21a.458.458 0 0 0-.15-.158A.305.305 0 0 0 .04 0H.013m.303.34a.78.78 0 0 1 .009.102.362.362 0 0 1-.016.102.191.191 0 0 1-.046.084.092.092 0 0 1-.067.03.097.097 0 0 1-.076-.04C.098.594.087.555.087.503.087.434.1.38.13.342A.095.095 0 0 1 .208.298C.223.3.241.303.262.31.282.317.3.327.316.34z"/></symbol><symbol id="s"><path d="M0 .339c0 .075.011.14.034.195a.273.273 0 0 0 .091.122c.03.02.06.031.09.031C.268.688.313.662.354.61A.41.41 0 0 0 .428.35.514.514 0 0 0 .395.152.26.26 0 0 0 .31.036.173.173 0 0 0 .21 0C.149 0 .096.037.054.112A.455.455 0 0 0 0 .339M.096.327c0-.091.01-.166.033-.223C.148.055.176.03.212.03.23.03.248.039.267.054a.152.152 0 0 1 .043.08.965.965 0 0 1 .023.237.648.648 0 0 1-.024.189.168.168 0 0 1-.045.08.077.077 0 0 1-.107-.014.249.249 0 0 1-.049-.128A1.185 1.185 0 0 1 .096.327z"/></symbol><use xlink:href="#a" transform="matrix(8 0 0 -8 2.343 7.185)"/><use xlink:href="#b" transform="matrix(8 0 0 -8 8.778 7.26)"/><use xlink:href="#c" transform="matrix(8 0 0 -8 12.01 8.896)"/><use xlink:href="#c" transform="matrix(8 0 0 -8 16.01 8.896)"/><use xlink:href="#d" transform="matrix(8 0 0 -8 20.334 7.294)"/><use xlink:href="#e" transform="matrix(8 0 0 -8 23.632 7.185)"/><use xlink:href="#f" transform="matrix(8 0 0 -8 26.245 7.185)"/><use xlink:href="#g" transform="matrix(8 0 0 -8 27.868 7.185)"/><use xlink:href="#f" transform="matrix(8 0 0 -8 33.15 7.185)"/><use xlink:href="#f" transform="matrix(8 0 0 -8 35.15 7.185)"/><use xlink:href="#f" transform="matrix(8 0 0 -8 37.15 7.185)"/><use xlink:href="#f" transform="matrix(8 0 0 -8 39.15 7.185)"/><use xlink:href="#f" transform="matrix(8 0 0 -8 41.15 7.185)"/><use xlink:href="#f" transform="matrix(8 0 0 -8 43.15 7.185)"/><use xlink:href="#f" transform="matrix(8 0 0 -8 45.15 7.185)"/><use xlink:href="#f" transform="matrix(8 0 0 -8 47.15 7.185)"/><use xlink:href="#f" transform="matrix(8 0 0 -8 49.15 7.185)"/><use xlink:href="#f" transform="matrix(8 0 0 -8 51.15 7.185)"/><use xlink:href="#f" transform="matrix(8 0 0 -8 53.15 7.185)"/><use xlink:href="#f" transform="matrix(8 0 0 -8 55.15 7.185)"/><use xlink:href="#f" transform="matrix(8 0 0 -8 57.15 7.185)"/><use xlink:href="#f" transform="matrix(8 0 0 -8 59.15 7.185)"/><use xlink:href="#f" transform="matrix(8 0 0 -8 61.15 7.185)"/><use xlink:href="#f" transform="matrix(8 0 0 -8 63.15 7.185)"/><use xlink:href="#f" transform="matrix(8 0 0 -8 65.15 7.185)"/><use xlink:href="#f" transform="matrix(8 0 0 -8 67.15 7.185)"/><use xlink:href="#f" transform="matrix(8 0 0 -8 69.15 7.185)"/><use xlink:href="#f" transform="matrix(8 0 0 -8 71.15 7.185)"/><use xlink:href="#f" transform="matrix(8 0 0 -8 73.15 7.185)"/><use xlink:href="#f" transform="matrix(8 0 0 -8 75.15 7.185)"/><use xlink:href="#f" transform="matrix(8 0 0 -8 77.15 7.185)"/><use xlink:href="#f" transform="matrix(8 0 0 -8 79.15 7.185)"/><use xlink:href="#f" transform="matrix(8 0 0 -8 81.15 7.185)"/><use xlink:href="#f" transform="matrix(8 0 0 -8 83.15 7.185)"/><use xlink:href="#f" transform="matrix(8 0 0 -8 85.15 7.185)"/><use xlink:href="#f" transform="matrix(8 0 0 -8 87.15 7.185)"/><use xlink:href="#f" transform="matrix(8 0 0 -8 89.15 7.185)"/><use xlink:href="#f" transform="matrix(8 0 0 -8 91.15 7.185)"/><use xlink:href="#f" transform="matrix(8 0 0 -8 93.15 7.185)"/><use xlink:href="#f" transform="matrix(8 0 0 -8 95.15 7.185)"/><use xlink:href="#f" transform="matrix(8 0 0 -8 97.15 7.185)"/><use xlink:href="#f" transform="matrix(8 0 0 -8 99.15 7.185)"/><use xlink:href="#f" transform="matrix(8 0 0 -8 101.15 7.185)"/><use xlink:href="#f" transform="matrix(8 0 0 -8 103.15 7.185)"/><use xlink:href="#f" transform="matrix(8 0 0 -8 105.15 7.185)"/><use xlink:href="#f" transform="matrix(8 0 0 -8 107.15 7.185)"/><use xlink:href="#f" transform="matrix(8 0 0 -8 109.15 7.185)"/><use xlink:href="#f" transform="matrix(8 0 0 -8 111.15 7.185)"/><use xlink:href="#f" transform="matrix(8 0 0 -8 113.15 7.185)"/><use xlink:href="#f" transform="matrix(8 0 0 -8 115.15 7.185)"/><use xlink:href="#f" transform="matrix(8 0 0 -8 117.15 7.185)"/><use xlink:href="#f" transform="matrix(8 0 0 -8 119.15 7.185)"/><use xlink:href="#f" transform="matrix(8 0 0 -8 121.15 7.185)"/><use xlink:href="#f" transform="matrix(8 0 0 -8 123.15 7.185)"/><use xlink:href="#f" transform="matrix(8 0 0 -8 125.15 7.185)"/><use xlink:href="#f" transform="matrix(8 0 0 -8 127.15 7.185)"/><use xlink:href="#f" transform="matrix(8 0 0 -8 129.15 7.185)"/><use xlink:href="#f" transform="matrix(8 0 0 -8 131.15 7.185)"/><use xlink:href="#f" transform="matrix(8 0 0 -8 133.15 7.185)"/><use xlink:href="#f" transform="matrix(8 0 0 -8 135.15 7.185)"/><use xlink:href="#f" transform="matrix(8 0 0 -8 137.15 7.185)"/><use xlink:href="#f" transform="matrix(8 0 0 -8 139.15 7.185)"/><use xlink:href="#f" transform="matrix(8 0 0 -8 141.15 7.185)"/><use xlink:href="#f" transform="matrix(8 0 0 -8 143.15 7.185)"/><use xlink:href="#f" transform="matrix(8 0 0 -8 145.15 7.185)"/><use xlink:href="#a" transform="matrix(8 0 0 -8 147.215 7.185)"/><use xlink:href="#b" transform="matrix(8 0 0 -8 153.65 7.26)"/><use xlink:href="#c" transform="matrix(8 0 0 -8 156.882 8.896)"/><use xlink:href="#c" transform="matrix(8 0 0 -8 160.882 8.896)"/><use xlink:href="#d" transform="matrix(8 0 0 -8 165.206 7.294)"/><use xlink:href="#e" transform="matrix(8 0 0 -8 168.504 7.185)"/><use xlink:href="#f" transform="matrix(8 0 0 -8 171.117 7.185)"/><use xlink:href="#h" transform="matrix(8 0 0 -8 173.25 7.185)"/><use xlink:href="#f" transform="matrix(8 0 0 -8 178.445 7.185)"/><use xlink:href="#f" transform="matrix(8 0 0 -8 180.445 7.185)"/><use xlink:href="#f" transform="matrix(8 0 0 -8 182.445 7.185)"/><use xlink:href="#f" transform="matrix(8 0 0 -8 184.445 7.185)"/><use xlink:href="#f" transform="matrix(8 0 0 -8 186.445 7.185)"/><use xlink:href="#f" transform="matrix(8 0 0 -8 188.445 7.185)"/><use xlink:href="#f" transform="matrix(8 0 0 -8 190.445 7.185)"/><use xlink:href="#f" transform="matrix(8 0 0 -8 192.445 7.185)"/><use xlink:href="#f" transform="matrix(8 0 0 -8 194.445 7.185)"/><use xlink:href="#f" transform="matrix(8 0 0 -8 196.445 7.185)"/><use xlink:href="#f" transform="matrix(8 0 0 -8 198.445 7.185)"/><use xlink:href="#f" transform="matrix(8 0 0 -8 200.445 7.185)"/><use xlink:href="#f" transform="matrix(8 0 0 -8 202.445 7.185)"/><use xlink:href="#f" transform="matrix(8 0 0 -8 204.445 7.185)"/><use xlink:href="#f" transform="matrix(8 0 0 -8 206.445 7.185)"/><use xlink:href="#f" transform="matrix(8 0 0 -8 208.445 7.185)"/><use xlink:href="#f" transform="matrix(8 0 0 -8 210.445 7.185)"/><use xlink:href="#f" transform="matrix(8 0 0 -8 212.445 7.185)"/><use xlink:href="#f" transform="matrix(8 0 0 -8 214.445 7.185)"/><use xlink:href="#f" transform="matrix(8 0 0 -8 216.445 7.185)"/><use xlink:href="#f" transform="matrix(8 0 0 -8 218.445 7.185)"/><use xlink:href="#f" transform="matrix(8 0 0 -8 220.445 7.185)"/><use xlink:href="#f" transform="matrix(8 0 0 -8 222.445 7.185)"/><use xlink:href="#f" transform="matrix(8 0 0 -8 224.445 7.185)"/><use xlink:href="#f" transform="matrix(8 0 0 -8 226.445 7.185)"/><use xlink:href="#f" transform="matrix(8 0 0 -8 228.445 7.185)"/><use xlink:href="#f" transform="matrix(8 0 0 -8 230.445 7.185)"/><use xlink:href="#f" transform="matrix(8 0 0 -8 232.445 7.185)"/><use xlink:href="#f" transform="matrix(8 0 0 -8 234.445 7.185)"/><use xlink:href="#f" transform="matrix(8 0 0 -8 236.445 7.185)"/><use xlink:href="#f" transform="matrix(8 0 0 -8 238.445 7.185)"/><use xlink:href="#f" transform="matrix(8 0 0 -8 240.445 7.185)"/><use xlink:href="#f" transform="matrix(8 0 0 -8 242.445 7.185)"/><use xlink:href="#f" transform="matrix(8 0 0 -8 244.445 7.185)"/><use xlink:href="#f" transform="matrix(8 0 0 -8 246.445 7.185)"/><use xlink:href="#f" transform="matrix(8 0 0 -8 248.445 7.185)"/><use xlink:href="#f" transform="matrix(8 0 0 -8 250.445 7.185)"/><use xlink:href="#f" transform="matrix(8 0 0 -8 252.445 7.185)"/><use xlink:href="#f" transform="matrix(8 0 0 -8 254.445 7.185)"/><use xlink:href="#f" transform="matrix(8 0 0 -8 256.445 7.185)"/><use xlink:href="#f" transform="matrix(8 0 0 -8 258.445 7.185)"/><use xlink:href="#f" transform="matrix(8 0 0 -8 260.445 7.185)"/><use xlink:href="#f" transform="matrix(8 0 0 -8 262.445 7.185)"/><use xlink:href="#f" transform="matrix(8 0 0 -8 264.445 7.185)"/><use xlink:href="#f" transform="matrix(8 0 0 -8 266.445 7.185)"/><use xlink:href="#f" transform="matrix(8 0 0 -8 268.445 7.185)"/><use xlink:href="#f" transform="matrix(8 0 0 -8 270.445 7.185)"/><use xlink:href="#f" transform="matrix(8 0 0 -8 272.445 7.185)"/><use xlink:href="#f" transform="matrix(8 0 0 -8 274.445 7.185)"/><use xlink:href="#f" transform="matrix(8 0 0 -8 276.445 7.185)"/><use xlink:href="#f" transform="matrix(8 0 0 -8 278.445 7.185)"/><use xlink:href="#f" transform="matrix(8 0 0 -8 280.445 7.185)"/><use xlink:href="#f" transform="matrix(8 0 0 -8 282.445 7.185)"/><use xlink:href="#f" transform="matrix(8 0 0 -8 284.445 7.185)"/><use xlink:href="#f" transform="matrix(8 0 0 -8 286.445 7.185)"/><use xlink:href="#f" transform="matrix(8 0 0 -8 288.445 7.185)"/><use xlink:href="#a" transform="matrix(8 0 0 -8 290.511 7.185)"/><use xlink:href="#b" transform="matrix(8 0 0 -8 296.946 7.26)"/><use xlink:href="#c" transform="matrix(8 0 0 -8 300.178 8.896)"/><use xlink:href="#c" transform="matrix(8 0 0 -8 304.178 8.896)"/><use xlink:href="#d" transform="matrix(8 0 0 -8 308.502 7.294)"/><use xlink:href="#e" transform="matrix(8 0 0 -8 311.8 7.185)"/><use xlink:href="#f" transform="matrix(8 0 0 -8 314.413 7.185)"/><use xlink:href="#i" transform="matrix(8 0 0 -8 316.702 7.306)"/><use xlink:href="#j" transform="matrix(8 0 0 -8 6.259 21.185)"/><use xlink:href="#f" transform="matrix(8 0 0 -8 9.321 21.185)"/><use xlink:href="#k" transform="matrix(8 0 0 -8 15.093 21.185)"/><use xlink:href="#f" transform="matrix(8 0 0 -8 18.921 21.185)"/><use xlink:href="#f" transform="matrix(8 0 0 -8 20.921 21.185)"/><use xlink:href="#f" transform="matrix(8 0 0 -8 23.193 21.185)"/><use xlink:href="#l" transform="matrix(8 0 0 -8 23.31 21.279)"/><use xlink:href="#f" transform="matrix(8 0 0 -8 26.985 21.185)"/><use xlink:href="#f" transform="matrix(8 0 0 -8 28.985 21.185)"/><use xlink:href="#f" transform="matrix(8 0 0 -8 30.985 21.185)"/><use xlink:href="#m" transform="matrix(8 0 0 -8 31.726 21.185)"/><use xlink:href="#f" transform="matrix(8 0 0 -8 35.601 21.185)"/><use xlink:href="#f" transform="matrix(8 0 0 -8 37.601 21.185)"/><use xlink:href="#f" transform="matrix(8 0 0 -8 39.601 21.185)"/><use xlink:href="#n" transform="matrix(8 0 0 -8 41.704 21.279)"/><use xlink:href="#f" transform="matrix(8 0 0 -8 45.321 21.185)"/><use xlink:href="#f" transform="matrix(8 0 0 -8 47.321 21.185)"/><use xlink:href="#f" transform="matrix(8 0 0 -8 49.321 21.185)"/><use xlink:href="#f" transform="matrix(8 0 0 -8 51.321 21.185)"/><use xlink:href="#f" transform="matrix(8 0 0 -8 53.321 21.185)"/><use xlink:href="#f" transform="matrix(8 0 0 -8 55.321 21.185)"/><use xlink:href="#f" transform="matrix(8 0 0 -8 57.321 21.185)"/><use xlink:href="#f" transform="matrix(8 0 0 -8 59.321 21.185)"/><use xlink:href="#f" transform="matrix(8 0 0 -8 61.321 21.185)"/><use xlink:href="#f" transform="matrix(8 0 0 -8 63.321 21.185)"/><use xlink:href="#f" transform="matrix(8 0 0 -8 65.321 21.185)"/><use xlink:href="#f" transform="matrix(8 0 0 -8 67.321 21.185)"/><use xlink:href="#o" transform="matrix(8 0 0 -8 70.217 21.279)"/><use xlink:href="#f" transform="matrix(8 0 0 -8 73.873 21.185)"/><use xlink:href="#f" transform="matrix(8 0 0 -8 75.873 21.185)"/><use xlink:href="#f" transform="matrix(8 0 0 -8 77.873 21.185)"/><use xlink:href="#f" transform="matrix(8 0 0 -8 79.873 21.185)"/><use xlink:href="#f" transform="matrix(8 0 0 -8 81.873 21.185)"/><use xlink:href="#f" transform="matrix(8 0 0 -8 83.873 21.185)"/><use xlink:href="#f" transform="matrix(8 0 0 -8 85.873 21.185)"/><use xlink:href="#f" transform="matrix(8 0 0 -8 87.873 21.185)"/><use xlink:href="#p" transform="matrix(8 0 0 -8 89.618 21.294)"/><use xlink:href="#f" transform="matrix(8 0 0 -8 93.321 21.185)"/><use xlink:href="#f" transform="matrix(8 0 0 -8 95.321 21.185)"/><use xlink:href="#f" transform="matrix(8 0 0 -8 97.321 21.185)"/><use xlink:href="#q" transform="matrix(8 0 0 -8 99.806 21.279)"/><use xlink:href="#f" transform="matrix(8 0 0 -8 103.321 21.185)"/><use xlink:href="#f" transform="matrix(8 0 0 -8 105.321 21.185)"/><use xlink:href="#f" transform="matrix(8 0 0 -8 107.321 21.185)"/><use xlink:href="#r" transform="matrix(8 0 0 -8 109.638 21.294)"/><use xlink:href="#f" transform="matrix(8 0 0 -8 113.321 21.185)"/><use xlink:href="#s" transform="matrix(8 0 0 -8 118.378 21.279)"/><use xlink:href="#f" transform="matrix(8 0 0 -8 122.09 21.185)"/><use xlink:href="#f" transform="matrix(8 0 0 -8 124.09 21.185)"/><use xlink:href="#f" transform="matrix(8 0 0 -8 126.09 21.185)"/><use xlink:href="#f" transform="matrix(8 0 0 -8 128.09 21.185)"/><use xlink:href="#f" transform="matrix(8 0 0 -8 130.09 21.185)"/><use xlink:href="#f" transform="matrix(8 0 0 -8 132.09 21.185)"/><use xlink:href="#f" transform="matrix(8 0 0 -8 134.09 21.185)"/><use xlink:href="#f" transform="matrix(8 0 0 -8 136.09 21.185)"/><use xlink:href="#f" transform="matrix(8 0 0 -8 138.09 21.185)"/><use xlink:href="#f" transform="matrix(8 0 0 -8 140.09 21.185)"/><use xlink:href="#f" transform="matrix(8 0 0 -8 142.09 21.185)"/><use xlink:href="#f" transform="matrix(8 0 0 -8 144.09 21.185)"/><use xlink:href="#f" transform="matrix(8 0 0 -8 146.09 21.185)"/><use xlink:href="#f" transform="matrix(8 0 0 -8 148.09 21.185)"/><use xlink:href="#f" transform="matrix(8 0 0 -8 148.985 21.185)"/><use xlink:href="#j" transform="matrix(8 0 0 -8 149.707 21.185)"/><use xlink:href="#f" transform="matrix(8 0 0 -8 152.77 21.185)"/><use xlink:href="#f" transform="matrix(8 0 0 -8 154.77 21.185)"/><use xlink:href="#f" transform="matrix(8 0 0 -8 156.77 21.185)"/><use xlink:href="#k" transform="matrix(8 0 0 -8 158.39 21.185)"/><use xlink:href="#l" transform="matrix(8 0 0 -8 166.414 21.279)"/><use xlink:href="#m" transform="matrix(8 0 0 -8 174.918 21.185)"/><use xlink:href="#n" transform="matrix(8 0 0 -8 184.992 21.279)"/><use xlink:href="#o" transform="matrix(8 0 0 -8 222.993 21.279)"/><use xlink:href="#p" transform="matrix(8 0 0 -8 232.474 21.294)"/><use xlink:href="#q" transform="matrix(8 0 0 -8 242.478 21.279)"/><use xlink:href="#r" transform="matrix(8 0 0 -8 252.95 21.294)"/><use xlink:href="#s" transform="matrix(8 0 0 -8 262.458 21.279)"/><use xlink:href="#f" transform="matrix(8 0 0 -8 266.17 21.185)"/><use xlink:href="#f" transform="matrix(8 0 0 -8 268.17 21.185)"/><use xlink:href="#f" transform="matrix(8 0 0 -8 270.17 21.185)"/><use xlink:href="#f" transform="matrix(8 0 0 -8 272.17 21.185)"/><use xlink:href="#f" transform="matrix(8 0 0 -8 274.17 21.185)"/><use xlink:href="#f" transform="matrix(8 0 0 -8 276.17 21.185)"/><use xlink:href="#f" transform="matrix(8 0 0 -8 278.17 21.185)"/><use xlink:href="#f" transform="matrix(8 0 0 -8 280.17 21.185)"/><use xlink:href="#f" transform="matrix(8 0 0 -8 282.17 21.185)"/><use xlink:href="#f" transform="matrix(8 0 0 -8 284.17 21.185)"/><use xlink:href="#f" transform="matrix(8 0 0 -8 286.17 21.185)"/><use xlink:href="#f" transform="matrix(8 0 0 -8 288.17 21.185)"/><use xlink:href="#f" transform="matrix(8 0 0 -8 290.17 21.185)"/><use xlink:href="#f" transform="matrix(8 0 0 -8 292.17 21.185)"/><use xlink:href="#j" transform="matrix(8 0 0 -8 293.003 21.185)"/><use xlink:href="#f" transform="matrix(8 0 0 -8 296.065 21.185)"/><use xlink:href="#f" transform="matrix(8 0 0 -8 298.065 21.185)"/><use xlink:href="#f" transform="matrix(8 0 0 -8 300.481 21.185)"/><use xlink:href="#k" transform="matrix(8 0 0 -8 301.39 21.185)"/><use xlink:href="#f" transform="matrix(8 0 0 -8 305.217 21.185)"/><use xlink:href="#f" transform="matrix(8 0 0 -8 307.217 21.185)"/><use xlink:href="#l" transform="matrix(8 0 0 -8 309.541 21.279)"/><use xlink:href="#f" transform="matrix(8 0 0 -8 313.217 21.185)"/><use xlink:href="#f" transform="matrix(8 0 0 -8 315.217 21.185)"/><use xlink:href="#m" transform="matrix(8 0 0 -8 318.606 21.185)"/><use xlink:href="#f" transform="matrix(8 0 0 -8 322.481 21.185)"/><use xlink:href="#f" transform="matrix(8 0 0 -8 324.481 21.185)"/><use xlink:href="#f" transform="matrix(8 0 0 -8 326.481 21.185)"/><use xlink:href="#n" transform="matrix(8 0 0 -8 328.864 21.279)"/><use xlink:href="#f" transform="matrix(8 0 0 -8 332.481 21.185)"/><use xlink:href="#f" transform="matrix(8 0 0 -8 334.481 21.185)"/><use xlink:href="#f" transform="matrix(8 0 0 -8 336.481 21.185)"/><use xlink:href="#o" transform="matrix(8 0 0 -8 338.41 21.279)"/><use xlink:href="#f" transform="matrix(8 0 0 -8 342.065 21.185)"/><use xlink:href="#f" transform="matrix(8 0 0 -8 344.065 21.185)"/><use xlink:href="#f" transform="matrix(8 0 0 -8 346.065 21.185)"/><use xlink:href="#p" transform="matrix(8 0 0 -8 347.514 21.294)"/><use xlink:href="#f" transform="matrix(8 0 0 -8 351.217 21.185)"/><use xlink:href="#f" transform="matrix(8 0 0 -8 353.217 21.185)"/><use xlink:href="#q" transform="matrix(8 0 0 -8 357.39 21.279)"/><use xlink:href="#f" transform="matrix(8 0 0 -8 360.905 21.185)"/><use xlink:href="#f" transform="matrix(8 0 0 -8 362.905 21.185)"/><use xlink:href="#f" transform="matrix(8 0 0 -8 364.905 21.185)"/><use xlink:href="#r" transform="matrix(8 0 0 -8 367.222 21.294)"/><use xlink:href="#f" transform="matrix(8 0 0 -8 370.905 21.185)"/><use xlink:href="#f" transform="matrix(8 0 0 -8 372.905 21.185)"/><use xlink:href="#f" transform="matrix(8 0 0 -8 374.905 21.185)"/><use xlink:href="#s" transform="matrix(8 0 0 -8 377.194 21.279)"/><use xlink:href="#f" transform="matrix(8 0 0 -8 380.905 21.185)"/><use xlink:href="#f" transform="matrix(8 0 0 -8 382.905 21.185)"/><use xlink:href="#f" transform="matrix(8 0 0 -8 384.905 21.185)"/><symbol id="t"><path d="M.548.662.556.507H.537a.188.188 0 0 1-.015.058.096.096 0 0 1-.04.042.137.137 0 0 1-.066.014H.323V.115c0-.04.004-.066.013-.076.012-.014.031-.02.057-.02h.023V0h-.28v.018h.023c.028 0 .048.009.06.025.006.01.01.035.01.072V.62h-.08A.222.222 0 0 1 .083.614.09.09 0 0 1 .04.578.144.144 0 0 1 .019.507H0l.008.155h.54z"/></symbol><symbol id="u"><path d="M.579.692.596.483H.579a.286.286 0 0 1-.067.118.21.21 0 0 1-.152.057.216.216 0 0 1-.193-.1.36.36 0 0 1-.055-.201c0-.063.013-.12.037-.173A.26.26 0 0 1 .245.07.233.233 0 0 1 .438.042.282.282 0 0 1 .502.07V.26a.17.17 0 0 1-.007.065.048.048 0 0 1-.024.024.13.13 0 0 1-.055.008v.018h.256V.358H.66C.635.358.618.349.608.333A.171.171 0 0 1 .598.26V.06A.485.485 0 0 0 .367 0C.238 0 .141.041.075.123A.329.329 0 0 0 0 .336C0 .394.014.45.042.503A.359.359 0 0 0 .179.65.335.335 0 0 0 .35.692.335.335 0 0 0 .416.687.595.595 0 0 0 .5.66.135.135 0 0 1 .537.65c.006 0 .011.002.015.008.005.006.008.017.009.033h.018z"/></symbol><use xlink:href="#i" transform="matrix(14 0 0 -14 2.783 35.397)" fill="gray"/><use xlink:href="#g" transform="matrix(14 0 0 -14 11.71 35.185)" fill="gray"/><use xlink:href="#t" transform="matrix(14 0 0 -14 20.593 35.185)" fill="gray"/><use xlink:href="#i" transform="matrix(14 0 0 -14 29.215 35.397)" fill="gray"/><use xlink:href="#g" transform="matrix(14 0 0 -14 38.142 35.185)" fill="gray"/><use xlink:href="#f" transform="matrix(14 0 0 -14 47.4 35.185)" fill="gray"/><use xlink:href="#f" transform="matrix(14 0 0 -14 50.9 35.185)" fill="gray"/><use xlink:href="#f" transform="matrix(14 0 0 -14 54.4 35.185)" fill="gray"/><use xlink:href="#f" transform="matrix(14 0 0 -14 57.9 35.185)" fill="gray"/><use xlink:href="#f" transform="matrix(14 0 0 -14 61.4 35.185)" fill="gray"/><use xlink:href="#f" transform="matrix(14 0 0 -14 64.9 35.185)" fill="gray"/><use xlink:href="#i" transform="matrix(14 0 0 -14 67.533 35.397)" fill="gray"/><use xlink:href="#f" transform="matrix(14 0 0 -14 76.351 35.185)" fill="gray"/><use xlink:href="#f" transform="matrix(14 0 0 -14 79.851 35.185)" fill="gray"/><use xlink:href="#f" transform="matrix(14 0 0 -14 83.351 35.185)" fill="gray"/><use xlink:href="#f" transform="matrix(14 0 0 -14 86.851 35.185)" fill="gray"/><use xlink:href="#g" transform="matrix(14 0 0 -14 85.756 35.185)" fill="gray"/><use xlink:href="#u" transform="matrix(14 0 0 -14 96.247 35.397)" fill="gray"/><use xlink:href="#i" transform="matrix(14 0 0 -14 106.369 35.397)" fill="gray"/><use xlink:href="#i" transform="matrix(14 0 0 -14 115.693 35.397)" fill="gray"/><use xlink:href="#f" transform="matrix(14 0 0 -14 124.553 35.185)" fill="gray"/><use xlink:href="#f" transform="matrix(14 0 0 -14 128.053 35.185)" fill="gray"/><use xlink:href="#f" transform="matrix(14 0 0 -14 131.553 35.185)" fill="gray"/><use xlink:href="#f" transform="matrix(14 0 0 -14 135.053 35.185)" fill="gray"/><use xlink:href="#f" transform="matrix(14 0 0 -14 138.553 35.185)" fill="gray"/><use xlink:href="#f" transform="matrix(14 0 0 -14 142.053 35.185)" fill="gray"/><use xlink:href="#i" transform="matrix(14 0 0 -14 146.059 35.397)" fill="gray"/><use xlink:href="#g" transform="matrix(14 0 0 -14 154.986 35.185)" fill="gray"/><use xlink:href="#t" transform="matrix(14 0 0 -14 163.883 35.185)" fill="gray"/><use xlink:href="#i" transform="matrix(14 0 0 -14 172.505 35.397)" fill="gray"/><use xlink:href="#g" transform="matrix(14 0 0 -14 181.432 35.185)" fill="gray"/><use xlink:href="#f" transform="matrix(14 0 0 -14 190.69 35.185)" fill="gray"/><use xlink:href="#f" transform="matrix(14 0 0 -14 194.19 35.185)" fill="gray"/><use xlink:href="#f" transform="matrix(14 0 0 -14 197.69 35.185)" fill="gray"/><use xlink:href="#f" transform="matrix(14 0 0 -14 201.19 35.185)" fill="gray"/><use xlink:href="#f" transform="matrix(14 0 0 -14 204.69 35.185)" fill="gray"/><use xlink:href="#f" transform="matrix(14 0 0 -14 208.19 35.185)" fill="gray"/><use xlink:href="#f" transform="matrix(14 0 0 -14 211.69 35.185)" fill="gray"/><use xlink:href="#f" transform="matrix(14 0 0 -14 215.19 35.185)" fill="gray"/><use xlink:href="#f" transform="matrix(14 0 0 -14 218.69 35.185)" fill="gray"/><use xlink:href="#i" transform="matrix(14 0 0 -14 219.923 35.397)" fill="gray"/><use xlink:href="#g" transform="matrix(14 0 0 -14 228.85 35.185)" fill="gray"/><use xlink:href="#u" transform="matrix(14 0 0 -14 239.341 35.397)" fill="gray"/><use xlink:href="#i" transform="matrix(14 0 0 -14 249.463 35.397)" fill="gray"/><use xlink:href="#i" transform="matrix(14 0 0 -14 258.829 35.397)" fill="gray"/><use xlink:href="#f" transform="matrix(14 0 0 -14 267.647 35.185)" fill="gray"/><use xlink:href="#f" transform="matrix(14 0 0 -14 271.147 35.185)" fill="gray"/><use xlink:href="#f" transform="matrix(14 0 0 -14 274.647 35.185)" fill="gray"/><use xlink:href="#f" transform="matrix(14 0 0 -14 278.147 35.185)" fill="gray"/><use xlink:href="#f" transform="matrix(14 0 0 -14 281.647 35.185)" fill="gray"/><use xlink:href="#f" transform="matrix(14 0 0 -14 285.147 35.185)" fill="gray"/><use xlink:href="#i" transform="matrix(14 0 0 -14 288.747 35.397)" fill="gray"/><use xlink:href="#g" transform="matrix(14 0 0 -14 297.674 35.185)" fill="gray"/><use xlink:href="#t" transform="matrix(14 0 0 -14 306.85 35.185)" fill="gray"/><use xlink:href="#i" transform="matrix(14 0 0 -14 315.473 35.397)" fill="gray"/><use xlink:href="#g" transform="matrix(14 0 0 -14 324.4 35.185)" fill="gray"/><use xlink:href="#i" transform="matrix(14 0 0 -14 334.905 35.397)" fill="gray"/><use xlink:href="#g" transform="matrix(14 0 0 -14 343.874 35.185)" fill="gray"/><use xlink:href="#u" transform="matrix(14 0 0 -14 354.365 35.397)" fill="gray"/><use xlink:href="#i" transform="matrix(14 0 0 -14 364.487 35.397)" fill="gray"/><use xlink:href="#i" transform="matrix(14 0 0 -14 373.81 35.397)" fill="gray"/><use xlink:href="#f" transform="matrix(14 0 0 -14 382.671 35.185)" fill="gray"/><use xlink:href="#i" transform="matrix(14 0 0 -14 2.783 49.397)" fill="gray"/><use xlink:href="#g" transform="matrix(14 0 0 -14 11.71 49.185)" fill="gray"/><use xlink:href="#t" transform="matrix(14 0 0 -14 20.593 49.185)" fill="gray"/><use xlink:href="#i" transform="matrix(14 0 0 -14 29.215 49.397)" fill="gray"/><use xlink:href="#g" transform="matrix(14 0 0 -14 38.142 49.185)" fill="gray"/><use xlink:href="#u" transform="matrix(14 0 0 -14 48.707 49.397)" fill="green"/><use xlink:href="#t" transform="matrix(14 0 0 -14 58.756 49.185)" fill="#fc0"/><use xlink:href="#i" transform="matrix(14 0 0 -14 67.396 49.397)" fill="gray"/><use xlink:href="#u" transform="matrix(14 0 0 -14 76.734 49.397)" fill="green"/><use xlink:href="#g" transform="matrix(14 0 0 -14 86.468 49.185)" fill="gray"/><use xlink:href="#u" transform="matrix(14 0 0 -14 96.96 49.397)" fill="gray"/><use xlink:href="#i" transform="matrix(14 0 0 -14 107.081 49.397)" fill="gray"/><use xlink:href="#i" transform="matrix(14 0 0 -14 116.405 49.397)" fill="gray"/><use xlink:href="#f" transform="matrix(14 0 0 -14 125.265 49.185)" fill="gray"/><use xlink:href="#f" transform="matrix(14 0 0 -14 128.765 49.185)" fill="gray"/><use xlink:href="#f" transform="matrix(14 0 0 -14 132.265 49.185)" fill="gray"/><use xlink:href="#f" transform="matrix(14 0 0 -14 135.765 49.185)" fill="gray"/><use xlink:href="#f" transform="matrix(14 0 0 -14 139.265 49.185)" fill="gray"/><use xlink:href="#f" transform="matrix(14 0 0 -14 142.765 49.185)" fill="gray"/><use xlink:href="#i" transform="matrix(14 0 0 -14 145.945 49.397)" fill="gray"/><use xlink:href="#g" transform="matrix(14 0 0 -14 154.872 49.185)" fill="gray"/><use xlink:href="#t" transform="matrix(14 0 0 -14 163.755 49.185)" fill="gray"/><use xlink:href="#i" transform="matrix(14 0 0 -14 172.377 49.397)" fill="gray"/><use xlink:href="#g" transform="matrix(14 0 0 -14 181.304 49.185)" fill="gray"/><use xlink:href="#u" transform="matrix(14 0 0 -14 191.896 49.397)" fill="green"/><use xlink:href="#t" transform="matrix(14 0 0 -14 201.945 49.185)" fill="#fc0"/><use xlink:href="#i" transform="matrix(14 0 0 -14 210.585 49.397)" fill="red"/><use xlink:href="#u" transform="matrix(14 0 0 -14 219.923 49.397)" fill="green"/><use xlink:href="#g" transform="matrix(14 0 0 -14 229.658 49.185)" fill="gray"/><use xlink:href="#u" transform="matrix(14 0 0 -14 240.149 49.397)" fill="gray"/><use xlink:href="#i" transform="matrix(14 0 0 -14 250.27 49.397)" fill="gray"/><use xlink:href="#i" transform="matrix(14 0 0 -14 259.594 49.397)" fill="gray"/><use xlink:href="#f" transform="matrix(14 0 0 -14 268.454 49.185)" fill="gray"/><use xlink:href="#f" transform="matrix(14 0 0 -14 271.954 49.185)" fill="gray"/><use xlink:href="#f" transform="matrix(14 0 0 -14 275.454 49.185)" fill="gray"/><use xlink:href="#f" transform="matrix(14 0 0 -14 278.954 49.185)" fill="gray"/><use xlink:href="#f" transform="matrix(14 0 0 -14 282.454 49.185)" fill="gray"/><use xlink:href="#f" transform="matrix(14 0 0 -14 285.954 49.185)" fill="gray"/><use xlink:href="#i" transform="matrix(14 0 0 -14 289.12 49.397)" fill="gray"/><use xlink:href="#g" transform="matrix(14 0 0 -14 298.048 49.185)" fill="gray"/><use xlink:href="#t" transform="matrix(14 0 0 -14 306.93 49.185)" fill="gray"/><use xlink:href="#i" transform="matrix(14 0 0 -14 315.552 49.397)" fill="gray"/><use xlink:href="#g" transform="matrix(14 0 0 -14 324.48 49.185)" fill="gray"/><symbol id="v"><path d="M.121.379a.148.148 0 0 0-.085.135c0 .044.017.083.05.114a.179.179 0 0 0 .128.048c.043 0 .08-.01.111-.031H.42L.444.644A.007.007 0 0 0 .45.64C.451.637.452.632.452.624S.452.61.45.606A.01.01 0 0 0 .444.603.104.104 0 0 0 .42.6H.362a.142.142 0 0 0 .027-.09.14.14 0 0 0-.048-.107A.181.181 0 0 0 .213.36a.25.25 0 0 0-.068.01.131.131 0 0 1-.03-.033.052.052 0 0 1-.007-.024c0-.005.003-.01.008-.016C.122.292.132.288.148.287A.841.841 0 0 1 .216.282C.283.28.326.279.346.276A.121.121 0 0 0 .42.242.092.092 0 0 0 .446.175C.446.138.43.104.395.07A.28.28 0 0 0 .195 0a.285.285 0 0 0-.158.042C.012.06 0 .076 0 .093 0 .101.002.11.005.117a.273.273 0 0 0 .035.05L.09.22a.166.166 0 0 0-.037.027.041.041 0 0 0-.01.027c0 .011.005.025.014.04.01.015.03.037.064.065m.085.274a.076.076 0 0 1-.06-.029C.129.604.12.575.12.536a.19.19 0 0 1 .033-.12A.079.079 0 0 1 .22.384c.024 0 .045.01.06.028.017.018.025.047.025.087A.196.196 0 0 1 .27.621a.077.077 0 0 1-.064.032M.116.216A.24.24 0 0 1 .082.169.084.084 0 0 1 .07.13C.07.115.08.102.098.09A.27.27 0 0 1 .24.059c.059 0 .102.01.13.03C.397.11.41.133.41.157.41.173.402.185.386.192a.326.326 0 0 1-.1.013C.211.207.155.21.115.215z"/></symbol><use xlink:href="#v" transform="matrix(14 0 0 -14 334.998 52.207)" fill="green"/><symbol id="w"><path d="M.151.602V.455h.105V.42H.15V.13c0-.029.004-.048.013-.058A.04.04 0 0 1 .196.057c.01 0 .021.003.031.01.01.006.018.016.023.03h.02A.155.155 0 0 0 .22.023.105.105 0 0 0 .157 0a.088.088 0 0 0-.044.012.077.077 0 0 0-.032.036.19.19 0 0 0-.01.072v.3H0v.017c.018.007.036.019.055.036a.29.29 0 0 1 .081.129h.015z"/></symbol><use xlink:href="#w" transform="matrix(14 0 0 -14 341.717 49.288)" fill="#fc0"/><symbol id="x"><path d="M.377.184a.244.244 0 0 0-.07-.137A.17.17 0 0 0 .188 0a.172.172 0 0 0-.132.064A.251.251 0 0 0 0 .237c0 .07.02.127.063.171a.201.201 0 0 0 .15.066C.257.474.293.462.322.44.35.416.364.392.364.367a.04.04 0 0 0-.012-.03A.046.046 0 0 0 .32.324c-.02 0-.034.006-.044.019C.27.35.266.364.265.383a.063.063 0 0 1-.02.044.07.07 0 0 1-.048.014A.097.097 0 0 1 .12.405.192.192 0 0 1 .079.28c0-.054.013-.1.04-.142a.121.121 0 0 1 .106-.06c.032 0 .06.01.086.032A.22.22 0 0 1 .363.19L.377.184z"/></symbol><use xlink:href="#x" transform="matrix(14 0 0 -14 345.942 49.376)" fill="red"/><use xlink:href="#v" transform="matrix(14 0 0 -14 352.087 52.207)" fill="green"/><use xlink:href="#b" transform="matrix(14 0 0 -14 359.17 49.315)" fill="#00f"/><use xlink:href="#v" transform="matrix(14 0 0 -14 365.295 52.207)" fill="green"/><use xlink:href="#x" transform="matrix(14 0 0 -14 372.356 49.376)" fill="red"/><use xlink:href="#x" transform="matrix(14 0 0 -14 378.558 49.376)" fill="red"/></svg>