<svg xmlns="http://www.w3.org/2000/svg" xmlns:xlink="http://www.w3.org/1999/xlink" width="748.346" height="222.992" viewBox="0 0 561.26 167.244"><symbol id="a"><path d="M.659 0H.482L.258.31.218.309h-.03V.118C.188.076.193.05.202.04.215.025.233.018.258.018h.026V0H0v.018h.025c.028 0 .048.01.06.027.007.01.01.034.01.072v.428c0 .042-.004.067-.013.078C.069.637.05.644.025.644H0v.018h.241c.07 0 .122-.005.155-.016A.174.174 0 00.481.59.146.146 0 00.517.492a.154.154 0 00-.04-.106.223.223 0 00-.123-.064L.49.132A.34.34 0 01.57.045.203.203 0 01.66.018V0m-.47.34a.23.23 0 00.016 0h.01C.28.34.327.354.359.38a.131.131 0 01.049.105.135.135 0 01-.04.1.138.138 0 01-.102.04.43.43 0 01-.077-.01V.34z"/></symbol><symbol id="b"><path d="M.07.292A.23.23 0 01.117.136.147.147 0 01.232.08c.03 0 .055.008.077.024a.18.18 0 01.054.083l.015-.01a.234.234 0 00-.06-.122A.16.16 0 00.196 0c-.053 0-.1.02-.138.063A.242.242 0 000 .23c0 .077.02.137.059.18.039.042.088.064.148.064.05 0 .09-.017.123-.05A.18.18 0 00.378.292H.07m0 .029h.207a.191.191 0 01-.01.06.096.096 0 01-.037.043.09.09 0 01-.05.016.101.101 0 01-.073-.032A.136.136 0 01.07.321z"/></symbol><symbol id="c"><path d="M.167.412V.118C.167.076.172.05.181.04A.06.06 0 01.23.018H.27V0H.003v.018h.02c.013 0 .025.003.036.01A.05.05 0 01.08.053a.213.213 0 01.006.064v.294H0v.035h.087v.03c0 .044.007.082.021.113a.18.18 0 00.165.104A.15.15 0 00.368.66C.387.646.396.63.396.61A.04.04 0 00.383.584.038.038 0 00.356.57a.046.046 0 00-.024.008.138.138 0 00-.03.035.122.122 0 01-.033.036.063.063 0 01-.034.01.06.06 0 01-.038-.013.066.066 0 01-.023-.037.692.692 0 01-.007-.13V.447h.116V.412H.167z"/></symbol><symbol id="e"><path d="M.566.692L.58.467H.566a.283.283 0 01-.087.146.21.21 0 01-.134.044.218.218 0 01-.12-.033.221.221 0 01-.083-.107.479.479 0 01-.03-.182C.111.275.12.223.14.179a.216.216 0 01.087-.1.25.25 0 01.132-.036c.043 0 .08.01.114.027A.379.379 0 01.58.18L.596.17A.348.348 0 00.48.041.294.294 0 00.322 0C.212 0 .128.04.067.122A.349.349 0 000 .336a.38.38 0 00.044.182.33.33 0 00.292.174A.312.312 0 00.48.657a.077.077 0 01.029-.01C.517.646.524.65.53.655a.076.076 0 01.018.036h.017z"/></symbol><symbol id="f"><path d="M.45.222H.193L.148.117A.165.165 0 01.132.06c0-.01.005-.02.014-.027C.156.025.176.02.208.018V0H0v.018c.028.005.046.011.054.02a.3.3 0 01.055.094l.233.545h.017l.23-.55A.258.258 0 01.64.04.105.105 0 01.704.018V0H.442v.018C.468.02.486.024.495.031.505.04.51.048.51.06a.202.202 0 01-.02.067L.45.222M.437.258L.324.525.208.258h.228z"/></symbol><symbol id="g"><path d="M.579.692L.596.483H.579a.286.286 0 01-.067.118.21.21 0 01-.152.057.216.216 0 01-.193-.1.36.36 0 01-.055-.201c0-.063.013-.12.037-.173A.26.26 0 01.245.07.233.233 0 01.438.042.282.282 0 01.502.07V.26a.17.17 0 01-.007.065.048.048 0 01-.024.024.13.13 0 01-.055.008v.018h.256V.358H.66C.635.358.618.349.608.333A.171.171 0 01.598.26V.06A.485.485 0 00.367 0C.238 0 .141.041.075.123A.329.329 0 000 .336C0 .394.014.45.042.503A.359.359 0 00.179.65.335.335 0 00.35.692.335.335 0 00.416.687.595.595 0 00.5.66.135.135 0 01.537.65c.006 0 .011.002.015.008.005.006.008.017.009.033h.018z"/></symbol><symbol id="h"><path d="M.548.662L.556.507H.537a.188.188 0 01-.015.058.096.096 0 01-.04.042.137.137 0 01-.066.014H.323V.115c0-.04.004-.066.013-.076.012-.014.031-.02.057-.02h.023V0h-.28v.018h.023c.028 0 .048.009.06.025.006.01.01.035.01.072V.62h-.08A.222.222 0 01.083.614.09.09 0 01.04.578.144.144 0 01.019.507H0l.008.155h.54z"/></symbol><use xlink:href="#a" transform="matrix(10 0 0 -10 54.033 31.689)"/><use xlink:href="#b" transform="matrix(10 0 0 -10 60.893 31.826)"/><use xlink:href="#c" transform="matrix(10 0 0 -10 65.337 31.689)"/><use xlink:href="#d" transform="matrix(10 0 0 -10 68.282 31.689)"/><use xlink:href="#d" transform="matrix(10 0 0 -10 70.782 31.689)"/><use xlink:href="#e" transform="matrix(10 0 0 -10 74.063 31.84)"/><use xlink:href="#f" transform="matrix(10 0 0 -10 80.44 31.689)"/><use xlink:href="#g" transform="matrix(10 0 0 -10 87.933 31.84)"/><use xlink:href="#e" transform="matrix(10 0 0 -10 95.163 31.84)"/><use xlink:href="#h" transform="matrix(10 0 0 -10 101.384 31.689)"/><use xlink:href="#g" transform="matrix(10 0 0 -10 107.943 31.84)"/><use xlink:href="#f" transform="matrix(10 0 0 -10 114.89 31.689)"/><use xlink:href="#h" transform="matrix(10 0 0 -10 123.044 31.689)"/><use xlink:href="#g" transform="matrix(10 0 0 -10 130.713 31.84)"/><use xlink:href="#e" transform="matrix(10 0 0 -10 138.143 31.84)"/><use xlink:href="#f" transform="matrix(10 0 0 -10 144.63 31.689)"/><use xlink:href="#e" transform="matrix(10 0 0 -10 152.543 31.84)"/><use xlink:href="#g" transform="matrix(10 0 0 -10 158.693 31.84)"/><use xlink:href="#e" transform="matrix(10 0 0 -10 165.633 31.84)"/><use xlink:href="#f" transform="matrix(10 0 0 -10 172.01 31.689)"/><use xlink:href="#g" transform="matrix(10 0 0 -10 179.503 31.84)"/><use xlink:href="#g" transform="matrix(10 0 0 -10 186.723 31.84)"/><use xlink:href="#e" transform="matrix(10 0 0 -10 193.953 31.84)"/><use xlink:href="#h" transform="matrix(10 0 0 -10 200.584 31.689)"/><use xlink:href="#e" transform="matrix(10 0 0 -10 206.743 31.84)"/><use xlink:href="#d" transform="matrix(10 0 0 -10 53.862 51.689)" fill="#999"/><use xlink:href="#d" transform="matrix(10 0 0 -10 56.362 51.689)" fill="#999"/><use xlink:href="#d" transform="matrix(10 0 0 -10 58.862 51.689)" fill="#999"/><use xlink:href="#d" transform="matrix(10 0 0 -10 61.362 51.689)" fill="#999"/><use xlink:href="#d" transform="matrix(10 0 0 -10 63.862 51.689)" fill="#999"/><use xlink:href="#d" transform="matrix(10 0 0 -10 66.362 51.689)" fill="#999"/><use xlink:href="#e" transform="matrix(10 0 0 -10 74.513 51.84)" fill="#999"/><use xlink:href="#f" transform="matrix(10 0 0 -10 80.89 51.689)" fill="#999"/><use xlink:href="#g" transform="matrix(10 0 0 -10 88.383 51.84)" fill="#999"/><use xlink:href="#e" transform="matrix(10 0 0 -10 95.613 51.84)" fill="#999"/><use xlink:href="#h" transform="matrix(10 0 0 -10 102.244 51.689)" fill="#999"/><use xlink:href="#g" transform="matrix(10 0 0 -10 108.393 51.84)" fill="#999"/><use xlink:href="#f" transform="matrix(10 0 0 -10 114.95 51.689)" fill="#999"/><use xlink:href="#e" transform="matrix(10 0 0 -10 122.488 51.84)" fill="red"/><use xlink:href="#g" transform="matrix(10 0 0 -10 129.56 51.84)" fill="#999"/><use xlink:href="#e" transform="matrix(10 0 0 -10 137.2 51.84)" fill="#999"/><use xlink:href="#f" transform="matrix(10 0 0 -10 143.577 51.689)" fill="#999"/><use xlink:href="#g" transform="matrix(10 0 0 -10 150.693 51.84)" fill="green"/><symbol id="i"><path d="M0 .074h.252V0H0v.074z"/></symbol><use xlink:href="#g" transform="matrix(10 0 0 -10 158.221 51.84)" fill="#999"/><use xlink:href="#e" transform="matrix(10 0 0 -10 165.15 51.84)" fill="#999"/><use xlink:href="#d" transform="matrix(10 0 0 -10 53.862 61.689)" fill="#999"/><use xlink:href="#d" transform="matrix(10 0 0 -10 56.362 61.689)" fill="#999"/><use xlink:href="#d" transform="matrix(10 0 0 -10 58.862 61.689)" fill="#999"/><use xlink:href="#d" transform="matrix(10 0 0 -10 61.362 61.689)" fill="#999"/><use xlink:href="#d" transform="matrix(10 0 0 -10 63.862 61.689)" fill="#999"/><use xlink:href="#e" transform="matrix(10 0 0 -10 74.653 61.84)" fill="#999"/><use xlink:href="#f" transform="matrix(10 0 0 -10 81.03 61.689)" fill="#999"/><use xlink:href="#g" transform="matrix(10 0 0 -10 88.523 61.84)" fill="#999"/><use xlink:href="#e" transform="matrix(10 0 0 -10 95.753 61.84)" fill="#999"/><use xlink:href="#h" transform="matrix(10 0 0 -10 102.384 61.689)" fill="#999"/><use xlink:href="#g" transform="matrix(10 0 0 -10 108.533 61.84)" fill="#999"/><use xlink:href="#i" transform="matrix(10 0 0 -10 117.507 59.814)" fill="#999"/><use xlink:href="#i" transform="matrix(10 0 0 -10 124.937 59.814)" fill="#999"/><use xlink:href="#i" transform="matrix(10 0 0 -10 131.787 59.814)" fill="#999"/><use xlink:href="#i" transform="matrix(10 0 0 -10 139.097 59.814)" fill="#999"/><use xlink:href="#f" transform="matrix(10 0 0 -10 143.58 61.689)" fill="#999"/><use xlink:href="#e" transform="matrix(10 0 0 -10 150.793 61.84)" fill="#999"/><use xlink:href="#g" transform="matrix(10 0 0 -10 158.013 61.84)" fill="#999"/><use xlink:href="#e" transform="matrix(10 0 0 -10 165.243 61.84)" fill="#999"/><use xlink:href="#f" transform="matrix(10 0 0 -10 171.62 61.689)" fill="#999"/><use xlink:href="#g" transform="matrix(10 0 0 -10 179.113 61.84)" fill="#999"/><use xlink:href="#g" transform="matrix(10 0 0 -10 186.333 61.84)" fill="#999"/><use xlink:href="#e" transform="matrix(10 0 0 -10 193.593 61.84)" fill="#999"/><use xlink:href="#h" transform="matrix(10 0 0 -10 200.194 61.689)" fill="#999"/><use xlink:href="#e" transform="matrix(10 0 0 -10 206.353 61.84)" fill="#999"/><use xlink:href="#d" transform="matrix(10 0 0 -10 53.862 71.689)" fill="#999"/><use xlink:href="#d" transform="matrix(10 0 0 -10 56.362 71.689)" fill="#999"/><use xlink:href="#d" transform="matrix(10 0 0 -10 58.862 71.689)" fill="#999"/><use xlink:href="#d" transform="matrix(10 0 0 -10 61.362 71.689)" fill="#999"/><use xlink:href="#d" transform="matrix(10 0 0 -10 63.862 71.689)" fill="#999"/><use xlink:href="#d" transform="matrix(10 0 0 -10 66.362 71.689)" fill="#999"/><use xlink:href="#e" transform="matrix(10 0 0 -10 74.513 71.84)" fill="#999"/><use xlink:href="#f" transform="matrix(10 0 0 -10 80.89 71.689)" fill="#999"/><use xlink:href="#g" transform="matrix(10 0 0 -10 88.383 71.84)" fill="#999"/><use xlink:href="#e" transform="matrix(10 0 0 -10 95.613 71.84)" fill="#999"/><use xlink:href="#h" transform="matrix(10 0 0 -10 102.244 71.689)" fill="#999"/><use xlink:href="#g" transform="matrix(10 0 0 -10 108.393 71.84)" fill="#999"/><use xlink:href="#f" transform="matrix(10 0 0 -10 115.06 71.689)" fill="#999"/><use xlink:href="#d" transform="matrix(10 0 0 -10 121.662 71.689)" fill="#999"/><use xlink:href="#i" transform="matrix(10 0 0 -10 124.677 69.814)" fill="#999"/><use xlink:href="#d" transform="matrix(10 0 0 -10 127.602 71.689)" fill="#999"/><use xlink:href="#i" transform="matrix(10 0 0 -10 131.727 69.814)" fill="#999"/><use xlink:href="#d" transform="matrix(10 0 0 -10 134.652 71.689)" fill="#999"/><use xlink:href="#i" transform="matrix(10 0 0 -10 138.777 69.814)" fill="#999"/><use xlink:href="#d" transform="matrix(10 0 0 -10 141.702 71.689)" fill="#999"/><use xlink:href="#i" transform="matrix(10 0 0 -10 145.017 69.814)" fill="#999"/><use xlink:href="#e" transform="matrix(10 0 0 -10 150.613 71.84)" fill="#999"/><use xlink:href="#g" transform="matrix(10 0 0 -10 158.133 71.84)" fill="#999"/><use xlink:href="#e" transform="matrix(10 0 0 -10 165.363 71.84)" fill="#999"/><use xlink:href="#f" transform="matrix(10 0 0 -10 171.74 71.689)" fill="#999"/><use xlink:href="#g" transform="matrix(10 0 0 -10 179.233 71.84)" fill="#999"/><use xlink:href="#g" transform="matrix(10 0 0 -10 186.483 71.84)" fill="#999"/><use xlink:href="#e" transform="matrix(10 0 0 -10 193.713 71.84)" fill="#999"/><use xlink:href="#h" transform="matrix(10 0 0 -10 200.314 71.689)" fill="#999"/><use xlink:href="#e" transform="matrix(10 0 0 -10 206.473 71.84)" fill="#999"/><symbol id="j"><path d="M.377.184a.244.244 0 00-.07-.137A.17.17 0 00.188 0a.172.172 0 00-.132.064A.251.251 0 000 .237c0 .07.02.127.063.171a.201.201 0 00.15.066C.257.474.293.462.322.44.35.416.364.392.364.367a.04.04 0 00-.012-.03A.046.046 0 00.32.324c-.02 0-.034.006-.044.019C.27.35.266.364.265.383a.063.063 0 01-.02.044.07.07 0 01-.048.014A.097.097 0 01.12.405.192.192 0 01.079.28c0-.054.013-.1.04-.142a.121.121 0 01.106-.06c.032 0 .06.01.086.032A.22.22 0 01.363.19L.377.184z"/></symbol><use xlink:href="#j" transform="matrix(10 0 0 -10 124.365 81.826)" fill="red"/><symbol id="k"><path d="M.151.602V.455h.105V.42H.15V.13c0-.029.004-.048.013-.058A.04.04 0 01.196.057c.01 0 .021.003.031.01.01.006.018.016.023.03h.02A.155.155 0 00.22.023.105.105 0 00.157 0a.088.088 0 00-.044.012.077.077 0 00-.032.036.19.19 0 00-.01.072v.3H0v.017c.018.007.036.019.055.036a.29.29 0 01.081.129h.015z"/></symbol><use xlink:href="#k" transform="matrix(10 0 0 -10 131.772 81.762)" fill="#fc0"/><symbol id="l"><path d="M.121.379a.148.148 0 00-.085.135c0 .044.017.083.05.114a.179.179 0 00.128.048c.043 0 .08-.01.111-.031H.42L.444.644A.007.007 0 00.45.64C.451.637.452.632.452.624S.452.61.45.606A.01.01 0 00.444.603.104.104 0 00.42.6H.362a.142.142 0 00.027-.09.14.14 0 00-.048-.107A.181.181 0 00.213.36a.25.25 0 00-.068.01.131.131 0 01-.03-.033.052.052 0 01-.007-.024c0-.005.003-.01.008-.016C.122.292.132.288.148.287A.841.841 0 01.216.282C.283.28.326.279.346.276A.121.121 0 00.42.242.092.092 0 00.446.175C.446.138.43.104.395.07A.28.28 0 00.195 0a.285.285 0 00-.158.042C.012.06 0 .076 0 .093 0 .101.002.11.005.117a.273.273 0 00.035.05L.09.22a.166.166 0 00-.037.027.041.041 0 00-.01.027c0 .011.005.025.014.04.01.015.03.037.064.065m.085.274a.076.076 0 01-.06-.029C.129.604.12.575.12.536a.19.19 0 01.033-.12A.079.079 0 01.22.384c.024 0 .045.01.06.028.017.018.025.047.025.087A.196.196 0 01.27.621a.077.077 0 01-.064.032M.116.216A.24.24 0 01.082.169.084.084 0 01.07.13C.07.115.08.102.098.09A.27.27 0 01.24.059c.059 0 .102.01.13.03C.397.11.41.133.41.157.41.173.402.185.386.192a.326.326 0 01-.1.013C.211.207.155.21.115.215z"/></symbol><use xlink:href="#l" transform="matrix(10 0 0 -10 137.963 83.847)" fill="green"/><use xlink:href="#f" transform="matrix(10 0 0 -10 143.548 81.689)" fill="#999"/><use xlink:href="#e" transform="matrix(10 0 0 -10 150.19 81.84)" fill="#999"/><use xlink:href="#g" transform="matrix(10 0 0 -10 157.461 81.84)" fill="#999"/><use xlink:href="#e" transform="matrix(10 0 0 -10 164.69 81.84)" fill="#999"/><use xlink:href="#f" transform="matrix(10 0 0 -10 171.068 81.689)" fill="#999"/><use xlink:href="#g" transform="matrix(10 0 0 -10 178.561 81.84)" fill="#999"/><use xlink:href="#g" transform="matrix(10 0 0 -10 185.781 81.84)" fill="#999"/><use xlink:href="#e" transform="matrix(10 0 0 -10 193.04 81.84)" fill="#999"/><use xlink:href="#h" transform="matrix(10 0 0 -10 199.642 81.689)" fill="#999"/><use xlink:href="#e" transform="matrix(10 0 0 -10 205.8 81.84)" fill="#999"/><use xlink:href="#a" transform="matrix(10 0 0 -10 290.285 35.397)"/><use xlink:href="#b" transform="matrix(10 0 0 -10 297.146 35.534)"/><use xlink:href="#c" transform="matrix(10 0 0 -10 301.59 35.397)"/><use xlink:href="#d" transform="matrix(10 0 0 -10 304.534 35.397)"/><use xlink:href="#d" transform="matrix(10 0 0 -10 307.034 35.397)"/><use xlink:href="#f" transform="matrix(10 0 0 -10 309.083 35.397)"/><use xlink:href="#f" transform="matrix(10 0 0 -10 316.303 35.397)"/><use xlink:href="#g" transform="matrix(10 0 0 -10 323.796 35.549)"/><use xlink:href="#h" transform="matrix(10 0 0 -10 330.967 35.397)"/><use xlink:href="#h" transform="matrix(10 0 0 -10 337.067 35.397)"/><use xlink:href="#g" transform="matrix(10 0 0 -10 343.216 35.549)"/><use xlink:href="#d" transform="matrix(10 0 0 -10 350.114 35.397)"/><use xlink:href="#d" transform="matrix(10 0 0 -10 352.614 35.397)"/><use xlink:href="#d" transform="matrix(10 0 0 -10 355.114 35.397)"/><use xlink:href="#d" transform="matrix(10 0 0 -10 357.614 35.397)"/><use xlink:href="#d" transform="matrix(10 0 0 -10 360.114 35.397)"/><use xlink:href="#d" transform="matrix(10 0 0 -10 362.614 35.397)"/><use xlink:href="#d" transform="matrix(10 0 0 -10 365.114 35.397)"/><use xlink:href="#d" transform="matrix(10 0 0 -10 367.614 35.397)"/><use xlink:href="#d" transform="matrix(10 0 0 -10 370.114 35.397)"/><use xlink:href="#d" transform="matrix(10 0 0 -10 372.614 35.397)"/><use xlink:href="#d" transform="matrix(10 0 0 -10 375.114 35.397)"/><use xlink:href="#d" transform="matrix(10 0 0 -10 377.614 35.397)"/><use xlink:href="#d" transform="matrix(10 0 0 -10 380.114 35.397)"/><use xlink:href="#d" transform="matrix(10 0 0 -10 382.614 35.397)"/><use xlink:href="#d" transform="matrix(10 0 0 -10 385.114 35.397)"/><use xlink:href="#d" transform="matrix(10 0 0 -10 387.614 35.397)"/><use xlink:href="#e" transform="matrix(10 0 0 -10 384.936 35.549)"/><use xlink:href="#e" transform="matrix(10 0 0 -10 391.596 35.549)"/><use xlink:href="#h" transform="matrix(10 0 0 -10 398.197 35.397)"/><use xlink:href="#g" transform="matrix(10 0 0 -10 404.346 35.549)"/><use xlink:href="#f" transform="matrix(10 0 0 -10 411.323 35.397)"/><use xlink:href="#h" transform="matrix(10 0 0 -10 417.657 35.397)"/><use xlink:href="#d" transform="matrix(10 0 0 -10 423.284 35.397)"/><use xlink:href="#d" transform="matrix(10 0 0 -10 425.784 35.397)"/><use xlink:href="#d" transform="matrix(10 0 0 -10 428.284 35.397)"/><use xlink:href="#d" transform="matrix(10 0 0 -10 430.784 35.397)"/><use xlink:href="#d" transform="matrix(10 0 0 -10 433.284 35.397)"/><use xlink:href="#d" transform="matrix(10 0 0 -10 435.784 35.397)"/><use xlink:href="#d" transform="matrix(10 0 0 -10 438.284 35.397)"/><use xlink:href="#d" transform="matrix(10 0 0 -10 440.784 35.397)"/><use xlink:href="#d" transform="matrix(10 0 0 -10 443.284 35.397)"/><use xlink:href="#d" transform="matrix(10 0 0 -10 445.784 35.397)"/><use xlink:href="#d" transform="matrix(10 0 0 -10 448.284 35.397)"/><use xlink:href="#d" transform="matrix(10 0 0 -10 450.784 35.397)"/><use xlink:href="#d" transform="matrix(10 0 0 -10 453.284 35.397)"/><use xlink:href="#d" transform="matrix(10 0 0 -10 455.784 35.397)"/><use xlink:href="#d" transform="matrix(10 0 0 -10 458.284 35.397)"/><use xlink:href="#d" transform="matrix(10 0 0 -10 460.784 35.397)"/><use xlink:href="#d" transform="matrix(10 0 0 -10 463.284 35.397)"/><use xlink:href="#d" transform="matrix(10 0 0 -10 465.784 35.397)"/><use xlink:href="#d" transform="matrix(10 0 0 -10 468.284 35.397)"/><use xlink:href="#d" transform="matrix(10 0 0 -10 470.784 35.397)"/><use xlink:href="#d" transform="matrix(10 0 0 -10 473.284 35.397)"/><use xlink:href="#d" transform="matrix(10 0 0 -10 475.784 35.397)"/><use xlink:href="#d" transform="matrix(10 0 0 -10 478.284 35.397)"/><use xlink:href="#d" transform="matrix(10 0 0 -10 480.784 35.397)"/><use xlink:href="#d" transform="matrix(10 0 0 -10 483.284 35.397)"/><use xlink:href="#d" transform="matrix(10 0 0 -10 485.784 35.397)"/><use xlink:href="#d" transform="matrix(10 0 0 -10 488.284 35.397)"/><use xlink:href="#d" transform="matrix(10 0 0 -10 490.784 35.397)"/><use xlink:href="#d" transform="matrix(10 0 0 -10 493.284 35.397)"/><use xlink:href="#d" transform="matrix(10 0 0 -10 495.784 35.397)"/><use xlink:href="#d" transform="matrix(10 0 0 -10 498.284 35.397)"/><use xlink:href="#d" transform="matrix(10 0 0 -10 500.784 35.397)"/><use xlink:href="#d" transform="matrix(10 0 0 -10 503.284 35.397)"/><use xlink:href="#d" transform="matrix(10 0 0 -10 505.784 35.397)"/><use xlink:href="#d" transform="matrix(10 0 0 -10 508.284 35.397)"/><use xlink:href="#d" transform="matrix(10 0 0 -10 510.784 35.397)"/><use xlink:href="#d" transform="matrix(10 0 0 -10 513.284 35.397)"/><use xlink:href="#d" transform="matrix(10 0 0 -10 515.784 35.397)"/><use xlink:href="#d" transform="matrix(10 0 0 -10 518.284 35.397)"/><use xlink:href="#h" transform="matrix(10 0 0 -10 520.907 35.397)"/><use xlink:href="#h" transform="matrix(10 0 0 -10 527.007 35.397)"/><use xlink:href="#f" transform="matrix(10 0 0 -10 532.093 35.397)"/><use xlink:href="#h" transform="matrix(10 0 0 -10 538.427 35.397)"/><use xlink:href="#g" transform="matrix(10 0 0 -10 544.576 35.549)"/><use xlink:href="#f" transform="matrix(10 0 0 -10 551.523 35.397)"/><use xlink:href="#d" transform="matrix(10 0 0 -10 290.114 55.397)" fill="#999"/><use xlink:href="#d" transform="matrix(10 0 0 -10 292.614 55.397)" fill="#999"/><use xlink:href="#d" transform="matrix(10 0 0 -10 295.114 55.397)" fill="#999"/><use xlink:href="#d" transform="matrix(10 0 0 -10 297.614 55.397)" fill="#999"/><use xlink:href="#d" transform="matrix(10 0 0 -10 300.114 55.397)" fill="#999"/><use xlink:href="#d" transform="matrix(10 0 0 -10 302.614 55.397)" fill="#999"/><use xlink:href="#d" transform="matrix(10 0 0 -10 305.114 55.397)" fill="#999"/><use xlink:href="#d" transform="matrix(10 0 0 -10 307.614 55.397)" fill="#999"/><use xlink:href="#f" transform="matrix(10 0 0 -10 309.643 55.397)" fill="#999"/><use xlink:href="#f" transform="matrix(10 0 0 -10 316.863 55.397)" fill="#999"/><use xlink:href="#g" transform="matrix(10 0 0 -10 324.356 55.549)" fill="#999"/><use xlink:href="#h" transform="matrix(10 0 0 -10 331.527 55.397)" fill="#999"/><use xlink:href="#h" transform="matrix(10 0 0 -10 337.627 55.397)" fill="#999"/><use xlink:href="#g" transform="matrix(10 0 0 -10 343.806 55.549)" fill="#999"/><use xlink:href="#g" transform="matrix(10 0 0 -10 351.052 55.549)" fill="green"/><use xlink:href="#h" transform="matrix(10 0 0 -10 358.23 55.397)" fill="#fc0"/><use xlink:href="#h" transform="matrix(10 0 0 -10 364.33 55.397)" fill="#fc0"/><use xlink:href="#g" transform="matrix(10 0 0 -10 370.505 55.549)" fill="green"/><use xlink:href="#h" transform="matrix(10 0 0 -10 377.683 55.397)" fill="#fc0"/><use xlink:href="#f" transform="matrix(10 0 0 -10 383.572 55.397)" fill="#00f"/><use xlink:href="#g" transform="matrix(10 0 0 -10 391.072 55.549)" fill="green"/><use xlink:href="#h" transform="matrix(10 0 0 -10 398.25 55.397)" fill="#999"/><use xlink:href="#g" transform="matrix(10 0 0 -10 404.398 55.549)" fill="#999"/><use xlink:href="#f" transform="matrix(10 0 0 -10 411.345 55.397)" fill="#999"/><use xlink:href="#h" transform="matrix(10 0 0 -10 417.69 55.397)" fill="#999"/><use xlink:href="#f" transform="matrix(10 0 0 -10 423.591 55.397)" fill="#00f"/><use xlink:href="#f" transform="matrix(10 0 0 -10 430.811 55.397)" fill="#00f"/><use xlink:href="#f" transform="matrix(10 0 0 -10 438.031 55.397)" fill="#00f"/><use xlink:href="#g" transform="matrix(10 0 0 -10 445.544 55.549)" fill="green"/><use xlink:href="#h" transform="matrix(10 0 0 -10 452.722 55.397)" fill="#fc0"/><use xlink:href="#h" transform="matrix(10 0 0 -10 458.822 55.397)" fill="#fc0"/><use xlink:href="#g" transform="matrix(10 0 0 -10 464.997 55.549)" fill="green"/><use xlink:href="#g" transform="matrix(10 0 0 -10 472.217 55.549)" fill="green"/><use xlink:href="#e" transform="matrix(10 0 0 -10 479.46 55.549)" fill="red"/><use xlink:href="#f" transform="matrix(10 0 0 -10 485.857 55.397)" fill="#00f"/><use xlink:href="#g" transform="matrix(10 0 0 -10 493.357 55.549)" fill="green"/><use xlink:href="#g" transform="matrix(10 0 0 -10 500.577 55.549)" fill="green"/><use xlink:href="#h" transform="matrix(10 0 0 -10 507.761 55.397)" fill="#fc0"/><use xlink:href="#e" transform="matrix(10 0 0 -10 513.933 55.549)" fill="red"/><use xlink:href="#f" transform="matrix(10 0 0 -10 520.33 55.397)" fill="#00f"/><use xlink:href="#h" transform="matrix(10 0 0 -10 527.78 55.397)" fill="#b3b3b3"/><use xlink:href="#f" transform="matrix(10 0 0 -10 532.856 55.397)" fill="#b3b3b3"/><use xlink:href="#h" transform="matrix(10 0 0 -10 539.2 55.397)" fill="#b3b3b3"/><use xlink:href="#g" transform="matrix(10 0 0 -10 545.35 55.549)" fill="#b3b3b3"/><use xlink:href="#f" transform="matrix(10 0 0 -10 552.296 55.397)" fill="#b3b3b3"/><symbol id="m"><path d="M.188.31V.117C.188.076.193.05.202.04.215.025.233.018.258.018h.026V0H0v.018h.025c.028 0 .048.01.06.027.006.01.01.034.01.072v.428C.095.587.09.612.082.623.069.637.05.644.025.644H0v.018h.243c.059 0 .106-.006.14-.018A.191.191 0 00.469.582.159.159 0 00.504.479.173.173 0 00.451.347C.415.313.365.297.3.297A.426.426 0 00.188.31m0 .028a.723.723 0 01.08-.01c.034 0 .064.013.088.04.025.026.037.06.037.101a.182.182 0 01-.018.08.12.12 0 01-.05.055.144.144 0 01-.073.019.289.289 0 01-.064-.01V.338z"/></symbol><symbol id="n"><path d="M.33.692A.3.3 0 00.555.594.337.337 0 00.648.35C.648.25.617.166.553.1a.307.307 0 00-.23-.1.306.306 0 00-.23.097A.35.35 0 000 .35c0 .105.036.19.107.257a.317.317 0 00.224.086M.32.657A.175.175 0 01.18.59C.134.536.112.456.112.35c0-.108.023-.192.07-.25a.171.171 0 01.14-.066c.062 0 .113.024.154.072.04.049.06.125.06.23C.537.45.515.535.47.59A.18.18 0 01.32.657z"/></symbol><symbol id="o"><path d="M.396.692V.463H.378a.282.282 0 01-.032.105.179.179 0 01-.151.085.118.118 0 01-.084-.03.094.094 0 01-.033-.071c0-.02.007-.039.02-.055A.54.54 0 01.244.399.951.951 0 00.369.322.18.18 0 00.44.184C.44.134.42.091.382.054A.211.211 0 00.231 0a.318.318 0 00-.117.022.275.275 0 01-.06.016.026.026 0 01-.02-.008C.03.025.028.015.025 0H.006v.227h.018A.324.324 0 01.06.12.165.165 0 01.124.062.205.205 0 01.221.038c.04 0 .073.01.096.032a.1.1 0 01.036.076.102.102 0 01-.014.05.144.144 0 01-.041.046C.285.252.25.272.194.304A1.047 1.047 0 00.073.38a.206.206 0 00-.054.063.162.162 0 00.036.198.194.194 0 00.139.051.28.28 0 00.112-.025.115.115 0 01.038-.013c.009 0 .016.003.02.008.006.005.01.015.014.03h.018z"/></symbol><symbol id="p"><path d="M.188.626V.364h.146C.372.364.397.37.41.381c.017.015.026.042.028.08h.018V.23H.438a.252.252 0 01-.014.062.061.061 0 01-.028.027.147.147 0 01-.062.01H.188V.11C.188.081.19.063.192.057A.032.032 0 01.206.042.086.086 0 01.243.036h.112C.393.036.42.04.437.044a.122.122 0 01.049.03c.02.02.04.051.062.092h.02L.51 0H0v.018h.023c.016 0 .03.004.045.011a.04.04 0 01.02.024.22.22 0 01.007.064v.43C.095.589.09.615.082.625.07.638.051.644.023.644H0v.018h.51L.518.517h-.02A.223.223 0 01.477.59a.077.077 0 01-.037.03.221.221 0 01-.069.007H.188z"/></symbol><symbol id="q"><path d="M.188.626v-.26H.31c.028 0 .048.006.06.018.014.012.022.036.027.073h.018V.232H.396a.128.128 0 01-.01.057.06.06 0 01-.027.027.105.105 0 01-.05.01H.19V.116A.22.22 0 01.194.051.044.044 0 01.215.03.093.093 0 01.26.018h.024V0H0v.018h.023c.028 0 .048.008.06.024.008.01.012.035.012.075v.428A.22.22 0 01.088.61a.044.044 0 01-.02.021.09.09 0 01-.045.012H0v.018h.493L.499.517H.482a.194.194 0 01-.03.067.094.094 0 01-.041.032.22.22 0 01-.077.01H.188z"/></symbol><symbol id="r"><path d="M.553.183L.57.18.513 0H0v.018h.025c.028 0 .048.01.06.027.007.01.01.035.01.073v.427c0 .041-.004.067-.013.078C.069.637.05.644.025.644H0v.018h.3V.644a.185.185 0 01-.074-.01.06.06 0 01-.03-.026A.213.213 0 01.19.534V.118C.189.09.192.072.197.062A.035.035 0 01.215.047.317.317 0 01.29.042h.048a.35.35 0 01.107.011c.02.008.04.02.056.04a.33.33 0 01.051.09z"/></symbol><symbol id="s"><path d="M.405.688V.668A.32.32 0 01.3.644.295.295 0 01.22.585.38.38 0 01.152.497.53.53 0 01.11.38.248.248 0 00.25.43.154.154 0 00.369.375a.2.2 0 00.05-.14.25.25 0 00-.05-.152A.189.189 0 00.207 0a.161.161 0 00-.115.045A.297.297 0 000 .27a.438.438 0 00.264.395c.04.014.078.021.113.021h.028M.102.346a.843.843 0 01-.01-.107C.093.208.099.174.11.137A.201.201 0 01.162.05a.086.086 0 01.06-.023c.028 0 .054.014.076.04a.173.173 0 01.034.115.298.298 0 01-.034.144C.276.366.245.387.204.387A.118.118 0 01.164.38.395.395 0 01.102.346z"/></symbol><symbol id="t"><path d="M.131.345A.463.463 0 00.03.45a.16.16 0 00-.023.08c0 .044.017.08.05.112A.185.185 0 00.19.687.187.187 0 00.32.644a.13.13 0 00.048-.1A.134.134 0 00.341.47.383.383 0 00.23.38.623.623 0 00.345.273.173.173 0 00.382.169a.158.158 0 00-.053-.12A.197.197 0 00.189 0a.187.187 0 00-.147.06A.153.153 0 000 .162C0 .192.01.22.03.25.05.278.082.31.13.345m.077.052A.35.35 0 01.282.48a.15.15 0 01.016.07c0 .034-.01.06-.029.08A.105.105 0 01.19.66.115.115 0 01.11.63.089.089 0 01.077.563c0-.017.004-.034.013-.05a.187.187 0 01.037-.05l.08-.066M.154.327a.228.228 0 01-.06-.075.196.196 0 01-.02-.087C.075.123.087.089.11.064A.114.114 0 01.197.026c.035 0 .063.01.084.03.021.02.032.044.032.072a.111.111 0 01-.019.063.699.699 0 01-.14.136z"/></symbol><symbol id="u"><path d="M0 .597l.161.079h.016v-.56C.177.08.18.057.182.048a.037.037 0 01.02-.02A.164.164 0 01.26.017V0H.01v.018c.032 0 .052.003.061.008.01.005.016.011.02.019a.262.262 0 01.005.072v.357c0 .048-.002.08-.005.093A.038.038 0 01.079.59a.032.032 0 01-.021.007.13.13 0 01-.05-.015L0 .597z"/></symbol><symbol id="v"><path d="M.437.127L.391 0H0v.018c.115.105.196.19.243.257.047.066.07.127.07.182a.144.144 0 01-.039.104.123.123 0 01-.092.04.144.144 0 01-.088-.029A.165.165 0 01.037.49H.02c.008.06.029.106.063.138a.176.176 0 00.126.049.186.186 0 00.134-.052.163.163 0 00.054-.122.236.236 0 00-.023-.1.663.663 0 00-.117-.168 3.477 3.477 0 00-.152-.16h.173c.035 0 .06.001.074.004a.099.099 0 01.038.015c.012.008.021.02.03.034h.018z"/></symbol><symbol id="w"><path d="M.01.548A.268.268 0 00.082.65a.162.162 0 00.107.036.149.149 0 00.123-.051.127.127 0 00.032-.083c0-.048-.03-.098-.091-.15A.197.197 0 00.345.336.177.177 0 00.376.231.22.22 0 00.322.082C.274.027.205 0 .115 0 .071 0 .04.006.024.017.008.027 0 .04 0 .052c0 .01.004.018.011.025a.04.04 0 00.028.01.084.084 0 00.025-.003.285.285 0 00.038-.018.245.245 0 01.04-.018.135.135 0 01.039-.006c.033 0 .062.013.086.04a.127.127 0 01.037.09A.176.176 0 01.26.29a.199.199 0 01-.057.035.184.184 0 01-.075.016H.111v.015a.2.2 0 01.077.028.147.147 0 01.057.055.145.145 0 01.018.07.108.108 0 01-.11.113C.103.621.06.594.026.54L.01.548z"/></symbol><symbol id="x"><path d="M.249.074A.737.737 0 00.163.012.132.132 0 00.106 0C.076 0 .05.01.03.032A.117.117 0 000 .115c0 .022.005.04.015.057a.194.194 0 00.069.062c.033.02.088.044.165.072v.017c0 .045-.007.075-.021.092C.214.432.193.44.166.44A.07.07 0 01.117.423.05.05 0 01.1.385V.357C.1.342.097.33.089.322A.039.039 0 00.058.31a.039.039 0 00-.03.013.05.05 0 00-.01.034c0 .028.013.054.042.078A.186.186 0 00.18.47.21.21 0 00.279.45.092.092 0 00.321.402.267.267 0 00.33.316V.165c0-.043 0-.07.002-.08C.334.077.336.07.34.068A.02.02 0 01.353.062c.005 0 .01.001.014.003l.04.036V.074C.37.024.334 0 .301 0a.047.047 0 00-.038.017C.254.028.249.047.249.074m0 .031v.17a.964.964 0 01-.095-.04.164.164 0 01-.055-.046.087.087 0 01-.017-.05c0-.024.007-.044.021-.06A.064.064 0 01.151.058C.176.057.21.073.25.105z"/></symbol><symbol id="y"><path d="M.155.694V.101c0-.028.002-.046.006-.056a.046.046 0 01.02-.02.112.112 0 01.047-.007V0h-.22v.018c.02 0 .035.002.042.006a.042.042 0 01.018.02c.004.01.006.03.006.057v.406c0 .05 0 .082-.003.093C.069.612.065.62.06.624A.028.028 0 01.04.63.091.091 0 01.009.623L0 .64l.133.054h.022z"/></symbol><symbol id="z"><path d="M.156.46v-.1c.037.067.076.1.115.1A.062.062 0 00.315.444.05.05 0 00.333.406.045.045 0 00.32.374.04.04 0 00.29.361C.279.36.266.366.251.377.237.39.227.395.221.395.213.395.207.39.2.385A.235.235 0 01.156.319V.104C.156.08.159.061.165.048A.05.05 0 01.187.026.099.099 0 01.234.018V0h-.23v.018c.024 0 .04.003.052.01a.042.042 0 01.017.025.251.251 0 01.002.048v.173a.663.663 0 01-.003.093.035.035 0 01-.012.022.032.032 0 01-.02.007.097.097 0 01-.035-.008L0 .406.135.46h.02z"/></symbol><symbol id="A"><path d="M.445.338A.212.212 0 00.548.29a.146.146 0 00.048-.11.165.165 0 00-.032-.095A.18.18 0 00.48.021.5.5 0 00.313 0H0v.018h.025c.028 0 .047.009.06.026.007.012.01.036.01.073v.428c0 .04-.004.067-.013.078C.069.637.05.644.025.644H0v.018h.286A.565.565 0 00.415.65.205.205 0 00.526.588.152.152 0 00.535.396a.178.178 0 00-.09-.058M.19.364A.409.409 0 01.282.357c.047 0 .083.005.107.016.024.01.042.026.055.047a.132.132 0 01.019.07.127.127 0 01-.047.098C.384.616.338.63.277.63A.332.332 0 01.19.62V.364m0-.316A.492.492 0 01.301.035c.06 0 .104.013.135.04C.467.1.482.133.482.172c0 .026-.007.05-.02.074a.14.14 0 01-.069.056.295.295 0 01-.117.02A1.165 1.165 0 01.189.32V.048z"/></symbol><use xlink:href="#d" transform="matrix(10 0 0 -10 335.463 83.058)"/><use xlink:href="#d" transform="matrix(10 0 0 -10 337.963 83.058)"/><use xlink:href="#d" transform="matrix(10 0 0 -10 340.463 83.058)"/><use xlink:href="#d" transform="matrix(10 0 0 -10 342.963 83.058)"/><use xlink:href="#d" transform="matrix(10 0 0 -10 345.463 83.058)"/><use xlink:href="#d" transform="matrix(10 0 0 -10 347.963 83.058)"/><use xlink:href="#d" transform="matrix(10 0 0 -10 350.463 83.058)"/><use xlink:href="#d" transform="matrix(10 0 0 -10 352.963 83.058)"/><use xlink:href="#d" transform="matrix(10 0 0 -10 355.463 83.058)"/><use xlink:href="#d" transform="matrix(10 0 0 -10 357.963 83.058)"/><use xlink:href="#d" transform="matrix(10 0 0 -10 360.463 83.058)"/><use xlink:href="#d" transform="matrix(10 0 0 -10 362.963 83.058)"/><use xlink:href="#d" transform="matrix(10 0 0 -10 365.463 83.058)"/><use xlink:href="#d" transform="matrix(10 0 0 -10 367.963 83.058)"/><use xlink:href="#d" transform="matrix(10 0 0 -10 370.463 83.058)"/><use xlink:href="#d" transform="matrix(10 0 0 -10 372.963 83.058)"/><use xlink:href="#d" transform="matrix(10 0 0 -10 375.463 83.058)"/><use xlink:href="#d" transform="matrix(10 0 0 -10 377.963 83.058)"/><use xlink:href="#d" transform="matrix(10 0 0 -10 380.463 83.058)"/><use xlink:href="#d" transform="matrix(10 0 0 -10 382.963 83.058)"/><use xlink:href="#d" transform="matrix(10 0 0 -10 385.463 83.058)"/><use xlink:href="#m" transform="matrix(10 0 0 -10 386.74 83.058)"/><use xlink:href="#n" transform="matrix(10 0 0 -10 392.485 83.21)"/><use xlink:href="#o" transform="matrix(10 0 0 -10 399.978 83.21)"/><use xlink:href="#d" transform="matrix(10 0 0 -10 404.913 83.058)"/><use xlink:href="#d" transform="matrix(10 0 0 -10 407.413 83.058)"/><use xlink:href="#d" transform="matrix(10 0 0 -10 409.913 83.058)"/><use xlink:href="#d" transform="matrix(10 0 0 -10 412.773 83.058)"/><use xlink:href="#d" transform="matrix(10 0 0 -10 415.273 83.058)"/><use xlink:href="#d" transform="matrix(10 0 0 -10 417.773 83.058)"/><use xlink:href="#d" transform="matrix(10 0 0 -10 420.273 83.058)"/><use xlink:href="#d" transform="matrix(10 0 0 -10 422.773 83.058)"/><use xlink:href="#d" transform="matrix(10 0 0 -10 425.273 83.058)"/><use xlink:href="#a" transform="matrix(10 0 0 -10 412.374 83.058)"/><use xlink:href="#p" transform="matrix(10 0 0 -10 419.068 83.058)"/><use xlink:href="#q" transform="matrix(10 0 0 -10 425.125 83.058)"/><use xlink:href="#d" transform="matrix(10 0 0 -10 430.523 83.058)"/><use xlink:href="#d" transform="matrix(10 0 0 -10 433.023 83.058)"/><use xlink:href="#d" transform="matrix(10 0 0 -10 435.523 83.058)"/><use xlink:href="#d" transform="matrix(10 0 0 -10 438.023 83.058)"/><use xlink:href="#d" transform="matrix(10 0 0 -10 440.523 83.058)"/><use xlink:href="#d" transform="matrix(10 0 0 -10 443.023 83.058)"/><use xlink:href="#d" transform="matrix(10 0 0 -10 446.593 83.058)"/><use xlink:href="#d" transform="matrix(10 0 0 -10 449.093 83.058)"/><use xlink:href="#d" transform="matrix(10 0 0 -10 451.593 83.058)"/><use xlink:href="#f" transform="matrix(10 0 0 -10 446.342 83.058)"/><use xlink:href="#r" transform="matrix(10 0 0 -10 453.684 83.058)"/><use xlink:href="#h" transform="matrix(10 0 0 -10 458.976 83.058)"/><use xlink:href="#d" transform="matrix(10 0 0 -10 335.463 93.058)"/><use xlink:href="#d" transform="matrix(10 0 0 -10 337.963 93.058)"/><use xlink:href="#d" transform="matrix(10 0 0 -10 340.463 93.058)"/><use xlink:href="#d" transform="matrix(10 0 0 -10 342.963 93.058)"/><use xlink:href="#d" transform="matrix(10 0 0 -10 345.463 93.058)"/><use xlink:href="#d" transform="matrix(10 0 0 -10 347.963 93.058)"/><use xlink:href="#d" transform="matrix(10 0 0 -10 350.463 93.058)"/><use xlink:href="#d" transform="matrix(10 0 0 -10 352.963 93.058)"/><use xlink:href="#d" transform="matrix(10 0 0 -10 355.463 93.058)"/><use xlink:href="#d" transform="matrix(10 0 0 -10 357.963 93.058)"/><use xlink:href="#d" transform="matrix(10 0 0 -10 360.463 93.058)"/><use xlink:href="#d" transform="matrix(10 0 0 -10 362.963 93.058)"/><use xlink:href="#d" transform="matrix(10 0 0 -10 365.463 93.058)"/><use xlink:href="#d" transform="matrix(10 0 0 -10 367.963 93.058)"/><use xlink:href="#d" transform="matrix(10 0 0 -10 370.463 93.058)"/><use xlink:href="#d" transform="matrix(10 0 0 -10 372.963 93.058)"/><use xlink:href="#d" transform="matrix(10 0 0 -10 375.463 93.058)"/><use xlink:href="#d" transform="matrix(10 0 0 -10 377.963 93.058)"/><use xlink:href="#d" transform="matrix(10 0 0 -10 380.463 93.058)"/><use xlink:href="#d" transform="matrix(10 0 0 -10 382.963 93.058)"/><use xlink:href="#d" transform="matrix(10 0 0 -10 385.463 93.058)"/><use xlink:href="#d" transform="matrix(10 0 0 -10 387.613 93.058)"/><use xlink:href="#d" transform="matrix(10 0 0 -10 390.113 93.058)"/><use xlink:href="#s" transform="matrix(10 0 0 -10 387.523 93.175)"/><use xlink:href="#d" transform="matrix(10 0 0 -10 392.093 93.058)"/><use xlink:href="#d" transform="matrix(10 0 0 -10 394.593 93.058)"/><use xlink:href="#d" transform="matrix(10 0 0 -10 397.093 93.058)"/><use xlink:href="#d" transform="matrix(10 0 0 -10 399.593 93.058)"/><use xlink:href="#d" transform="matrix(10 0 0 -10 402.093 93.058)"/><use xlink:href="#d" transform="matrix(10 0 0 -10 404.593 93.058)"/><use xlink:href="#d" transform="matrix(10 0 0 -10 407.093 93.058)"/><use xlink:href="#d" transform="matrix(10 0 0 -10 409.593 93.058)"/><use xlink:href="#d" transform="matrix(10 0 0 -10 412.093 93.058)"/><use xlink:href="#d" transform="matrix(10 0 0 -10 414.593 93.058)"/><use xlink:href="#d" transform="matrix(10 0 0 -10 417.093 93.058)"/><use xlink:href="#d" transform="matrix(10 0 0 -10 419.593 93.058)"/><use xlink:href="#d" transform="matrix(10 0 0 -10 422.093 93.058)"/><use xlink:href="#d" transform="matrix(10 0 0 -10 424.593 93.058)"/><use xlink:href="#g" transform="matrix(10 0 0 -10 412.825 93.21)"/><use xlink:href="#e" transform="matrix(10 0 0 -10 420.055 93.21)"/><use xlink:href="#e" transform="matrix(10 0 0 -10 426.715 93.21)"/><use xlink:href="#d" transform="matrix(10 0 0 -10 433.043 93.058)"/><use xlink:href="#d" transform="matrix(10 0 0 -10 435.543 93.058)"/><use xlink:href="#d" transform="matrix(10 0 0 -10 438.043 93.058)"/><use xlink:href="#d" transform="matrix(10 0 0 -10 440.543 93.058)"/><use xlink:href="#d" transform="matrix(10 0 0 -10 443.043 93.058)"/><use xlink:href="#d" transform="matrix(10 0 0 -10 446.233 93.058)"/><use xlink:href="#d" transform="matrix(10 0 0 -10 448.733 93.058)"/><use xlink:href="#d" transform="matrix(10 0 0 -10 451.233 93.058)"/><use xlink:href="#d" transform="matrix(10 0 0 -10 453.733 93.058)"/><use xlink:href="#d" transform="matrix(10 0 0 -10 456.233 93.058)"/><use xlink:href="#g" transform="matrix(10 0 0 -10 446.965 93.21)"/><use xlink:href="#d" transform="matrix(10 0 0 -10 335.463 103.058)"/><use xlink:href="#d" transform="matrix(10 0 0 -10 337.963 103.058)"/><use xlink:href="#d" transform="matrix(10 0 0 -10 340.463 103.058)"/><use xlink:href="#d" transform="matrix(10 0 0 -10 342.963 103.058)"/><use xlink:href="#d" transform="matrix(10 0 0 -10 345.463 103.058)"/><use xlink:href="#d" transform="matrix(10 0 0 -10 347.963 103.058)"/><use xlink:href="#d" transform="matrix(10 0 0 -10 350.463 103.058)"/><use xlink:href="#d" transform="matrix(10 0 0 -10 352.963 103.058)"/><use xlink:href="#d" transform="matrix(10 0 0 -10 355.463 103.058)"/><use xlink:href="#d" transform="matrix(10 0 0 -10 357.963 103.058)"/><use xlink:href="#d" transform="matrix(10 0 0 -10 360.463 103.058)"/><use xlink:href="#d" transform="matrix(10 0 0 -10 362.963 103.058)"/><use xlink:href="#d" transform="matrix(10 0 0 -10 365.463 103.058)"/><use xlink:href="#d" transform="matrix(10 0 0 -10 367.963 103.058)"/><use xlink:href="#d" transform="matrix(10 0 0 -10 370.463 103.058)"/><use xlink:href="#d" transform="matrix(10 0 0 -10 372.963 103.058)"/><use xlink:href="#d" transform="matrix(10 0 0 -10 375.463 103.058)"/><use xlink:href="#d" transform="matrix(10 0 0 -10 377.963 103.058)"/><use xlink:href="#d" transform="matrix(10 0 0 -10 380.463 103.058)"/><use xlink:href="#d" transform="matrix(10 0 0 -10 382.963 103.058)"/><use xlink:href="#t" transform="matrix(10 0 0 -10 387.449 103.175)"/><use xlink:href="#d" transform="matrix(10 0 0 -10 391.843 103.058)"/><use xlink:href="#d" transform="matrix(10 0 0 -10 394.343 103.058)"/><use xlink:href="#d" transform="matrix(10 0 0 -10 396.843 103.058)"/><use xlink:href="#d" transform="matrix(10 0 0 -10 399.343 103.058)"/><use xlink:href="#d" transform="matrix(10 0 0 -10 401.843 103.058)"/><use xlink:href="#d" transform="matrix(10 0 0 -10 404.343 103.058)"/><use xlink:href="#d" transform="matrix(10 0 0 -10 406.843 103.058)"/><use xlink:href="#d" transform="matrix(10 0 0 -10 409.343 103.058)"/><use xlink:href="#d" transform="matrix(10 0 0 -10 411.843 103.058)"/><use xlink:href="#d" transform="matrix(10 0 0 -10 414.343 103.058)"/><use xlink:href="#d" transform="matrix(10 0 0 -10 416.843 103.058)"/><use xlink:href="#d" transform="matrix(10 0 0 -10 419.343 103.058)"/><use xlink:href="#d" transform="matrix(10 0 0 -10 421.843 103.058)"/><use xlink:href="#d" transform="matrix(10 0 0 -10 424.343 103.058)"/><use xlink:href="#d" transform="matrix(10 0 0 -10 426.843 103.058)"/><use xlink:href="#e" transform="matrix(10 0 0 -10 413.115 103.21)"/><use xlink:href="#d" transform="matrix(10 0 0 -10 419.413 103.058)"/><use xlink:href="#d" transform="matrix(10 0 0 -10 421.913 103.058)"/><use xlink:href="#d" transform="matrix(10 0 0 -10 424.413 103.058)"/><use xlink:href="#d" transform="matrix(10 0 0 -10 426.913 103.058)"/><use xlink:href="#d" transform="matrix(10 0 0 -10 429.413 103.058)"/><use xlink:href="#d" transform="matrix(10 0 0 -10 431.913 103.058)"/><use xlink:href="#d" transform="matrix(10 0 0 -10 434.413 103.058)"/><use xlink:href="#d" transform="matrix(10 0 0 -10 436.913 103.058)"/><use xlink:href="#d" transform="matrix(10 0 0 -10 439.413 103.058)"/><use xlink:href="#d" transform="matrix(10 0 0 -10 441.913 103.058)"/><use xlink:href="#d" transform="matrix(10 0 0 -10 444.413 103.058)"/><use xlink:href="#d" transform="matrix(10 0 0 -10 446.913 103.058)"/><use xlink:href="#d" transform="matrix(10 0 0 -10 449.413 103.058)"/><use xlink:href="#e" transform="matrix(10 0 0 -10 446.865 103.21)"/><use xlink:href="#g" transform="matrix(10 0 0 -10 453.515 103.21)"/><use xlink:href="#h" transform="matrix(10 0 0 -10 460.686 103.058)"/><use xlink:href="#h" transform="matrix(10 0 0 -10 466.786 103.058)"/><use xlink:href="#g" transform="matrix(10 0 0 -10 472.935 103.21)"/><use xlink:href="#h" transform="matrix(10 0 0 -10 480.136 103.058)"/><use xlink:href="#f" transform="matrix(10 0 0 -10 485.212 103.058)"/><use xlink:href="#g" transform="matrix(10 0 0 -10 492.705 103.21)"/><use xlink:href="#d" transform="matrix(10 0 0 -10 335.463 113.058)"/><use xlink:href="#d" transform="matrix(10 0 0 -10 337.963 113.058)"/><use xlink:href="#d" transform="matrix(10 0 0 -10 340.463 113.058)"/><use xlink:href="#d" transform="matrix(10 0 0 -10 342.963 113.058)"/><use xlink:href="#d" transform="matrix(10 0 0 -10 345.463 113.058)"/><use xlink:href="#d" transform="matrix(10 0 0 -10 347.963 113.058)"/><use xlink:href="#d" transform="matrix(10 0 0 -10 350.463 113.058)"/><use xlink:href="#d" transform="matrix(10 0 0 -10 352.963 113.058)"/><use xlink:href="#d" transform="matrix(10 0 0 -10 355.463 113.058)"/><use xlink:href="#d" transform="matrix(10 0 0 -10 357.963 113.058)"/><use xlink:href="#d" transform="matrix(10 0 0 -10 360.463 113.058)"/><use xlink:href="#d" transform="matrix(10 0 0 -10 362.963 113.058)"/><use xlink:href="#d" transform="matrix(10 0 0 -10 365.463 113.058)"/><use xlink:href="#d" transform="matrix(10 0 0 -10 367.963 113.058)"/><use xlink:href="#d" transform="matrix(10 0 0 -10 370.463 113.058)"/><use xlink:href="#d" transform="matrix(10 0 0 -10 372.963 113.058)"/><use xlink:href="#d" transform="matrix(10 0 0 -10 375.463 113.058)"/><use xlink:href="#d" transform="matrix(10 0 0 -10 377.963 113.058)"/><use xlink:href="#d" transform="matrix(10 0 0 -10 380.463 113.058)"/><use xlink:href="#d" transform="matrix(10 0 0 -10 382.963 113.058)"/><use xlink:href="#d" transform="matrix(10 0 0 -10 385.463 113.058)"/><use xlink:href="#u" transform="matrix(10 0 0 -10 387.295 113.058)"/><use xlink:href="#v" transform="matrix(10 0 0 -10 391.338 113.058)"/><use xlink:href="#d" transform="matrix(10 0 0 -10 396.123 113.058)"/><use xlink:href="#d" transform="matrix(10 0 0 -10 398.623 113.058)"/><use xlink:href="#d" transform="matrix(10 0 0 -10 401.123 113.058)"/><use xlink:href="#d" transform="matrix(10 0 0 -10 403.623 113.058)"/><use xlink:href="#d" transform="matrix(10 0 0 -10 406.123 113.058)"/><use xlink:href="#d" transform="matrix(10 0 0 -10 408.623 113.058)"/><use xlink:href="#d" transform="matrix(10 0 0 -10 411.123 113.058)"/><use xlink:href="#d" transform="matrix(10 0 0 -10 413.623 113.058)"/><use xlink:href="#d" transform="matrix(10 0 0 -10 416.123 113.058)"/><use xlink:href="#d" transform="matrix(10 0 0 -10 418.623 113.058)"/><use xlink:href="#d" transform="matrix(10 0 0 -10 421.123 113.058)"/><use xlink:href="#d" transform="matrix(10 0 0 -10 423.623 113.058)"/><use xlink:href="#d" transform="matrix(10 0 0 -10 426.123 113.058)"/><use xlink:href="#h" transform="matrix(10 0 0 -10 413.256 113.058)"/><use xlink:href="#d" transform="matrix(10 0 0 -10 418.883 113.058)"/><use xlink:href="#d" transform="matrix(10 0 0 -10 421.383 113.058)"/><use xlink:href="#d" transform="matrix(10 0 0 -10 423.883 113.058)"/><use xlink:href="#d" transform="matrix(10 0 0 -10 426.383 113.058)"/><use xlink:href="#d" transform="matrix(10 0 0 -10 428.883 113.058)"/><use xlink:href="#d" transform="matrix(10 0 0 -10 431.383 113.058)"/><use xlink:href="#d" transform="matrix(10 0 0 -10 433.883 113.058)"/><use xlink:href="#d" transform="matrix(10 0 0 -10 436.383 113.058)"/><use xlink:href="#d" transform="matrix(10 0 0 -10 438.883 113.058)"/><use xlink:href="#d" transform="matrix(10 0 0 -10 441.383 113.058)"/><use xlink:href="#d" transform="matrix(10 0 0 -10 443.883 113.058)"/><use xlink:href="#d" transform="matrix(10 0 0 -10 446.383 113.058)"/><use xlink:href="#d" transform="matrix(10 0 0 -10 448.883 113.058)"/><use xlink:href="#d" transform="matrix(10 0 0 -10 451.383 113.058)"/><use xlink:href="#h" transform="matrix(10 0 0 -10 446.936 113.058)"/><use xlink:href="#f" transform="matrix(10 0 0 -10 452.012 113.058)"/><use xlink:href="#f" transform="matrix(10 0 0 -10 459.232 113.058)"/><use xlink:href="#f" transform="matrix(10 0 0 -10 466.452 113.058)"/><use xlink:href="#g" transform="matrix(10 0 0 -10 473.945 113.21)"/><use xlink:href="#d" transform="matrix(10 0 0 -10 335.463 123.058)"/><use xlink:href="#d" transform="matrix(10 0 0 -10 337.963 123.058)"/><use xlink:href="#d" transform="matrix(10 0 0 -10 340.463 123.058)"/><use xlink:href="#d" transform="matrix(10 0 0 -10 342.963 123.058)"/><use xlink:href="#d" transform="matrix(10 0 0 -10 345.463 123.058)"/><use xlink:href="#d" transform="matrix(10 0 0 -10 347.963 123.058)"/><use xlink:href="#d" transform="matrix(10 0 0 -10 350.463 123.058)"/><use xlink:href="#d" transform="matrix(10 0 0 -10 352.963 123.058)"/><use xlink:href="#d" transform="matrix(10 0 0 -10 355.463 123.058)"/><use xlink:href="#d" transform="matrix(10 0 0 -10 357.963 123.058)"/><use xlink:href="#d" transform="matrix(10 0 0 -10 360.463 123.058)"/><use xlink:href="#d" transform="matrix(10 0 0 -10 362.963 123.058)"/><use xlink:href="#d" transform="matrix(10 0 0 -10 365.463 123.058)"/><use xlink:href="#d" transform="matrix(10 0 0 -10 367.963 123.058)"/><use xlink:href="#d" transform="matrix(10 0 0 -10 370.463 123.058)"/><use xlink:href="#d" transform="matrix(10 0 0 -10 372.963 123.058)"/><use xlink:href="#d" transform="matrix(10 0 0 -10 375.463 123.058)"/><use xlink:href="#d" transform="matrix(10 0 0 -10 377.963 123.058)"/><use xlink:href="#d" transform="matrix(10 0 0 -10 380.463 123.058)"/><use xlink:href="#d" transform="matrix(10 0 0 -10 382.963 123.058)"/><use xlink:href="#d" transform="matrix(10 0 0 -10 385.463 123.058)"/><use xlink:href="#d" transform="matrix(10 0 0 -10 386.583 123.058)"/><use xlink:href="#d" transform="matrix(10 0 0 -10 389.083 123.058)"/><use xlink:href="#d" transform="matrix(10 0 0 -10 391.583 123.058)"/><use xlink:href="#u" transform="matrix(10 0 0 -10 387.425 123.058)"/><use xlink:href="#w" transform="matrix(10 0 0 -10 391.659 123.175)"/><use xlink:href="#d" transform="matrix(10 0 0 -10 396.253 123.058)"/><use xlink:href="#d" transform="matrix(10 0 0 -10 398.753 123.058)"/><use xlink:href="#d" transform="matrix(10 0 0 -10 401.253 123.058)"/><use xlink:href="#h" transform="matrix(10 0 0 -10 413.246 123.058)"/><use xlink:href="#d" transform="matrix(10 0 0 -10 418.873 123.058)"/><use xlink:href="#d" transform="matrix(10 0 0 -10 421.373 123.058)"/><use xlink:href="#d" transform="matrix(10 0 0 -10 423.873 123.058)"/><use xlink:href="#d" transform="matrix(10 0 0 -10 426.373 123.058)"/><use xlink:href="#d" transform="matrix(10 0 0 -10 428.873 123.058)"/><use xlink:href="#d" transform="matrix(10 0 0 -10 431.373 123.058)"/><use xlink:href="#d" transform="matrix(10 0 0 -10 433.873 123.058)"/><use xlink:href="#d" transform="matrix(10 0 0 -10 436.373 123.058)"/><use xlink:href="#d" transform="matrix(10 0 0 -10 438.873 123.058)"/><use xlink:href="#d" transform="matrix(10 0 0 -10 441.373 123.058)"/><use xlink:href="#d" transform="matrix(10 0 0 -10 443.873 123.058)"/><use xlink:href="#d" transform="matrix(10 0 0 -10 446.373 123.058)"/><use xlink:href="#d" transform="matrix(10 0 0 -10 448.873 123.058)"/><use xlink:href="#h" transform="matrix(10 0 0 -10 447.016 123.058)"/><use xlink:href="#h" transform="matrix(10 0 0 -10 453.116 123.058)"/><use xlink:href="#g" transform="matrix(10 0 0 -10 459.265 123.21)"/><use xlink:href="#g" transform="matrix(10 0 0 -10 466.485 123.21)"/><use xlink:href="#e" transform="matrix(10 0 0 -10 473.715 123.21)"/><use xlink:href="#f" transform="matrix(10 0 0 -10 480.092 123.058)"/><use xlink:href="#g" transform="matrix(10 0 0 -10 487.615 123.21)"/><use xlink:href="#g" transform="matrix(10 0 0 -10 494.835 123.21)"/><use xlink:href="#h" transform="matrix(10 0 0 -10 502.006 123.058)"/><use xlink:href="#e" transform="matrix(10 0 0 -10 508.165 123.21)"/><use xlink:href="#f" transform="matrix(10 0 0 -10 514.542 123.058)"/><use xlink:href="#d" transform="matrix(10 0 0 -10 335.463 143.058)"/><use xlink:href="#d" transform="matrix(10 0 0 -10 337.963 143.058)"/><use xlink:href="#d" transform="matrix(10 0 0 -10 340.463 143.058)"/><use xlink:href="#d" transform="matrix(10 0 0 -10 342.963 143.058)"/><use xlink:href="#d" transform="matrix(10 0 0 -10 345.463 143.058)"/><use xlink:href="#d" transform="matrix(10 0 0 -10 347.963 143.058)"/><use xlink:href="#d" transform="matrix(10 0 0 -10 350.463 143.058)"/><use xlink:href="#d" transform="matrix(10 0 0 -10 352.963 143.058)"/><use xlink:href="#d" transform="matrix(10 0 0 -10 355.463 143.058)"/><use xlink:href="#d" transform="matrix(10 0 0 -10 357.963 143.058)"/><use xlink:href="#d" transform="matrix(10 0 0 -10 360.463 143.058)"/><use xlink:href="#d" transform="matrix(10 0 0 -10 362.963 143.058)"/><use xlink:href="#d" transform="matrix(10 0 0 -10 365.463 143.058)"/><use xlink:href="#d" transform="matrix(10 0 0 -10 367.963 143.058)"/><use xlink:href="#d" transform="matrix(10 0 0 -10 370.463 143.058)"/><use xlink:href="#d" transform="matrix(10 0 0 -10 372.963 143.058)"/><use xlink:href="#d" transform="matrix(10 0 0 -10 375.463 143.058)"/><use xlink:href="#d" transform="matrix(10 0 0 -10 377.963 143.058)"/><use xlink:href="#d" transform="matrix(10 0 0 -10 380.463 143.058)"/><use xlink:href="#d" transform="matrix(10 0 0 -10 382.963 143.058)"/><use xlink:href="#d" transform="matrix(10 0 0 -10 385.463 143.058)"/><use xlink:href="#s" transform="matrix(10 0 0 -10 387.343 143.175)"/><use xlink:href="#d" transform="matrix(10 0 0 -10 391.913 143.058)"/><use xlink:href="#d" transform="matrix(10 0 0 -10 394.413 143.058)"/><use xlink:href="#d" transform="matrix(10 0 0 -10 396.913 143.058)"/><use xlink:href="#d" transform="matrix(10 0 0 -10 399.413 143.058)"/><use xlink:href="#d" transform="matrix(10 0 0 -10 401.913 143.058)"/><use xlink:href="#d" transform="matrix(10 0 0 -10 404.413 143.058)"/><use xlink:href="#d" transform="matrix(10 0 0 -10 406.913 143.058)"/><use xlink:href="#d" transform="matrix(10 0 0 -10 409.413 143.058)"/><use xlink:href="#g" transform="matrix(10 0 0 -10 412.705 143.21)"/><use xlink:href="#d" transform="matrix(10 0 0 -10 419.574 143.058)"/><use xlink:href="#d" transform="matrix(10 0 0 -10 422.074 143.058)"/><use xlink:href="#d" transform="matrix(10 0 0 -10 424.574 143.058)"/><use xlink:href="#d" transform="matrix(10 0 0 -10 427.074 143.058)"/><use xlink:href="#d" transform="matrix(10 0 0 -10 429.574 143.058)"/><use xlink:href="#d" transform="matrix(10 0 0 -10 432.074 143.058)"/><use xlink:href="#d" transform="matrix(10 0 0 -10 434.574 143.058)"/><use xlink:href="#d" transform="matrix(10 0 0 -10 437.074 143.058)"/><use xlink:href="#d" transform="matrix(10 0 0 -10 439.574 143.058)"/><use xlink:href="#g" transform="matrix(10 0 0 -10 447.215 143.21)"/><use xlink:href="#g" transform="matrix(10 0 0 -10 454.435 143.21)"/><use xlink:href="#h" transform="matrix(10 0 0 -10 461.606 143.058)"/><use xlink:href="#h" transform="matrix(10 0 0 -10 467.706 143.058)"/><use xlink:href="#g" transform="matrix(10 0 0 -10 473.855 143.21)"/><use xlink:href="#h" transform="matrix(10 0 0 -10 481.026 143.058)"/><use xlink:href="#d" transform="matrix(10 0 0 -10 335.463 153.058)"/><use xlink:href="#d" transform="matrix(10 0 0 -10 337.963 153.058)"/><use xlink:href="#d" transform="matrix(10 0 0 -10 340.463 153.058)"/><use xlink:href="#d" transform="matrix(10 0 0 -10 342.963 153.058)"/><use xlink:href="#d" transform="matrix(10 0 0 -10 345.463 153.058)"/><use xlink:href="#d" transform="matrix(10 0 0 -10 347.963 153.058)"/><use xlink:href="#d" transform="matrix(10 0 0 -10 350.463 153.058)"/><use xlink:href="#d" transform="matrix(10 0 0 -10 352.963 153.058)"/><use xlink:href="#d" transform="matrix(10 0 0 -10 355.463 153.058)"/><use xlink:href="#d" transform="matrix(10 0 0 -10 357.963 153.058)"/><use xlink:href="#d" transform="matrix(10 0 0 -10 360.463 153.058)"/><use xlink:href="#d" transform="matrix(10 0 0 -10 362.963 153.058)"/><use xlink:href="#d" transform="matrix(10 0 0 -10 365.463 153.058)"/><use xlink:href="#d" transform="matrix(10 0 0 -10 367.963 153.058)"/><use xlink:href="#d" transform="matrix(10 0 0 -10 370.463 153.058)"/><use xlink:href="#d" transform="matrix(10 0 0 -10 372.963 153.058)"/><use xlink:href="#d" transform="matrix(10 0 0 -10 375.463 153.058)"/><use xlink:href="#d" transform="matrix(10 0 0 -10 377.963 153.058)"/><use xlink:href="#d" transform="matrix(10 0 0 -10 380.463 153.058)"/><use xlink:href="#d" transform="matrix(10 0 0 -10 382.963 153.058)"/><use xlink:href="#d" transform="matrix(10 0 0 -10 385.463 153.058)"/><use xlink:href="#u" transform="matrix(10 0 0 -10 387.515 153.058)"/><use xlink:href="#v" transform="matrix(10 0 0 -10 391.558 153.058)"/><use xlink:href="#d" transform="matrix(10 0 0 -10 396.343 153.058)"/><use xlink:href="#d" transform="matrix(10 0 0 -10 398.843 153.058)"/><use xlink:href="#d" transform="matrix(10 0 0 -10 401.343 153.058)"/><use xlink:href="#d" transform="matrix(10 0 0 -10 403.843 153.058)"/><use xlink:href="#d" transform="matrix(10 0 0 -10 406.343 153.058)"/><use xlink:href="#d" transform="matrix(10 0 0 -10 408.843 153.058)"/><use xlink:href="#h" transform="matrix(10 0 0 -10 413.266 153.058)"/><use xlink:href="#d" transform="matrix(10 0 0 -10 418.893 153.058)"/><use xlink:href="#d" transform="matrix(10 0 0 -10 421.393 153.058)"/><use xlink:href="#d" transform="matrix(10 0 0 -10 423.893 153.058)"/><use xlink:href="#d" transform="matrix(10 0 0 -10 426.393 153.058)"/><use xlink:href="#d" transform="matrix(10 0 0 -10 428.893 153.058)"/><use xlink:href="#d" transform="matrix(10 0 0 -10 431.393 153.058)"/><use xlink:href="#d" transform="matrix(10 0 0 -10 433.893 153.058)"/><use xlink:href="#d" transform="matrix(10 0 0 -10 436.393 153.058)"/><use xlink:href="#d" transform="matrix(10 0 0 -10 438.893 153.058)"/><use xlink:href="#d" transform="matrix(10 0 0 -10 441.393 153.058)"/><use xlink:href="#d" transform="matrix(10 0 0 -10 443.893 153.058)"/><use xlink:href="#d" transform="matrix(10 0 0 -10 446.393 153.058)"/><use xlink:href="#d" transform="matrix(10 0 0 -10 447.503 153.058)"/><use xlink:href="#d" transform="matrix(10 0 0 -10 450.003 153.058)"/><use xlink:href="#d" transform="matrix(10 0 0 -10 452.503 153.058)"/><use xlink:href="#h" transform="matrix(10 0 0 -10 446.986 153.058)"/><use xlink:href="#f" transform="matrix(10 0 0 -10 452.062 153.058)"/><use xlink:href="#f" transform="matrix(10 0 0 -10 459.282 153.058)"/><use xlink:href="#g" transform="matrix(10 0 0 -10 466.775 153.21)"/><use xlink:href="#h" transform="matrix(10 0 0 -10 473.946 153.058)"/><use xlink:href="#h" transform="matrix(10 0 0 -10 480.046 153.058)"/><use xlink:href="#g" transform="matrix(10 0 0 -10 486.195 153.21)"/><use xlink:href="#g" transform="matrix(10 0 0 -10 493.445 153.21)"/><use xlink:href="#e" transform="matrix(10 0 0 -10 500.675 153.21)"/><use xlink:href="#f" transform="matrix(10 0 0 -10 507.052 153.058)"/><use xlink:href="#g" transform="matrix(10 0 0 -10 514.545 153.21)"/><use xlink:href="#g" transform="matrix(10 0 0 -10 521.765 153.21)"/><use xlink:href="#h" transform="matrix(10 0 0 -10 528.966 153.058)"/><use xlink:href="#d" transform="matrix(10 0 0 -10 534.763 153.058)"/><use xlink:href="#d" transform="matrix(10 0 0 -10 335.463 163.058)"/><use xlink:href="#d" transform="matrix(10 0 0 -10 337.963 163.058)"/><use xlink:href="#e" transform="matrix(10 0 0 -10 341.863 104.144)"/><use xlink:href="#x" transform="matrix(10 0 0 -10 348.518 104.085)"/><use xlink:href="#y" transform="matrix(10 0 0 -10 352.89 103.993)"/><use xlink:href="#y" transform="matrix(10 0 0 -10 355.66 103.993)"/><use xlink:href="#b" transform="matrix(10 0 0 -10 358.503 104.13)"/><use xlink:href="#z" transform="matrix(10 0 0 -10 362.625 103.993)"/><use xlink:href="#f" transform="matrix(10 0 0 -10 365.97 103.993)"/><use xlink:href="#e" transform="matrix(10 0 0 -10 342.123 148.81)"/><use xlink:href="#x" transform="matrix(10 0 0 -10 348.778 148.751)"/><use xlink:href="#y" transform="matrix(10 0 0 -10 353.15 148.658)"/><use xlink:href="#y" transform="matrix(10 0 0 -10 355.92 148.658)"/><use xlink:href="#b" transform="matrix(10 0 0 -10 358.763 148.795)"/><use xlink:href="#z" transform="matrix(10 0 0 -10 362.885 148.658)"/><use xlink:href="#A" transform="matrix(10 0 0 -10 366.318 148.658)"/><use xlink:href="#a" transform="matrix(10 0 0 -10 63.594 112.83)"/><use xlink:href="#b" transform="matrix(10 0 0 -10 70.454 112.968)"/><use xlink:href="#c" transform="matrix(10 0 0 -10 74.899 112.83)"/><use xlink:href="#d" transform="matrix(10 0 0 -10 77.843 112.83)"/><use xlink:href="#d" transform="matrix(10 0 0 -10 80.343 112.83)"/><use xlink:href="#f" transform="matrix(10 0 0 -10 82.391 112.83)"/><use xlink:href="#h" transform="matrix(10 0 0 -10 88.726 112.83)"/><use xlink:href="#e" transform="matrix(10 0 0 -10 94.884 112.982)"/><use xlink:href="#f" transform="matrix(10 0 0 -10 101.261 112.83)"/><use xlink:href="#f" transform="matrix(10 0 0 -10 108.481 112.83)"/><use xlink:href="#e" transform="matrix(10 0 0 -10 115.984 112.982)"/><use xlink:href="#g" transform="matrix(10 0 0 -10 122.665 112.982)"/><use xlink:href="#d" transform="matrix(10 0 0 -10 129.533 112.83)"/><use xlink:href="#d" transform="matrix(10 0 0 -10 132.033 112.83)"/><use xlink:href="#d" transform="matrix(10 0 0 -10 134.533 112.83)"/><use xlink:href="#d" transform="matrix(10 0 0 -10 137.033 112.83)"/><use xlink:href="#d" transform="matrix(10 0 0 -10 139.533 112.83)"/><use xlink:href="#d" transform="matrix(10 0 0 -10 142.033 112.83)"/><use xlink:href="#d" transform="matrix(10 0 0 -10 144.533 112.83)"/><use xlink:href="#d" transform="matrix(10 0 0 -10 147.033 112.83)"/><use xlink:href="#d" transform="matrix(10 0 0 -10 149.533 112.83)"/><use xlink:href="#d" transform="matrix(10 0 0 -10 152.033 112.83)"/><use xlink:href="#d" transform="matrix(10 0 0 -10 154.533 112.83)"/><use xlink:href="#d" transform="matrix(10 0 0 -10 157.033 112.83)"/><use xlink:href="#d" transform="matrix(10 0 0 -10 159.533 112.83)"/><use xlink:href="#d" transform="matrix(10 0 0 -10 162.033 112.83)"/><use xlink:href="#d" transform="matrix(10 0 0 -10 164.533 112.83)"/><use xlink:href="#d" transform="matrix(10 0 0 -10 167.033 112.83)"/><use xlink:href="#d" transform="matrix(10 0 0 -10 169.533 112.83)"/><use xlink:href="#d" transform="matrix(10 0 0 -10 172.033 112.83)"/><use xlink:href="#d" transform="matrix(10 0 0 -10 174.533 112.83)"/><use xlink:href="#d" transform="matrix(10 0 0 -10 177.033 112.83)"/><use xlink:href="#d" transform="matrix(10 0 0 -10 179.533 112.83)"/><use xlink:href="#d" transform="matrix(10 0 0 -10 182.033 112.83)"/><use xlink:href="#d" transform="matrix(10 0 0 -10 184.533 112.83)"/><use xlink:href="#h" transform="matrix(10 0 0 -10 190.716 112.83)"/><use xlink:href="#f" transform="matrix(10 0 0 -10 196.591 112.83)"/><use xlink:href="#g" transform="matrix(10 0 0 -10 204.085 112.982)"/><use xlink:href="#f" transform="matrix(10 0 0 -10 211.031 112.83)"/><use xlink:href="#f" transform="matrix(10 0 0 -10 218.251 112.83)"/><use xlink:href="#g" transform="matrix(10 0 0 -10 225.775 112.982)"/><use xlink:href="#h" transform="matrix(10 0 0 -10 232.946 112.83)"/><use xlink:href="#f" transform="matrix(10 0 0 -10 238.021 112.83)"/><use xlink:href="#d" transform="matrix(10 0 0 -10 63.423 122.83)"/><use xlink:href="#d" transform="matrix(10 0 0 -10 65.923 122.83)"/><use xlink:href="#d" transform="matrix(10 0 0 -10 68.423 122.83)"/><use xlink:href="#d" transform="matrix(10 0 0 -10 70.923 122.83)"/><use xlink:href="#d" transform="matrix(10 0 0 -10 73.423 122.83)"/><use xlink:href="#d" transform="matrix(10 0 0 -10 75.923 122.83)"/><use xlink:href="#d" transform="matrix(10 0 0 -10 78.423 122.83)"/><use xlink:href="#d" transform="matrix(10 0 0 -10 80.923 122.83)"/><use xlink:href="#f" transform="matrix(10 0 0 -10 82.377 122.83)" fill="#999"/><use xlink:href="#h" transform="matrix(10 0 0 -10 88.712 122.83)" fill="#999"/><use xlink:href="#e" transform="matrix(10 0 0 -10 94.87 122.982)" fill="#999"/><use xlink:href="#f" transform="matrix(10 0 0 -10 101.247 122.83)" fill="#999"/><use xlink:href="#f" transform="matrix(10 0 0 -10 108.467 122.83)" fill="#999"/><use xlink:href="#e" transform="matrix(10 0 0 -10 116 122.982)" fill="#999"/><use xlink:href="#g" transform="matrix(10 0 0 -10 122.65 122.982)" fill="#999"/><use xlink:href="#e" transform="matrix(10 0 0 -10 129.926 122.982)" fill="red"/><use xlink:href="#e" transform="matrix(10 0 0 -10 136.586 122.982)" fill="red"/><use xlink:href="#f" transform="matrix(10 0 0 -10 143.002 122.83)" fill="#00f"/><use xlink:href="#e" transform="matrix(10 0 0 -10 150.512 122.982)" fill="red"/><use xlink:href="#h" transform="matrix(10 0 0 -10 157.133 122.83)" fill="#fc0"/><use xlink:href="#e" transform="matrix(10 0 0 -10 163.305 122.982)" fill="red"/><use xlink:href="#e" transform="matrix(10 0 0 -10 169.965 122.982)" fill="red"/><use xlink:href="#g" transform="matrix(10 0 0 -10 176.654 122.982)" fill="green"/><use xlink:href="#h" transform="matrix(10 0 0 -10 183.832 122.83)" fill="#fc0"/><use xlink:href="#f" transform="matrix(10 0 0 -10 189.72 122.83)" fill="#00f"/><use xlink:href="#f" transform="matrix(10 0 0 -10 196.947 122.83)" fill="#999"/><use xlink:href="#g" transform="matrix(10 0 0 -10 204.44 122.982)" fill="#999"/><use xlink:href="#f" transform="matrix(10 0 0 -10 211.387 122.83)" fill="#999"/><use xlink:href="#f" transform="matrix(10 0 0 -10 218.607 122.83)" fill="#999"/><use xlink:href="#g" transform="matrix(10 0 0 -10 226.1 122.982)" fill="#999"/><use xlink:href="#h" transform="matrix(10 0 0 -10 233.272 122.83)" fill="#999"/><use xlink:href="#f" transform="matrix(10 0 0 -10 238.377 122.83)" fill="#999"/><use xlink:href="#a" transform="matrix(10 0 0 -10 63.594 142.83)"/><use xlink:href="#b" transform="matrix(10 0 0 -10 70.454 142.968)"/><use xlink:href="#c" transform="matrix(10 0 0 -10 74.899 142.83)"/><use xlink:href="#d" transform="matrix(10 0 0 -10 77.843 142.83)"/><use xlink:href="#d" transform="matrix(10 0 0 -10 80.343 142.83)"/><use xlink:href="#f" transform="matrix(10 0 0 -10 82.391 142.83)"/><use xlink:href="#h" transform="matrix(10 0 0 -10 88.726 142.83)"/><use xlink:href="#e" transform="matrix(10 0 0 -10 94.884 142.982)"/><use xlink:href="#f" transform="matrix(10 0 0 -10 101.261 142.83)"/><use xlink:href="#f" transform="matrix(10 0 0 -10 108.481 142.83)"/><use xlink:href="#e" transform="matrix(10 0 0 -10 115.984 142.982)"/><use xlink:href="#g" transform="matrix(10 0 0 -10 122.665 142.982)"/><use xlink:href="#d" transform="matrix(10 0 0 -10 129.533 142.83)"/><use xlink:href="#d" transform="matrix(10 0 0 -10 132.033 142.83)"/><use xlink:href="#d" transform="matrix(10 0 0 -10 134.533 142.83)"/><use xlink:href="#d" transform="matrix(10 0 0 -10 137.033 142.83)"/><use xlink:href="#d" transform="matrix(10 0 0 -10 139.533 142.83)"/><use xlink:href="#d" transform="matrix(10 0 0 -10 142.033 142.83)"/><use xlink:href="#d" transform="matrix(10 0 0 -10 144.533 142.83)"/><use xlink:href="#d" transform="matrix(10 0 0 -10 147.033 142.83)"/><use xlink:href="#d" transform="matrix(10 0 0 -10 149.533 142.83)"/><use xlink:href="#d" transform="matrix(10 0 0 -10 152.033 142.83)"/><use xlink:href="#d" transform="matrix(10 0 0 -10 154.533 142.83)"/><use xlink:href="#h" transform="matrix(10 0 0 -10 156.786 142.83)"/><use xlink:href="#f" transform="matrix(10 0 0 -10 196.671 142.83)"/><use xlink:href="#g" transform="matrix(10 0 0 -10 204.165 142.982)"/><use xlink:href="#f" transform="matrix(10 0 0 -10 211.111 142.83)"/><use xlink:href="#f" transform="matrix(10 0 0 -10 218.331 142.83)"/><use xlink:href="#g" transform="matrix(10 0 0 -10 225.825 142.982)"/><use xlink:href="#h" transform="matrix(10 0 0 -10 232.996 142.83)"/><use xlink:href="#f" transform="matrix(10 0 0 -10 238.091 142.83)"/><use xlink:href="#d" transform="matrix(10 0 0 -10 244.693 142.83)"/><use xlink:href="#d" transform="matrix(10 0 0 -10 63.423 152.83)" fill="#999"/><use xlink:href="#d" transform="matrix(10 0 0 -10 65.923 152.83)" fill="#999"/><use xlink:href="#d" transform="matrix(10 0 0 -10 68.423 152.83)" fill="#999"/><use xlink:href="#d" transform="matrix(10 0 0 -10 70.923 152.83)" fill="#999"/><use xlink:href="#d" transform="matrix(10 0 0 -10 73.423 152.83)" fill="#999"/><use xlink:href="#d" transform="matrix(10 0 0 -10 75.923 152.83)" fill="#999"/><use xlink:href="#d" transform="matrix(10 0 0 -10 78.423 152.83)" fill="#999"/><use xlink:href="#d" transform="matrix(10 0 0 -10 80.923 152.83)" fill="#999"/><use xlink:href="#f" transform="matrix(10 0 0 -10 82.091 152.83)" fill="#999"/><use xlink:href="#h" transform="matrix(10 0 0 -10 88.436 152.83)" fill="#999"/><use xlink:href="#e" transform="matrix(10 0 0 -10 94.594 152.982)" fill="#999"/><use xlink:href="#f" transform="matrix(10 0 0 -10 100.971 152.83)" fill="#999"/><use xlink:href="#f" transform="matrix(10 0 0 -10 108.191 152.83)" fill="#999"/><use xlink:href="#e" transform="matrix(10 0 0 -10 115.694 152.982)" fill="#999"/><use xlink:href="#g" transform="matrix(10 0 0 -10 122.375 152.982)" fill="#999"/><use xlink:href="#e" transform="matrix(10 0 0 -10 129.645 152.982)" fill="red"/><use xlink:href="#e" transform="matrix(10 0 0 -10 136.305 152.982)" fill="red"/><use xlink:href="#f" transform="matrix(10 0 0 -10 142.721 152.83)" fill="#00f"/><use xlink:href="#e" transform="matrix(10 0 0 -10 150.23 152.982)" fill="red"/><use xlink:href="#h" transform="matrix(10 0 0 -10 156.852 152.83)" fill="#999"/><use xlink:href="#e" transform="matrix(10 0 0 -10 163.024 152.982)" fill="red"/><use xlink:href="#e" transform="matrix(10 0 0 -10 169.684 152.982)" fill="red"/><use xlink:href="#g" transform="matrix(10 0 0 -10 176.373 152.982)" fill="green"/><use xlink:href="#h" transform="matrix(10 0 0 -10 183.551 152.83)" fill="#fc0"/><use xlink:href="#f" transform="matrix(10 0 0 -10 189.72 152.83)" fill="#00f"/><use xlink:href="#f" transform="matrix(10 0 0 -10 197.228 152.83)" fill="#999"/><use xlink:href="#g" transform="matrix(10 0 0 -10 204.722 152.982)" fill="#999"/><use xlink:href="#f" transform="matrix(10 0 0 -10 211.668 152.83)" fill="#999"/><use xlink:href="#f" transform="matrix(10 0 0 -10 218.888 152.83)" fill="#999"/><use xlink:href="#g" transform="matrix(10 0 0 -10 226.382 152.982)" fill="#999"/><use xlink:href="#h" transform="matrix(10 0 0 -10 233.553 152.83)" fill="#999"/><use xlink:href="#f" transform="matrix(10 0 0 -10 238.658 152.83)" fill="#999"/><symbol id="B"><path d="M.393 0L.137.557V.115C.137.075.14.049.15.039.162.025.18.019.207.019H.23V0H0v.018h.023c.028 0 .048.009.06.025.007.01.01.035.01.072v.432c0 .03-.003.05-.009.064a.053.053 0 01-.025.023.13.13 0 01-.059.01v.018h.188l.24-.518.236.518h.188V.644H.829C.8.644.78.636.769.619.76.609.758.584.758.547V.115c0-.04.004-.066.013-.076C.784.025.803.019.83.019h.023V0H.57v.018h.024c.028 0 .048.009.06.025.006.01.01.035.01.072v.442L.41 0H.393z"/></symbol><symbol id="C"><path d="M.002.617L.14.672H.16V.568c.023.04.046.067.069.082a.13.13 0 00.074.024.142.142 0 00.112-.052A.25.25 0 00.47.454.28.28 0 00.403.262.176.176 0 00.265.2a.172.172 0 00-.062.01.146.146 0 00-.044.03V.104c0-.031.001-.05.005-.059a.043.043 0 01.02-.02.122.122 0 01.05-.007V0H0v.018h.012c.018 0 .033.003.046.01.006.004.011.01.014.018a.196.196 0 01.006.06V.53a.23.23 0 01-.004.055.033.033 0 01-.013.018.04.04 0 01-.023.006A.088.088 0 01.008.6L.002.617M.16.539V.372c0-.036.001-.06.004-.071A.092.092 0 01.196.25.104.104 0 01.264.229c.032 0 .059.013.079.039a.22.22 0 01.04.14c0 .068-.016.12-.046.157a.093.093 0 01-.12.027.272.272 0 01-.058-.053z"/></symbol><use xlink:href="#B" transform="matrix(10 0 0 -10 14.475 118.992)"/><use xlink:href="#x" transform="matrix(10 0 0 -10 23.555 119.085)"/><use xlink:href="#C" transform="matrix(10 0 0 -10 27.595 121.131)"/><use xlink:href="#C" transform="matrix(10 0 0 -10 32.595 121.131)"/><use xlink:href="#b" transform="matrix(10 0 0 -10 38 119.13)"/><use xlink:href="#z" transform="matrix(10 0 0 -10 42.122 118.992)"/><use xlink:href="#f" transform="matrix(10 0 0 -10 45.467 118.992)"/><use xlink:href="#B" transform="matrix(10 0 0 -10 14.616 146.162)"/><use xlink:href="#x" transform="matrix(10 0 0 -10 23.696 146.255)"/><use xlink:href="#C" transform="matrix(10 0 0 -10 27.735 148.3)"/><use xlink:href="#C" transform="matrix(10 0 0 -10 32.736 148.3)"/><use xlink:href="#b" transform="matrix(10 0 0 -10 38.14 146.299)"/><use xlink:href="#z" transform="matrix(10 0 0 -10 42.263 146.162)"/><use xlink:href="#A" transform="matrix(10 0 0 -10 45.696 146.162)"/><symbol id="D"><path d="M.18.647A.047.047 0 00.216.633.047.047 0 00.23.6.047.047 0 00.215.564.047.047 0 00.18.55a.048.048 0 00-.05.049c0 .013.006.025.015.034.01.01.021.014.035.014M.187.454L.09.11A.256.256 0 01.08.07C.08.065.083.06.086.057A.015.015 0 01.096.052c.005 0 .01.003.018.008A.293.293 0 01.17.123L.187.11A.346.346 0 00.109.026.105.105 0 00.045 0a.046.046 0 00-.032.012.04.04 0 00-.013.03.25.25 0 00.012.06l.064.219C.086.357.09.379.09.388a.022.022 0 01-.008.018.029.029 0 01-.02.007.362.362 0 01-.044-.006v.02l.168.027z"/></symbol><symbol id="E"><path d="M.202.454L.137.23c.06.091.107.151.14.18C.308.439.34.454.37.454.386.454.4.448.41.437A.057.057 0 00.426.397.297.297 0 00.412.317L.352.112a.248.248 0 01-.01-.044C.342.064.344.06.346.057.35.054.352.052.354.052c.004 0 .01.002.015.007A.326.326 0 01.425.12L.44.111A.367.367 0 00.354.02.094.094 0 00.304 0a.038.038 0 00-.03.011.04.04 0 00-.01.03c0 .015.006.042.017.08l.056.196c.008.025.011.044.011.058A.02.02 0 01.342.39a.021.021 0 01-.016.006.066.066 0 01-.033-.011.292.292 0 01-.075-.073A1.007 1.007 0 01.136.183a.475.475 0 01-.038-.09L.073.011H0l.089.305a.4.4 0 01.015.067.024.024 0 01-.008.018.028.028 0 01-.021.009L.055.409.034.406.034.423l.169.03z"/></symbol><symbol id="F"><path d="M.219.575L.18.442h.076L.25.412H.173L.089.122a.288.288 0 01-.014-.06C.075.057.076.053.08.05A.012.012 0 01.09.046c.008 0 .018.006.032.017a.59.59 0 01.052.06L.189.111A.346.346 0 00.104.019.098.098 0 00.049 0a.049.049 0 00-.035.013A.047.047 0 000 .048c0 .017.005.044.016.08l.081.283H.023l.005.02c.036.009.066.023.09.043.023.02.05.053.08.1h.02z"/></symbol><symbol id="G"><path d="M.088.196a.302.302 0 01-.004-.04c0-.03.01-.054.031-.075.02-.02.046-.03.075-.03.023 0 .046.005.067.014.022.01.054.031.097.064l.01-.014C.287.038.214 0 .144 0 .096 0 .06.015.036.045A.155.155 0 000 .144c0 .049.015.098.045.149.03.05.067.09.113.118a.26.26 0 00.14.043c.034 0 .06-.007.076-.021a.063.063 0 00.025-.05.117.117 0 00-.032-.078.297.297 0 00-.125-.078.695.695 0 00-.154-.031M.09.22A.413.413 0 01.21.248c.04.018.07.04.09.064.02.025.03.049.03.071a.044.044 0 01-.013.034C.307.425.296.429.279.429.246.43.211.411.173.376A.318.318 0 01.091.22z"/></symbol><symbol id="H"><path d="M.032.415L.2.442.13.205a.792.792 0 00.155.204C.312.43.333.442.35.442c.01 0 .019-.003.025-.01.006-.006.01-.015.01-.027A.123.123 0 00.367.343C.36.33.348.321.334.321a.029.029 0 00-.02.008.036.036 0 00-.01.022C.305.357.304.361.3.363a.013.013 0 01-.009.004.033.033 0 01-.016-.004.171.171 0 01-.038-.038A1.063 1.063 0 01.149.201.368.368 0 01.114.128 1.174 1.174 0 01.09.062L.075 0H0l.09.303a.31.31 0 01.016.075C.106.384.104.39.099.393a.04.04 0 01-.026.008.285.285 0 01-.038-.005L.032.415z"/></symbol><symbol id="I"><path d="M.273.065L.253 0H0l.02.065h.253z"/></symbol><symbol id="J"><path d="M.359.118a.375.375 0 00-.103-.09A.225.225 0 00.147 0a.147.147 0 00-.108.04A.143.143 0 000 .143c0 .05.014.099.042.147a.34.34 0 00.112.117C.2.438.247.454.292.454.328.454.354.446.372.43A.068.068 0 00.398.377.077.077 0 00.38.325.042.042 0 00.346.31a.035.035 0 00-.025.01.033.033 0 00-.01.024c0 .006.001.012.003.017A.074.074 0 00.33.378a.078.078 0 01.014.017.023.023 0 01.002.01.02.02 0 01-.01.017.07.07 0 01-.04.01.161.161 0 01-.094-.034.275.275 0 01-.08-.096.318.318 0 01-.04-.15c0-.033.01-.06.028-.08A.103.103 0 01.187.045c.026 0 .05.006.075.019A.323.323 0 01.345.13L.359.118z"/></symbol><symbol id="K"><path d="M.446.454L.35.123.34.078a.05.05 0 01-.002-.01.02.02 0 01.005-.014.013.013 0 01.01-.005c.004 0 .01.003.017.008.012.01.03.03.05.059L.437.104a.312.312 0 00-.07-.078A.114.114 0 00.303 0C.288 0 .277.004.27.01.263.019.26.029.26.042a.25.25 0 00.01.063l.01.037A.478.478 0 00.164.024.143.143 0 00.087 0a.08.08 0 00-.061.03A.12.12 0 000 .11a.405.405 0 00.165.302.183.183 0 00.106.042c.02 0 .036-.006.05-.016A.097.097 0 00.35.386l.017.056.078.012M.272.428c-.02 0-.043-.01-.066-.03a.36.36 0 01-.09-.122.35.35 0 01-.038-.148c0-.022.006-.04.017-.052a.05.05 0 01.038-.02c.035 0 .074.027.116.08A.34.34 0 01.332.35c0 .027-.005.047-.016.06a.055.055 0 01-.044.018z"/></symbol><symbol id="L"><path d="M.259.706L.092.125A.306.306 0 01.08.072C.08.067.08.062.084.06A.016.016 0 01.096.055c.006 0 .013.002.02.008a.266.266 0 01.053.062L.184.11A.357.357 0 00.098.019.102.102 0 00.043 0 .042.042 0 000 .042c0 .012.005.036.016.072l.132.458a.47.47 0 01.016.065.023.023 0 01-.01.019C.15.66.14.664.127.664A.256.256 0 01.092.66v.018l.167.028z"/></symbol><use xlink:href="#D" transform="matrix(10 0 0 -10 285.229 10.965)" fill="#f0f"/><use xlink:href="#E" transform="matrix(10 0 0 -10 287.76 10.965)" fill="#f0f"/><use xlink:href="#F" transform="matrix(10 0 0 -10 292.98 10.965)" fill="#f0f"/><use xlink:href="#G" transform="matrix(10 0 0 -10 295.652 10.965)" fill="#f0f"/><use xlink:href="#H" transform="matrix(10 0 0 -10 299.974 10.848)" fill="#f0f"/><use xlink:href="#I" transform="matrix(10 0 0 -10 303.713 9.002)" fill="#f0f"/><use xlink:href="#J" transform="matrix(10 0 0 -10 307.053 10.965)" fill="#f0f"/><use xlink:href="#K" transform="matrix(10 0 0 -10 311.444 10.965)" fill="#f0f"/><use xlink:href="#L" transform="matrix(10 0 0 -10 316.595 10.965)" fill="#f0f"/><use xlink:href="#L" transform="matrix(10 0 0 -10 319.365 10.965)" fill="#f0f"/><use xlink:href="#G" transform="matrix(10 0 0 -10 322.062 10.965)" fill="#f0f"/><use xlink:href="#H" transform="matrix(10 0 0 -10 326.384 10.848)" fill="#f0f"/><symbol id="M"><path d="M.2.454L.136.234A.97.97 0 00.208.35C.24.39.27.42.298.438c.018.01.036.016.055.016.016 0 .03-.006.04-.016A.053.053 0 00.41.398.235.235 0 00.398.335L.364.211c.053.1.103.17.15.21a.122.122 0 00.079.033.047.047 0 00.036-.016C.64.428.644.412.644.391A.225.225 0 00.635.33L.582.14A.623.623 0 01.564.07c0-.004.001-.008.004-.01A.01.01 0 01.576.056c.003 0 .01.003.017.009a.253.253 0 01.053.057l.016-.01a.415.415 0 00-.097-.1A.085.085 0 00.525 0a.04.04 0 00-.04.04c0 .016.007.048.02.095l.044.157c.01.036.016.056.016.06A.116.116 0 01.567.37a.03.03 0 01-.005.019C.558.393.553.396.548.396.535.396.52.389.505.375A.634.634 0 01.379.2 1.05 1.05 0 01.307.01H.233l.083.296C.326.34.33.36.33.371.33.38.328.386.325.391a.017.017 0 01-.013.006.063.063 0 01-.035-.012A.652.652 0 01.13.184 2.451 2.451 0 01.072.012H0l.09.316.012.041.003.014a.025.025 0 01-.01.019.036.036 0 01-.024.009.273.273 0 01-.035-.006L.03.423.2.453z"/></symbol><symbol id="N"><path d="M.332.656L.298.543c.035.042.067.071.095.088a.166.166 0 00.085.025A.096.096 0 00.552.62a.128.128 0 00.031-.09.356.356 0 00-.087-.218C.437.239.369.203.292.203a.16.16 0 00-.043.005.191.191 0 00-.042.019L.17.1A.233.233 0 01.16.052.03.03 0 01.165.034.035.035 0 01.184.022a.184.184 0 01.05-.004L.23 0H0l.005.018c.03.001.05.007.061.016.01.009.022.034.034.075l.123.428a.282.282 0 01.011.05.027.027 0 01-.007.02C.222.614.214.616.204.616a.317.317 0 01-.04-.003V.63l.168.025M.218.266A.1.1 0 01.299.228c.017 0 .034.005.052.014.018.01.035.024.051.042.017.019.032.04.046.064a.485.485 0 01.035.086C.494.468.5.5.5.533.5.559.493.579.48.593a.053.053 0 01-.041.02C.405.613.37.593.335.553A.385.385 0 01.26.41L.218.265z"/></symbol><use xlink:href="#D" transform="matrix(10 0 0 -10 6.806 99.332)" fill="#0ff"/><use xlink:href="#E" transform="matrix(10 0 0 -10 9.337 99.332)" fill="#0ff"/><use xlink:href="#F" transform="matrix(10 0 0 -10 14.557 99.332)" fill="#0ff"/><use xlink:href="#G" transform="matrix(10 0 0 -10 17.23 99.332)" fill="#0ff"/><use xlink:href="#H" transform="matrix(10 0 0 -10 21.552 99.214)" fill="#0ff"/><use xlink:href="#I" transform="matrix(10 0 0 -10 25.29 97.369)" fill="#0ff"/><use xlink:href="#M" transform="matrix(10 0 0 -10 28.527 99.332)" fill="#0ff"/><use xlink:href="#K" transform="matrix(10 0 0 -10 35.81 99.332)" fill="#0ff"/><use xlink:href="#N" transform="matrix(10 0 0 -10 39.473 101.353)" fill="#0ff"/><use xlink:href="#N" transform="matrix(10 0 0 -10 44.473 101.353)" fill="#0ff"/><use xlink:href="#G" transform="matrix(10 0 0 -10 50.89 99.332)" fill="#0ff"/><use xlink:href="#H" transform="matrix(10 0 0 -10 55.212 99.214)" fill="#0ff"/><symbol id="O"><path d="M.522.706L.354.13A.29.29 0 01.34.068C.34.065.342.062.344.06.347.056.35.055.353.055c.004 0 .01.002.015.006.011.008.03.027.056.059L.44.11A.431.431 0 00.37.03C.344.01.322 0 .301 0a.035.035 0 00-.027.012.047.047 0 00-.01.033c0 .018.004.043.014.075l.019.06A.572.572 0 00.168.03.133.133 0 00.093 0a.083.083 0 00-.065.033.137.137 0 00-.027.09.392.392 0 00.169.29c.04.027.077.04.11.04a.091.091 0 00.046-.01.127.127 0 00.037-.036l.048.17.009.029a.117.117 0 01.006.032.022.022 0 01-.008.017.04.04 0 01-.026.009A.324.324 0 01.354.66v.018l.168.028M.341.36a.07.07 0 01-.018.05.06.06 0 01-.046.02C.236.429.193.395.148.327A.357.357 0 01.082.133C.082.108.087.09.098.077a.049.049 0 01.039-.02c.034 0 .076.037.127.11A.353.353 0 01.341.36z"/></symbol><use xlink:href="#D" transform="matrix(10 0 0 -10 4.94 10.943)" fill="#0f0"/><use xlink:href="#E" transform="matrix(10 0 0 -10 7.471 10.943)" fill="#0f0"/><use xlink:href="#F" transform="matrix(10 0 0 -10 12.691 10.943)" fill="#0f0"/><use xlink:href="#G" transform="matrix(10 0 0 -10 15.363 10.943)" fill="#0f0"/><use xlink:href="#H" transform="matrix(10 0 0 -10 19.686 10.826)" fill="#0f0"/><use xlink:href="#I" transform="matrix(10 0 0 -10 23.425 8.98)" fill="#0f0"/><use xlink:href="#H" transform="matrix(10 0 0 -10 26.696 10.826)" fill="#0f0"/><use xlink:href="#G" transform="matrix(10 0 0 -10 30.323 10.943)" fill="#0f0"/><use xlink:href="#K" transform="matrix(10 0 0 -10 34.675 10.943)" fill="#0f0"/><use xlink:href="#O" transform="matrix(10 0 0 -10 39.631 10.943)" fill="#0f0"/></svg>