<svg xmlns="http://www.w3.org/2000/svg" xmlns:xlink="http://www.w3.org/1999/xlink" width="563.15" height="173.858" viewBox="0 0 422.362 130.394"><symbol id="a"><path d="M.603.066A2.142 2.142 0 01.554.044.461.461 0 00.433.007a.447.447 0 00-.22.015.296.296 0 00-.187.187A.482.482 0 000 .376c0 .06.008.113.025.16A.307.307 0 00.21.729a.41.41 0 00.146.025A.491.491 0 00.603.69V.575H.596a.43.43 0 01-.12.073A.346.346 0 01.35.67a.262.262 0 01-.1-.018.215.215 0 01-.078-.055.257.257 0 01-.053-.093.408.408 0 01-.018-.129C.1.325.107.281.12.244a.268.268 0 01.054-.09.215.215 0 01.08-.053A.275.275 0 01.35.083.355.355 0 01.596.18h.007V.066z"/></symbol><symbol id="b"><path d="M.556 0H.46v.356H.097V0H0v.727h.097V.442h.362v.285h.097V0z"/></symbol><symbol id="c"><path d="M.602 0H.476L.233.29H.097V0H0v.727h.204c.044 0 .08-.003.11-.009a.227.227 0 00.079-.03.18.18 0 00.061-.063.184.184 0 00.023-.096.215.215 0 00-.04-.132.241.241 0 00-.109-.08L.602 0M.375.522c0 .021-.003.04-.01.056a.094.094 0 01-.037.04.13.13 0 01-.05.02.344.344 0 01-.068.006H.097V.37h.097c.03 0 .058.002.08.007a.13.13 0 01.09.078c.008.017.011.04.011.067z"/></symbol><symbol id="d"><path d="M.583.659a.328.328 0 00.068-.12.5.5 0 00.024-.16.496.496 0 00-.024-.162A.327.327 0 00.583.1.289.289 0 00.477.025.367.367 0 00.337 0a.37.37 0 00-.14.025A.289.289 0 00.092.1a.333.333 0 00-.068.119.507.507 0 00-.023.16c0 .06.008.113.023.16a.34.34 0 00.069.12.28.28 0 00.106.074.374.374 0 00.14.025.36.36 0 00.14-.026A.29.29 0 00.583.66M.575.379A.334.334 0 01.51.596a.212.212 0 01-.173.077.214.214 0 01-.174-.077A.335.335 0 01.1.378.33.33 0 01.165.16C.208.11.265.083.338.083.41.083.468.11.51.16a.33.33 0 01.065.22z"/></symbol><symbol id="e"><path d="M.647 0H.551v.626L.349.2H.29l-.2.426V0H0v.727h.132L.326.322l.187.405h.134V0z"/></symbol><symbol id="g"><path d="M.476.507a.234.234 0 00-.064-.16.244.244 0 00-.09-.057A.385.385 0 00.194.27H.097V0H0v.727h.197c.044 0 .08-.004.111-.011a.246.246 0 00.08-.034.194.194 0 00.065-.07.215.215 0 00.023-.105M.375.505A.151.151 0 01.362.57a.11.11 0 01-.04.046.158.158 0 01-.054.021.347.347 0 01-.076.007H.097v-.29h.081c.04 0 .071.003.095.01a.137.137 0 01.102.14z"/></symbol><symbol id="h"><path d="M.56.22A.192.192 0 00.54.138a.197.197 0 00-.055-.07.295.295 0 00-.091-.05A.391.391 0 00.269 0 .627.627 0 000 .058V.18h.007A.402.402 0 01.134.11.418.418 0 01.27.082c.06 0 .106.012.14.034.033.023.05.053.05.09C.46.239.452.263.436.278a.16.16 0 01-.072.036.715.715 0 01-.08.016l-.09.016a.27.27 0 00-.143.07.182.182 0 00-.047.13c0 .06.026.11.078.149.051.039.116.058.195.058a.63.63 0 00.254-.05V.588H.524A.418.418 0 01.276.67.218.218 0 01.153.638.097.097 0 01.105.555C.105.525.113.5.128.483a.159.159 0 01.083-.04L.3.428a1.23 1.23 0 00.097-.02A.253.253 0 00.52.342.17.17 0 00.56.221z"/></symbol><symbol id="i"><path d="M.479 0H0v.727h.479V.641H.097v-.2h.382V.357H.097v-.27h.382V0z"/></symbol><symbol id="j"><path d="M.464.641H.097V.436h.316V.35H.097V0H0v.727h.464V.641z"/></symbol><symbol id="k"><path d="M.658 0H.555L.484.203H.169L.1 0H0l.265.727h.129L.658 0M.454.286L.327.643.199.286h.255z"/></symbol><symbol id="l"><path d="M.46 0H0v.727h.097V.086H.46V0z"/></symbol><symbol id="m"><path d="M.616.641h-.26V0H.26v.641H0v.086h.616V.641z"/></symbol><use xlink:href="#a" transform="matrix(8 0 0 -8 40.537 36.07)"/><use xlink:href="#b" transform="matrix(8 0 0 -8 46.453 35.965)"/><use xlink:href="#c" transform="matrix(8 0 0 -8 52.461 35.965)"/><use xlink:href="#d" transform="matrix(8 0 0 -8 57.69 36.086)"/><use xlink:href="#e" transform="matrix(8 0 0 -8 64.317 35.965)"/><use xlink:href="#f" transform="matrix(8 0 0 -8 70.272 35.965)"/><use xlink:href="#f" transform="matrix(8 0 0 -8 73.08 35.965)"/><use xlink:href="#f" transform="matrix(8 0 0 -8 75.888 35.965)"/><use xlink:href="#f" transform="matrix(8 0 0 -8 78.696 35.965)"/><use xlink:href="#f" transform="matrix(8 0 0 -8 81.504 35.965)"/><use xlink:href="#f" transform="matrix(8 0 0 -8 84.312 35.965)"/><use xlink:href="#g" transform="matrix(8 0 0 -8 79.357 35.965)"/><use xlink:href="#d" transform="matrix(8 0 0 -8 83.85 36.086)"/><use xlink:href="#h" transform="matrix(8 0 0 -8 90.22 36.07)"/><use xlink:href="#f" transform="matrix(8 0 0 -8 95.16 35.965)"/><use xlink:href="#f" transform="matrix(8 0 0 -8 97.968 35.965)"/><use xlink:href="#f" transform="matrix(8 0 0 -8 100.776 35.965)"/><use xlink:href="#f" transform="matrix(8 0 0 -8 103.584 35.965)"/><use xlink:href="#f" transform="matrix(8 0 0 -8 106.392 35.965)"/><use xlink:href="#f" transform="matrix(8 0 0 -8 109.2 35.965)"/><use xlink:href="#f" transform="matrix(8 0 0 -8 112.008 35.965)"/><use xlink:href="#f" transform="matrix(8 0 0 -8 114.816 35.965)"/><use xlink:href="#f" transform="matrix(8 0 0 -8 117.624 35.965)"/><use xlink:href="#f" transform="matrix(8 0 0 -8 120.432 35.965)"/><use xlink:href="#f" transform="matrix(8 0 0 -8 123.24 35.965)"/><use xlink:href="#f" transform="matrix(8 0 0 -8 126.048 35.965)"/><use xlink:href="#f" transform="matrix(8 0 0 -8 128.856 35.965)"/><use xlink:href="#c" transform="matrix(8 0 0 -8 153.67 35.965)"/><use xlink:href="#i" transform="matrix(8 0 0 -8 159.23 35.965)"/><use xlink:href="#j" transform="matrix(8 0 0 -8 164.285 35.965)"/><use xlink:href="#f" transform="matrix(8 0 0 -8 168.096 35.965)"/><use xlink:href="#f" transform="matrix(8 0 0 -8 170.904 35.965)"/><use xlink:href="#k" transform="matrix(8 0 0 -8 179.766 35.965)"/><use xlink:href="#l" transform="matrix(8 0 0 -8 185.91 35.965)"/><use xlink:href="#m" transform="matrix(8 0 0 -8 188.92 35.965)"/><use xlink:href="#f" transform="matrix(8 0 0 -8 193.848 35.965)"/><use xlink:href="#f" transform="matrix(8 0 0 -8 241.809 35.965)"/><symbol id="n"><path d="M.648.068A.938.938 0 00.518.02a.497.497 0 00-.292.003.32.32 0 00-.121.07.316.316 0 00-.078.119A.464.464 0 000 .378a.37.37 0 00.102.275.38.38 0 00.28.101A.552.552 0 00.507.74a.67.67 0 00.14-.05V.574h-.01a.766.766 0 01-.1.063.408.408 0 01-.173.035A.248.248 0 01.17.593a.304.304 0 01-.07-.212C.1.287.125.214.175.161A.266.266 0 01.377.084a.474.474 0 01.175.034v.178H.357V.38h.29V.068z"/></symbol><use xlink:href="#n" transform="matrix(14 0 0 -14 240.11 36.163)"/><use xlink:href="#k" transform="matrix(14 0 0 -14 250.353 35.965)"/><use xlink:href="#k" transform="matrix(14 0 0 -14 259.915 35.965)"/><use xlink:href="#f" transform="matrix(14 0 0 -14 269.299 35.965)"/><use xlink:href="#f" transform="matrix(14 0 0 -14 274.213 35.965)"/><use xlink:href="#a" transform="matrix(14 0 0 -14 280.375 36.15)"/><use xlink:href="#f" transform="matrix(14 0 0 -14 289.36 35.965)"/><use xlink:href="#f" transform="matrix(14 0 0 -14 294.275 35.965)"/><use xlink:href="#a" transform="matrix(14 0 0 -14 299.975 36.15)"/><use xlink:href="#a" transform="matrix(14 0 0 -14 309.747 36.15)"/><use xlink:href="#a" transform="matrix(14 0 0 -14 319.561 36.15)"/><use xlink:href="#a" transform="matrix(14 0 0 -14 329.333 36.15)"/><use xlink:href="#a" transform="matrix(14 0 0 -14 339.105 36.15)"/><use xlink:href="#f" transform="matrix(14 0 0 -14 348.133 35.965)"/><use xlink:href="#a" transform="matrix(14 0 0 -14 358.635 36.15)"/><use xlink:href="#n" transform="matrix(14 0 0 -14 368.407 36.163)"/><use xlink:href="#k" transform="matrix(14 0 0 -14 378.649 35.965)"/><use xlink:href="#m" transform="matrix(14 0 0 -14 387.22 35.965)"/><use xlink:href="#m" transform="matrix(14 0 0 -14 395.397 35.965)"/><use xlink:href="#m" transform="matrix(14 0 0 -14 403.559 35.965)"/><symbol id="o"><path d="M.48.015H.388v.057A.332.332 0 00.306.02.228.228 0 00.212 0a.185.185 0 00-.155.075A.338.338 0 000 .284C0 .33.007.37.02.407A.288.288 0 00.073.5a.226.226 0 00.17.076.284.284 0 00.145-.037v.236H.48v-.76M.388.15v.313a.302.302 0 01-.13.03.145.145 0 01-.12-.054.238.238 0 01-.043-.152c0-.065.01-.114.033-.148C.15.104.186.088.234.088a.2.2 0 01.08.016.343.343 0 01.074.045z"/></symbol><symbol id="p"><path d="M.495.276H.093c0-.034.005-.063.015-.088A.165.165 0 01.21.092.243.243 0 01.287.08C.324.08.361.087.4.102a.28.28 0 01.08.044h.005v-.1A.757.757 0 00.39.013.384.384 0 00.288 0a.293.293 0 00-.212.073C.026.123 0 .193 0 .283a.3.3 0 00.073.212.25.25 0 00.192.078C.34.573.395.552.435.51c.04-.043.06-.104.06-.183v-.05m-.09.07A.162.162 0 01.37.458C.345.484.31.498.26.498A.16.16 0 01.143.454a.17.17 0 01-.05-.108h.313z"/></symbol><symbol id="q"><path d="M.092 0H0v.76h.092V0z"/></symbol><symbol id="r"><path d="M.394 0H0v.074h.151v.488H0v.066a.48.48 0 01.066.005.17.17 0 01.053.015.099.099 0 01.035.03c.01.013.014.03.015.051h.076V.074h.149V0z"/></symbol><use xlink:href="#o" transform="matrix(14 0 0 -14 6.373 53.677)" fill="olive"/><use xlink:href="#p" transform="matrix(14 0 0 -14 15.082 53.642)" fill="olive"/><use xlink:href="#q" transform="matrix(14 0 0 -14 23.965 53.465)" fill="olive"/><use xlink:href="#r" transform="matrix(14 0 0 -14 28.423 53.465)" fill="olive"/><symbol id="s"><path d="M.498.618L.168 0H.064l.35.642H0v.085h.498V.618z"/></symbol><symbol id="t"><path d="M.425.365A.165.165 0 00.48.23.217.217 0 00.324.016.347.347 0 00.215 0 .548.548 0 000 .046v.102h.007A.399.399 0 01.213.084c.02 0 .043.004.066.01a.138.138 0 01.056.031.14.14 0 01.044.113.144.144 0 01-.012.064.097.097 0 01-.034.04.132.132 0 01-.054.021.366.366 0 01-.067.006H.168V.45h.034c.05 0 .089.01.118.031.03.02.045.051.045.09a.09.09 0 01-.043.08.14.14 0 01-.045.017.326.326 0 01-.153-.012A.403.403 0 01.027.61H.02v.102a.464.464 0 00.092.032.459.459 0 00.206.005.23.23 0 00.074-.032A.16.16 0 00.446.66.16.16 0 00.464.582.15.15 0 00.42.476.187.187 0 00.32.42V.413A.247.247 0 00.424.365z"/></symbol><symbol id="u"><path d="M.492 0H0v.102L.103.19c.034.03.066.058.096.087.062.06.105.109.128.144a.21.21 0 01.035.116.11.11 0 01-.038.088.154.154 0 01-.104.033.391.391 0 01-.197-.063H.018v.102a.474.474 0 00.205.045.261.261 0 00.175-.054A.181.181 0 00.46.542.271.271 0 00.42.396a.46.46 0 00-.045-.06 2.412 2.412 0 00-.17-.165A21.277 21.277 0 00.101.084h.391V0z"/></symbol><symbol id="v"><path d="M.55.205H.442V0H.348v.205H0v.112l.352.41h.09V.283H.55V.205M.348.283V.61L.066.283h.282z"/></symbol><symbol id="w"><path d="M.515.251A.24.24 0 00.44.07.248.248 0 00.263 0a.274.274 0 00-.098.017.224.224 0 00-.078.049.266.266 0 00-.065.107.65.65 0 00-.002.333.38.38 0 00.067.133.289.289 0 00.11.086.375.375 0 00.207.028.222.222 0 00.04-.008V.65H.439a.23.23 0 01-.098.02.22.22 0 01-.167-.065A.286.286 0 01.1.429a.295.295 0 00.173.05C.304.48.332.477.355.471A.213.213 0 00.493.36a.252.252 0 00.022-.11m-.1-.004a.18.18 0 01-.013.075.127.127 0 01-.094.073A.325.325 0 01.174.39.343.343 0 01.1.36.489.489 0 01.114.19a.176.176 0 01.044-.07A.15.15 0 01.207.09.163.163 0 01.264.08C.31.08.348.095.375.124c.027.029.04.07.04.124z"/></symbol><symbol id="x"><path d="M.474.246A.26.26 0 00.455.15.226.226 0 00.32.019.32.32 0 00.208 0 .51.51 0 000 .042v.104h.007A.431.431 0 01.1.102.338.338 0 01.206.084a.23.23 0 01.067.01.141.141 0 01.058.034c.014.014.025.031.032.05A.189.189 0 01.361.31a.105.105 0 01-.035.042.155.155 0 01-.062.025.573.573 0 01-.232-.01v.375h.437V.657H.125V.463a.891.891 0 00.082.004C.246.467.28.464.31.457A.23.23 0 00.392.422a.183.183 0 00.06-.07.235.235 0 00.022-.106z"/></symbol><symbol id="y"><path d="M.515.421A.634.634 0 00.493.25.363.363 0 00.427.116.297.297 0 00.316.03.378.378 0 00.07.011v.093h.005a.204.204 0 01.097-.02c.072 0 .129.021.17.064a.287.287 0 01.07.18.31.31 0 00-.173-.05.35.35 0 00-.08.007.22.22 0 00-.139.11.257.257 0 00-.021.11c0 .074.024.134.073.181a.25.25 0 00.179.07A.28.28 0 00.35.739.216.216 0 00.428.69.267.267 0 00.492.586.503.503 0 00.515.42M.416.442C.416.492.411.533.4.564a.17.17 0 01-.043.071.137.137 0 01-.049.032.163.163 0 01-.057.01A.145.145 0 01.14.631.175.175 0 01.1.51C.1.478.103.453.111.433A.127.127 0 01.157.382a.13.13 0 01.048-.02.323.323 0 01.21.034 8.447 8.447 0 00.001.046z"/></symbol><use xlink:href="#f" transform="matrix(14 0 0 -14 35.467 53.465)" fill="#999"/><use xlink:href="#r" transform="matrix(14 0 0 -14 42.281 53.465)" fill="#999"/><use xlink:href="#s" transform="matrix(14 0 0 -14 50.324 53.465)" fill="#999"/><use xlink:href="#f" transform="matrix(14 0 0 -14 58.161 53.465)" fill="#999"/><use xlink:href="#t" transform="matrix(14 0 0 -14 78.763 53.677)" fill="#999"/><use xlink:href="#r" transform="matrix(14 0 0 -14 88.411 53.465)" fill="#999"/><use xlink:href="#u" transform="matrix(14 0 0 -14 96.502 53.465)" fill="#999"/><use xlink:href="#u" transform="matrix(14 0 0 -14 105.434 53.465)" fill="#999"/><use xlink:href="#v" transform="matrix(14 0 0 -14 113.75 53.465)" fill="#999"/><use xlink:href="#w" transform="matrix(14 0 0 -14 123.05 53.677)" fill="#999"/><use xlink:href="#x" transform="matrix(14 0 0 -14 132.323 53.677)" fill="#999"/><use xlink:href="#y" transform="matrix(14 0 0 -14 140.708 53.663)" fill="#999"/><use xlink:href="#f" transform="matrix(14 0 0 -14 148.825 53.465)" fill="#999"/><use xlink:href="#k" transform="matrix(14 0 0 -14 153.567 53.465)" fill="#999"/><use xlink:href="#a" transform="matrix(14 0 0 -14 163.737 53.65)" fill="#999"/><use xlink:href="#f" transform="matrix(14 0 0 -14 172.723 53.465)" fill="#999"/><use xlink:href="#k" transform="matrix(14 0 0 -14 179.69 53.465)" fill="#999"/><use xlink:href="#f" transform="matrix(14 0 0 -14 189.075 53.465)" fill="#999"/><use xlink:href="#f" transform="matrix(14 0 0 -14 193.99 53.465)" fill="#999"/><use xlink:href="#f" transform="matrix(14 0 0 -14 198.903 53.465)" fill="#999"/><use xlink:href="#f" transform="matrix(14 0 0 -14 203.817 53.465)" fill="#999"/><use xlink:href="#f" transform="matrix(14 0 0 -14 208.731 53.465)" fill="#999"/><use xlink:href="#f" transform="matrix(14 0 0 -14 213.645 53.465)" fill="#999"/><use xlink:href="#n" transform="matrix(14 0 0 -14 239.813 53.663)" fill="#999"/><use xlink:href="#k" transform="matrix(14 0 0 -14 250.055 53.465)" fill="#999"/><use xlink:href="#k" transform="matrix(14 0 0 -14 259.617 53.465)" fill="#999"/><use xlink:href="#f" transform="matrix(14 0 0 -14 269.001 53.465)" fill="#999"/><use xlink:href="#f" transform="matrix(14 0 0 -14 273.915 53.465)" fill="#999"/><symbol id="z"><path d="M.305 0H0v.088h.305V0z"/></symbol><use xlink:href="#z" transform="matrix(14 0 0 -14 281.955 49.63)" fill="red"/><use xlink:href="#f" transform="matrix(14 0 0 -14 287.28 53.465)" fill="#999"/><use xlink:href="#f" transform="matrix(14 0 0 -14 292.194 53.465)" fill="#999"/><use xlink:href="#f" transform="matrix(14 0 0 -14 297.108 53.465)" fill="#999"/><use xlink:href="#a" transform="matrix(14 0 0 -14 299.854 53.65)" fill="#999"/><use xlink:href="#a" transform="matrix(14 0 0 -14 309.626 53.65)" fill="#999"/><use xlink:href="#a" transform="matrix(14 0 0 -14 319.398 53.65)" fill="#999"/><use xlink:href="#a" transform="matrix(14 0 0 -14 329.212 53.65)" fill="#999"/><use xlink:href="#a" transform="matrix(14 0 0 -14 339.222 53.65)" fill="#999"/><use xlink:href="#f" transform="matrix(14 0 0 -14 348.208 53.465)" fill="#999"/><use xlink:href="#a" transform="matrix(14 0 0 -14 358.682 53.65)" fill="#999"/><use xlink:href="#n" transform="matrix(14 0 0 -14 368.454 53.663)" fill="#999"/><use xlink:href="#k" transform="matrix(14 0 0 -14 378.696 53.465)" fill="#999"/><use xlink:href="#m" transform="matrix(14 0 0 -14 387.268 53.465)" fill="#999"/><use xlink:href="#m" transform="matrix(14 0 0 -14 395.444 53.465)" fill="#999"/><use xlink:href="#m" transform="matrix(14 0 0 -14 403.62 53.465)" fill="#999"/><symbol id="A"><path d="M.104.637H0v.095h.104V.637M.098 0H.006v.545h.092V0z"/></symbol><symbol id="B"><path d="M.456 0H.364v.31A.53.53 0 01.36.38a.13.13 0 01-.016.053.073.073 0 01-.035.03.147.147 0 01-.06.01A.19.19 0 01.17.455.4.4 0 01.092.407V0H0v.545h.092v-.06A.373.373 0 00.18.54c.03.013.062.02.094.02C.334.56.379.543.41.507.44.472.456.421.456.354V0z"/></symbol><symbol id="C"><path d="M.426.17C.426.12.406.08.364.048A.268.268 0 00.196 0 .414.414 0 000 .046v.103h.005A.374.374 0 01.102.097a.303.303 0 01.102-.02c.04 0 .072.007.094.02A.066.066 0 01.333.16C.333.18.326.196.314.208a.167.167 0 01-.071.028L.19.246A.807.807 0 00.134.26a.193.193 0 00-.102.055.14.14 0 00-.03.091.15.15 0 00.014.064c.01.02.024.037.043.053a.2.2 0 00.069.036c.028.01.06.014.095.014A.413.413 0 00.405.53V.433H.4a.323.323 0 01-.184.061.17.17 0 01-.085-.02.061.061 0 01-.035-.057c0-.022.007-.039.021-.05A.164.164 0 01.184.339 1.406 1.406 0 01.293.316a.194.194 0 00.099-.05A.132.132 0 00.426.17z"/></symbol><use xlink:href="#A" transform="matrix(14 0 0 -14 6.831 70.965)" fill="purple"/><use xlink:href="#B" transform="matrix(14 0 0 -14 10.736 70.965)" fill="purple"/><use xlink:href="#C" transform="matrix(14 0 0 -14 19.071 71.15)" fill="purple"/><use xlink:href="#r" transform="matrix(14 0 0 -14 27.5 70.965)" fill="purple"/><use xlink:href="#f" transform="matrix(14 0 0 -14 34.565 70.965)" fill="#999"/><use xlink:href="#r" transform="matrix(14 0 0 -14 41.757 70.965)" fill="#999"/><use xlink:href="#s" transform="matrix(14 0 0 -14 49.8 70.965)" fill="#999"/><use xlink:href="#f" transform="matrix(14 0 0 -14 57.637 70.965)" fill="#999"/><use xlink:href="#t" transform="matrix(14 0 0 -14 78.98 71.177)" fill="#999"/><use xlink:href="#r" transform="matrix(14 0 0 -14 88.63 70.965)" fill="#999"/><use xlink:href="#u" transform="matrix(14 0 0 -14 96.72 70.965)" fill="#999"/><use xlink:href="#u" transform="matrix(14 0 0 -14 105.651 70.965)" fill="#999"/><use xlink:href="#v" transform="matrix(14 0 0 -14 113.967 70.965)" fill="#999"/><use xlink:href="#w" transform="matrix(14 0 0 -14 123.267 71.177)" fill="#999"/><use xlink:href="#x" transform="matrix(14 0 0 -14 132.499 71.177)" fill="#999"/><use xlink:href="#y" transform="matrix(14 0 0 -14 140.925 71.163)" fill="#999"/><use xlink:href="#f" transform="matrix(14 0 0 -14 149.043 70.965)" fill="#999"/><use xlink:href="#k" transform="matrix(14 0 0 -14 153.406 70.965)" fill="#999"/><use xlink:href="#f" transform="matrix(14 0 0 -14 162.79 70.965)" fill="#999"/><use xlink:href="#f" transform="matrix(14 0 0 -14 167.705 70.965)" fill="#999"/><use xlink:href="#f" transform="matrix(14 0 0 -14 172.619 70.965)" fill="#999"/><use xlink:href="#k" transform="matrix(14 0 0 -14 179.208 70.965)" fill="#999"/><use xlink:href="#a" transform="matrix(14 0 0 -14 189.379 71.15)" fill="#999"/><use xlink:href="#f" transform="matrix(14 0 0 -14 198.365 70.965)" fill="#999"/><use xlink:href="#f" transform="matrix(14 0 0 -14 203.279 70.965)" fill="#999"/><use xlink:href="#f" transform="matrix(14 0 0 -14 207.829 70.965)" fill="#999"/><use xlink:href="#f" transform="matrix(14 0 0 -14 239.175 70.965)" fill="#999"/><use xlink:href="#f" transform="matrix(14 0 0 -14 244.089 70.965)" fill="#999"/><use xlink:href="#f" transform="matrix(14 0 0 -14 249.003 70.965)" fill="#999"/><use xlink:href="#f" transform="matrix(14 0 0 -14 253.917 70.965)" fill="#999"/><use xlink:href="#f" transform="matrix(14 0 0 -14 258.83 70.965)" fill="#999"/><use xlink:href="#f" transform="matrix(14 0 0 -14 263.745 70.965)" fill="#999"/><use xlink:href="#f" transform="matrix(14 0 0 -14 268.659 70.965)" fill="#999"/><use xlink:href="#f" transform="matrix(14 0 0 -14 273.573 70.965)" fill="#999"/><use xlink:href="#f" transform="matrix(14 0 0 -14 278.487 70.965)" fill="#999"/><use xlink:href="#f" transform="matrix(14 0 0 -14 283.4 70.965)" fill="#999"/><use xlink:href="#f" transform="matrix(14 0 0 -14 288.315 70.965)" fill="#999"/><use xlink:href="#f" transform="matrix(14 0 0 -14 293.229 70.965)" fill="#999"/><use xlink:href="#f" transform="matrix(14 0 0 -14 298.143 70.965)" fill="#999"/><use xlink:href="#f" transform="matrix(14 0 0 -14 303.057 70.965)" fill="#999"/><use xlink:href="#f" transform="matrix(14 0 0 -14 307.97 70.965)" fill="#999"/><use xlink:href="#f" transform="matrix(14 0 0 -14 312.885 70.965)" fill="#999"/><use xlink:href="#f" transform="matrix(14 0 0 -14 317.799 70.965)" fill="#999"/><use xlink:href="#f" transform="matrix(14 0 0 -14 322.713 70.965)" fill="#999"/><use xlink:href="#f" transform="matrix(14 0 0 -14 327.627 70.965)" fill="#999"/><use xlink:href="#f" transform="matrix(14 0 0 -14 332.54 70.965)" fill="#999"/><use xlink:href="#f" transform="matrix(14 0 0 -14 337.455 70.965)" fill="#999"/><use xlink:href="#f" transform="matrix(14 0 0 -14 342.369 70.965)" fill="#999"/><use xlink:href="#n" transform="matrix(14 0 0 -14 240.115 71.163)" fill="#999"/><use xlink:href="#k" transform="matrix(14 0 0 -14 250.356 70.965)" fill="#999"/><use xlink:href="#k" transform="matrix(14 0 0 -14 259.918 70.965)" fill="#999"/><use xlink:href="#a" transform="matrix(14 0 0 -14 270.485 71.15)" fill="red"/><use xlink:href="#a" transform="matrix(14 0 0 -14 280.502 71.15)" fill="#999"/><use xlink:href="#f" transform="matrix(14 0 0 -14 289.488 70.965)" fill="#999"/><use xlink:href="#f" transform="matrix(14 0 0 -14 294.402 70.965)" fill="#999"/><use xlink:href="#a" transform="matrix(14 0 0 -14 299.892 71.15)" fill="#999"/><use xlink:href="#a" transform="matrix(14 0 0 -14 309.664 71.15)" fill="#999"/><use xlink:href="#a" transform="matrix(14 0 0 -14 319.436 71.15)" fill="#999"/><use xlink:href="#a" transform="matrix(14 0 0 -14 329.25 71.15)" fill="#999"/><use xlink:href="#a" transform="matrix(14 0 0 -14 339.26 71.15)" fill="#999"/><use xlink:href="#f" transform="matrix(14 0 0 -14 348.246 70.965)" fill="#999"/><use xlink:href="#a" transform="matrix(14 0 0 -14 358.706 71.15)" fill="#999"/><use xlink:href="#n" transform="matrix(14 0 0 -14 368.478 71.163)" fill="#999"/><use xlink:href="#k" transform="matrix(14 0 0 -14 378.72 70.965)" fill="#999"/><use xlink:href="#m" transform="matrix(14 0 0 -14 387.306 70.965)" fill="#999"/><use xlink:href="#m" transform="matrix(14 0 0 -14 395.482 70.965)" fill="#999"/><use xlink:href="#m" transform="matrix(14 0 0 -14 403.644 70.965)" fill="#999"/><use xlink:href="#A" transform="matrix(14 0 0 -14 6.831 88.465)" fill="green"/><use xlink:href="#B" transform="matrix(14 0 0 -14 10.736 88.465)" fill="green"/><use xlink:href="#C" transform="matrix(14 0 0 -14 19.071 88.65)" fill="green"/><use xlink:href="#u" transform="matrix(14 0 0 -14 26.7 88.465)" fill="green"/><symbol id="D"><path d="M.503.379C.503.249.483.153.44.09.401.031.337 0 .251 0c-.087 0-.15.03-.19.093A.534.534 0 000 .378c0 .13.02.225.061.286.04.062.104.093.19.093C.34.757.402.725.442.663a.53.53 0 00.06-.284M.376.157A.323.323 0 01.397.25a1.12 1.12 0 010 .258A.297.297 0 01.374.6a.128.128 0 01-.047.056.137.137 0 01-.076.02.14.14 0 01-.076-.02A.13.13 0 01.128.6.31.31 0 01.105.505a1.276 1.276 0 010-.255A.311.311 0 01.126.16.129.129 0 01.173.1.139.139 0 01.25.08.14.14 0 01.328.1c.02.012.035.032.047.057z"/></symbol><use xlink:href="#f" transform="matrix(14 0 0 -14 34.565 88.465)" fill="#999"/><use xlink:href="#f" transform="matrix(14 0 0 -14 39.479 88.465)" fill="#999"/><use xlink:href="#r" transform="matrix(14 0 0 -14 42.205 88.465)" fill="#999"/><use xlink:href="#s" transform="matrix(14 0 0 -14 50.247 88.465)" fill="#999"/><use xlink:href="#f" transform="matrix(14 0 0 -14 58.085 88.465)" fill="#999"/><use xlink:href="#t" transform="matrix(14 0 0 -14 78.672 88.677)" fill="#999"/><use xlink:href="#r" transform="matrix(14 0 0 -14 88.321 88.465)" fill="#999"/><use xlink:href="#u" transform="matrix(14 0 0 -14 96.411 88.465)" fill="#999"/><use xlink:href="#u" transform="matrix(14 0 0 -14 105.343 88.465)" fill="#999"/><use xlink:href="#v" transform="matrix(14 0 0 -14 113.66 88.465)" fill="#999"/><use xlink:href="#w" transform="matrix(14 0 0 -14 122.96 88.677)" fill="#999"/><use xlink:href="#w" transform="matrix(14 0 0 -14 131.891 88.677)" fill="#999"/><use xlink:href="#D" transform="matrix(14 0 0 -14 140.781 88.677)" fill="#999"/><use xlink:href="#f" transform="matrix(14 0 0 -14 148.735 88.465)" fill="#999"/><use xlink:href="#a" transform="matrix(14 0 0 -14 153.72 88.65)" fill="#999"/><use xlink:href="#f" transform="matrix(14 0 0 -14 162.707 88.465)" fill="#999"/><use xlink:href="#f" transform="matrix(14 0 0 -14 167.62 88.465)" fill="#999"/><use xlink:href="#f" transform="matrix(14 0 0 -14 172.535 88.465)" fill="#999"/><use xlink:href="#a" transform="matrix(14 0 0 -14 179.733 88.65)" fill="#999"/><use xlink:href="#a" transform="matrix(14 0 0 -14 189.505 88.65)" fill="#999"/><use xlink:href="#f" transform="matrix(14 0 0 -14 198.49 88.465)" fill="#999"/><use xlink:href="#f" transform="matrix(14 0 0 -14 203.405 88.465)" fill="#999"/><use xlink:href="#f" transform="matrix(14 0 0 -14 208.319 88.465)" fill="#999"/><use xlink:href="#f" transform="matrix(14 0 0 -14 213.233 88.465)" fill="#999"/><use xlink:href="#f" transform="matrix(14 0 0 -14 218.147 88.465)" fill="#999"/><use xlink:href="#f" transform="matrix(14 0 0 -14 223.06 88.465)" fill="#999"/><use xlink:href="#f" transform="matrix(14 0 0 -14 227.975 88.465)" fill="#999"/><use xlink:href="#f" transform="matrix(14 0 0 -14 232.889 88.465)" fill="#999"/><use xlink:href="#f" transform="matrix(14 0 0 -14 237.803 88.465)" fill="#999"/><use xlink:href="#f" transform="matrix(14 0 0 -14 242.717 88.465)" fill="#999"/><use xlink:href="#f" transform="matrix(14 0 0 -14 247.63 88.465)" fill="#999"/><use xlink:href="#f" transform="matrix(14 0 0 -14 252.545 88.465)" fill="#999"/><use xlink:href="#f" transform="matrix(14 0 0 -14 257.459 88.465)" fill="#999"/><use xlink:href="#f" transform="matrix(14 0 0 -14 262.373 88.465)" fill="#999"/><use xlink:href="#f" transform="matrix(14 0 0 -14 267.287 88.465)" fill="#999"/><use xlink:href="#f" transform="matrix(14 0 0 -14 272.2 88.465)" fill="#999"/><use xlink:href="#f" transform="matrix(14 0 0 -14 277.115 88.465)" fill="#999"/><use xlink:href="#f" transform="matrix(14 0 0 -14 282.029 88.465)" fill="#999"/><use xlink:href="#f" transform="matrix(14 0 0 -14 286.943 88.465)" fill="#999"/><use xlink:href="#f" transform="matrix(14 0 0 -14 291.857 88.465)" fill="#999"/><use xlink:href="#f" transform="matrix(14 0 0 -14 296.77 88.465)" fill="#999"/><use xlink:href="#f" transform="matrix(14 0 0 -14 301.685 88.465)" fill="#999"/><use xlink:href="#f" transform="matrix(14 0 0 -14 306.599 88.465)" fill="#999"/><use xlink:href="#f" transform="matrix(14 0 0 -14 311.513 88.465)" fill="#999"/><use xlink:href="#f" transform="matrix(14 0 0 -14 316.427 88.465)" fill="#999"/><use xlink:href="#f" transform="matrix(14 0 0 -14 210.447 88.465)" fill="#999"/><use xlink:href="#f" transform="matrix(14 0 0 -14 241.793 88.465)" fill="#999"/><use xlink:href="#f" transform="matrix(14 0 0 -14 246.707 88.465)" fill="#999"/><use xlink:href="#f" transform="matrix(14 0 0 -14 251.62 88.465)" fill="#999"/><use xlink:href="#f" transform="matrix(14 0 0 -14 256.535 88.465)" fill="#999"/><use xlink:href="#f" transform="matrix(14 0 0 -14 261.449 88.465)" fill="#999"/><use xlink:href="#f" transform="matrix(14 0 0 -14 266.363 88.465)" fill="#999"/><use xlink:href="#n" transform="matrix(14 0 0 -14 240.059 88.663)" fill="#999"/><use xlink:href="#k" transform="matrix(14 0 0 -14 250.3 88.465)" fill="#999"/><use xlink:href="#k" transform="matrix(14 0 0 -14 259.863 88.465)" fill="#999"/><use xlink:href="#f" transform="matrix(14 0 0 -14 269.247 88.465)" fill="#999"/><use xlink:href="#f" transform="matrix(14 0 0 -14 274.16 88.465)" fill="#999"/><use xlink:href="#a" transform="matrix(14 0 0 -14 279.86 88.65)" fill="#999"/><use xlink:href="#a" transform="matrix(14 0 0 -14 290.102 88.65)" fill="red"/><use xlink:href="#a" transform="matrix(14 0 0 -14 300.12 88.65)" fill="#999"/><use xlink:href="#a" transform="matrix(14 0 0 -14 309.892 88.65)" fill="#999"/><use xlink:href="#a" transform="matrix(14 0 0 -14 319.664 88.65)" fill="#999"/><use xlink:href="#a" transform="matrix(14 0 0 -14 329.478 88.65)" fill="#999"/><use xlink:href="#a" transform="matrix(14 0 0 -14 339.25 88.65)" fill="#999"/><use xlink:href="#f" transform="matrix(14 0 0 -14 348.236 88.465)" fill="#999"/><use xlink:href="#a" transform="matrix(14 0 0 -14 358.71 88.65)" fill="#999"/><use xlink:href="#n" transform="matrix(14 0 0 -14 368.482 88.663)" fill="#999"/><use xlink:href="#k" transform="matrix(14 0 0 -14 378.724 88.465)" fill="#999"/><use xlink:href="#m" transform="matrix(14 0 0 -14 387.31 88.465)" fill="#999"/><use xlink:href="#m" transform="matrix(14 0 0 -14 395.486 88.465)" fill="#999"/><use xlink:href="#m" transform="matrix(14 0 0 -14 403.648 88.465)" fill="#999"/><use xlink:href="#A" transform="matrix(14 0 0 -14 6.831 105.965)" fill="#d40000"/><use xlink:href="#B" transform="matrix(14 0 0 -14 10.736 105.965)" fill="#d40000"/><use xlink:href="#C" transform="matrix(14 0 0 -14 19.071 106.15)" fill="#d40000"/><use xlink:href="#t" transform="matrix(14 0 0 -14 26.74 106.177)" fill="#d40000"/><use xlink:href="#f" transform="matrix(14 0 0 -14 34.565 105.965)" fill="#999"/><use xlink:href="#r" transform="matrix(14 0 0 -14 42.121 105.965)" fill="#999"/><use xlink:href="#s" transform="matrix(14 0 0 -14 50.163 105.965)" fill="#999"/><use xlink:href="#f" transform="matrix(14 0 0 -14 58 105.965)" fill="#999"/><use xlink:href="#t" transform="matrix(14 0 0 -14 78.98 106.177)" fill="#999"/><use xlink:href="#r" transform="matrix(14 0 0 -14 88.63 105.965)" fill="#999"/><use xlink:href="#u" transform="matrix(14 0 0 -14 96.72 105.965)" fill="#999"/><use xlink:href="#u" transform="matrix(14 0 0 -14 105.651 105.965)" fill="#999"/><use xlink:href="#v" transform="matrix(14 0 0 -14 113.967 105.965)" fill="#999"/><use xlink:href="#w" transform="matrix(14 0 0 -14 123.267 106.177)" fill="#999"/><use xlink:href="#w" transform="matrix(14 0 0 -14 132.157 106.177)" fill="#999"/><use xlink:href="#x" transform="matrix(14 0 0 -14 141.431 106.177)" fill="#999"/><use xlink:href="#f" transform="matrix(14 0 0 -14 149.043 105.965)" fill="#999"/><use xlink:href="#a" transform="matrix(14 0 0 -14 153.65 106.15)" fill="#999"/><use xlink:href="#f" transform="matrix(14 0 0 -14 162.637 105.965)" fill="#999"/><use xlink:href="#f" transform="matrix(14 0 0 -14 167.55 105.965)" fill="#999"/><use xlink:href="#f" transform="matrix(14 0 0 -14 172.465 105.965)" fill="#999"/><use xlink:href="#a" transform="matrix(14 0 0 -14 180.04 106.15)" fill="#999"/><use xlink:href="#a" transform="matrix(14 0 0 -14 189.813 106.15)" fill="#999"/><use xlink:href="#f" transform="matrix(14 0 0 -14 198.799 105.965)" fill="#999"/><use xlink:href="#f" transform="matrix(14 0 0 -14 203.713 105.965)" fill="#999"/><use xlink:href="#f" transform="matrix(14 0 0 -14 208.627 105.965)" fill="#999"/><use xlink:href="#f" transform="matrix(14 0 0 -14 239.623 105.965)" fill="#999"/><use xlink:href="#f" transform="matrix(14 0 0 -14 244.537 105.965)" fill="#999"/><use xlink:href="#f" transform="matrix(14 0 0 -14 249.45 105.965)" fill="#999"/><use xlink:href="#f" transform="matrix(14 0 0 -14 254.365 105.965)" fill="#999"/><use xlink:href="#f" transform="matrix(14 0 0 -14 259.279 105.965)" fill="#999"/><use xlink:href="#f" transform="matrix(14 0 0 -14 264.193 105.965)" fill="#999"/><use xlink:href="#f" transform="matrix(14 0 0 -14 269.107 105.965)" fill="#999"/><use xlink:href="#f" transform="matrix(14 0 0 -14 274.02 105.965)" fill="#999"/><use xlink:href="#f" transform="matrix(14 0 0 -14 279.159 105.965)" fill="#999"/><use xlink:href="#f" transform="matrix(14 0 0 -14 284.073 105.965)" fill="#999"/><use xlink:href="#f" transform="matrix(14 0 0 -14 288.987 105.965)" fill="#999"/><use xlink:href="#f" transform="matrix(14 0 0 -14 293.9 105.965)" fill="#999"/><use xlink:href="#f" transform="matrix(14 0 0 -14 298.815 105.965)" fill="#999"/><use xlink:href="#f" transform="matrix(14 0 0 -14 303.729 105.965)" fill="#999"/><use xlink:href="#f" transform="matrix(14 0 0 -14 308.643 105.965)" fill="#999"/><use xlink:href="#f" transform="matrix(14 0 0 -14 313.557 105.965)" fill="#999"/><use xlink:href="#f" transform="matrix(14 0 0 -14 318.47 105.965)" fill="#999"/><use xlink:href="#f" transform="matrix(14 0 0 -14 323.385 105.965)" fill="#999"/><use xlink:href="#n" transform="matrix(14 0 0 -14 240.129 106.163)" fill="#999"/><use xlink:href="#k" transform="matrix(14 0 0 -14 250.37 105.965)" fill="#999"/><use xlink:href="#k" transform="matrix(14 0 0 -14 259.933 105.965)" fill="#999"/><use xlink:href="#f" transform="matrix(14 0 0 -14 269.317 105.965)" fill="#999"/><use xlink:href="#f" transform="matrix(14 0 0 -14 274.23 105.965)" fill="#999"/><use xlink:href="#a" transform="matrix(14 0 0 -14 280.155 106.15)" fill="#999"/><use xlink:href="#f" transform="matrix(14 0 0 -14 289.14 105.965)" fill="#999"/><use xlink:href="#f" transform="matrix(14 0 0 -14 294.055 105.965)" fill="#999"/><use xlink:href="#a" transform="matrix(14 0 0 -14 299.755 106.15)" fill="#999"/><use xlink:href="#a" transform="matrix(14 0 0 -14 309.527 106.15)" fill="#999"/><use xlink:href="#a" transform="matrix(14 0 0 -14 319.341 106.15)" fill="#999"/><use xlink:href="#a" transform="matrix(14 0 0 -14 329.113 106.15)" fill="#999"/><use xlink:href="#a" transform="matrix(14 0 0 -14 338.885 106.15)" fill="#999"/><use xlink:href="#a" transform="matrix(14 0 0 -14 349.097 106.15)" fill="red"/><use xlink:href="#a" transform="matrix(14 0 0 -14 359.115 106.15)" fill="#999"/><use xlink:href="#n" transform="matrix(14 0 0 -14 368.887 106.163)" fill="#999"/><use xlink:href="#k" transform="matrix(14 0 0 -14 379.128 105.965)" fill="#999"/><use xlink:href="#m" transform="matrix(14 0 0 -14 387.7 105.965)" fill="#999"/><use xlink:href="#m" transform="matrix(14 0 0 -14 395.877 105.965)" fill="#999"/><use xlink:href="#m" transform="matrix(14 0 0 -14 404.053 105.965)" fill="#999"/><use xlink:href="#o" transform="matrix(14 0 0 -14 6.373 123.677)" fill="#aad400"/><use xlink:href="#p" transform="matrix(14 0 0 -14 15.082 123.642)" fill="#aad400"/><use xlink:href="#q" transform="matrix(14 0 0 -14 23.965 123.465)" fill="#aad400"/><use xlink:href="#u" transform="matrix(14 0 0 -14 27.624 123.465)" fill="#aad400"/><use xlink:href="#f" transform="matrix(14 0 0 -14 35.467 123.465)" fill="#999"/><use xlink:href="#r" transform="matrix(14 0 0 -14 42.281 123.465)" fill="#999"/><use xlink:href="#s" transform="matrix(14 0 0 -14 50.324 123.465)" fill="#999"/><use xlink:href="#f" transform="matrix(14 0 0 -14 58.161 123.465)" fill="#999"/><use xlink:href="#t" transform="matrix(14 0 0 -14 78.763 123.677)" fill="#999"/><use xlink:href="#r" transform="matrix(14 0 0 -14 88.411 123.465)" fill="#999"/><use xlink:href="#u" transform="matrix(14 0 0 -14 96.502 123.465)" fill="#999"/><use xlink:href="#u" transform="matrix(14 0 0 -14 105.434 123.465)" fill="#999"/><use xlink:href="#v" transform="matrix(14 0 0 -14 113.75 123.465)" fill="#999"/><use xlink:href="#w" transform="matrix(14 0 0 -14 123.05 123.677)" fill="#999"/><use xlink:href="#w" transform="matrix(14 0 0 -14 131.982 123.677)" fill="#999"/><use xlink:href="#x" transform="matrix(14 0 0 -14 141.213 123.677)" fill="#999"/><use xlink:href="#f" transform="matrix(14 0 0 -14 148.825 123.465)" fill="#999"/><use xlink:href="#f" transform="matrix(14 0 0 -14 153.39 123.465)" fill="#999"/><use xlink:href="#a" transform="matrix(14 0 0 -14 153.881 123.65)" fill="#999"/><use xlink:href="#a" transform="matrix(14 0 0 -14 163.653 123.65)" fill="#999"/><use xlink:href="#f" transform="matrix(14 0 0 -14 172.64 123.465)" fill="#999"/><use xlink:href="#a" transform="matrix(14 0 0 -14 179.851 123.65)" fill="#999"/><use xlink:href="#f" transform="matrix(14 0 0 -14 188.837 123.465)" fill="#999"/><use xlink:href="#f" transform="matrix(14 0 0 -14 193.751 123.465)" fill="#999"/><use xlink:href="#f" transform="matrix(14 0 0 -14 198.665 123.465)" fill="#999"/><use xlink:href="#f" transform="matrix(14 0 0 -14 203.58 123.465)" fill="#999"/><use xlink:href="#f" transform="matrix(14 0 0 -14 208.493 123.465)" fill="#999"/><use xlink:href="#f" transform="matrix(14 0 0 -14 239.111 123.465)" fill="#999"/><use xlink:href="#f" transform="matrix(14 0 0 -14 244.025 123.465)" fill="#999"/><use xlink:href="#f" transform="matrix(14 0 0 -14 248.94 123.465)" fill="#999"/><use xlink:href="#f" transform="matrix(14 0 0 -14 253.853 123.465)" fill="#999"/><use xlink:href="#f" transform="matrix(14 0 0 -14 258.767 123.465)" fill="#999"/><use xlink:href="#f" transform="matrix(14 0 0 -14 263.681 123.465)" fill="#999"/><use xlink:href="#f" transform="matrix(14 0 0 -14 268.595 123.465)" fill="#999"/><use xlink:href="#f" transform="matrix(14 0 0 -14 273.51 123.465)" fill="#999"/><use xlink:href="#f" transform="matrix(14 0 0 -14 278.423 123.465)" fill="#999"/><use xlink:href="#f" transform="matrix(14 0 0 -14 283.337 123.465)" fill="#999"/><use xlink:href="#f" transform="matrix(14 0 0 -14 288.251 123.465)" fill="#999"/><use xlink:href="#f" transform="matrix(14 0 0 -14 293.165 123.465)" fill="#999"/><use xlink:href="#f" transform="matrix(14 0 0 -14 298.08 123.465)" fill="#999"/><use xlink:href="#f" transform="matrix(14 0 0 -14 302.993 123.465)" fill="#999"/><use xlink:href="#f" transform="matrix(14 0 0 -14 307.907 123.465)" fill="#999"/><use xlink:href="#f" transform="matrix(14 0 0 -14 312.821 123.465)" fill="#999"/><use xlink:href="#f" transform="matrix(14 0 0 -14 317.735 123.465)" fill="#999"/><use xlink:href="#f" transform="matrix(14 0 0 -14 322.65 123.465)" fill="#999"/><use xlink:href="#f" transform="matrix(14 0 0 -14 327.563 123.465)" fill="#999"/><use xlink:href="#f" transform="matrix(14 0 0 -14 332.477 123.465)" fill="#999"/><use xlink:href="#f" transform="matrix(14 0 0 -14 337.391 123.465)" fill="#999"/><use xlink:href="#f" transform="matrix(14 0 0 -14 342.305 123.465)" fill="#999"/><use xlink:href="#f" transform="matrix(14 0 0 -14 347.22 123.465)" fill="#999"/><use xlink:href="#n" transform="matrix(14 0 0 -14 239.757 123.663)" fill="#999"/><use xlink:href="#k" transform="matrix(14 0 0 -14 249.999 123.465)" fill="#999"/><use xlink:href="#k" transform="matrix(14 0 0 -14 259.56 123.465)" fill="#999"/><use xlink:href="#f" transform="matrix(14 0 0 -14 268.945 123.465)" fill="#999"/><use xlink:href="#f" transform="matrix(14 0 0 -14 273.86 123.465)" fill="#999"/><use xlink:href="#a" transform="matrix(14 0 0 -14 280.021 123.65)" fill="#999"/><use xlink:href="#f" transform="matrix(14 0 0 -14 289.007 123.465)" fill="#999"/><use xlink:href="#f" transform="matrix(14 0 0 -14 293.921 123.465)" fill="#999"/><use xlink:href="#a" transform="matrix(14 0 0 -14 299.86 123.65)" fill="#999"/><use xlink:href="#a" transform="matrix(14 0 0 -14 309.631 123.65)" fill="#999"/><use xlink:href="#a" transform="matrix(14 0 0 -14 319.403 123.65)" fill="#999"/><use xlink:href="#a" transform="matrix(14 0 0 -14 329.217 123.65)" fill="#999"/><use xlink:href="#a" transform="matrix(14 0 0 -14 338.99 123.65)" fill="#999"/><use xlink:href="#f" transform="matrix(14 0 0 -14 347.975 123.465)" fill="#999"/><use xlink:href="#f" transform="matrix(14 0 0 -14 352.89 123.465)" fill="#999"/><use xlink:href="#f" transform="matrix(14 0 0 -14 361.704 123.465)" fill="red"/><use xlink:href="#z" transform="matrix(14 0 0 -14 361.364 119.63)" fill="red"/><use xlink:href="#f" transform="matrix(14 0 0 -14 366.703 123.465)" fill="#999"/><use xlink:href="#n" transform="matrix(14 0 0 -14 368.735 123.663)" fill="#999"/><use xlink:href="#k" transform="matrix(14 0 0 -14 378.977 123.465)" fill="#999"/><use xlink:href="#m" transform="matrix(14 0 0 -14 387.535 123.465)" fill="#999"/><use xlink:href="#m" transform="matrix(14 0 0 -14 395.711 123.465)" fill="#999"/><use xlink:href="#m" transform="matrix(14 0 0 -14 403.887 123.465)" fill="#999"/><use xlink:href="#t" transform="matrix(10 0 0 -10 218.95 10.67)" fill="#4d4d4d"/><use xlink:href="#r" transform="matrix(10 0 0 -10 225.842 10.518)" fill="#4d4d4d"/><use xlink:href="#u" transform="matrix(10 0 0 -10 231.62 10.518)" fill="#4d4d4d"/><use xlink:href="#u" transform="matrix(10 0 0 -10 238 10.518)" fill="#4d4d4d"/><use xlink:href="#w" transform="matrix(10 0 0 -10 244.234 10.67)" fill="#4d4d4d"/><use xlink:href="#v" transform="matrix(10 0 0 -10 250.29 10.518)" fill="#4d4d4d"/><use xlink:href="#x" transform="matrix(10 0 0 -10 257.208 10.67)" fill="#4d4d4d"/><use xlink:href="#y" transform="matrix(10 0 0 -10 263.196 10.66)" fill="#4d4d4d"/><path stroke-width=".751" fill="none" stroke="#00000c" stroke-opacity=".307" d="M266.25 14.145v11.25M285 14.145v11.25M345 14.145v11.25"/><use xlink:href="#w" transform="matrix(10 0 0 -10 277.779 10.177)" fill="#4d4d4d"/><use xlink:href="#D" transform="matrix(10 0 0 -10 284.129 10.177)" fill="#4d4d4d"/><use xlink:href="#w" transform="matrix(10 0 0 -10 337.149 10.177)" fill="#4d4d4d"/><use xlink:href="#x" transform="matrix(10 0 0 -10 343.743 10.177)" fill="#4d4d4d"/></svg>