<svg xmlns="http://www.w3.org/2000/svg" xmlns:xlink="http://www.w3.org/1999/xlink" width="539.792" height="174.236" viewBox="0 0 404.844 130.677"><use xlink:href="#a" transform="matrix(18 0 0 -18 15.893 13.02)"/><use xlink:href="#a" transform="matrix(18 0 0 -18 20.393 13.02)"/><use xlink:href="#a" transform="matrix(18 0 0 -18 23.057 13.02)"/><use xlink:href="#a" transform="matrix(18 0 0 -18 27.557 13.02)"/><use xlink:href="#a" transform="matrix(18 0 0 -18 32.057 13.02)"/><use xlink:href="#a" transform="matrix(18 0 0 -18 36.557 13.02)"/><use xlink:href="#a" transform="matrix(18 0 0 -18 41.057 13.02)"/><symbol id="b"><path d="M.01.548A.268.268 0 00.082.65a.162.162 0 00.107.036.149.149 0 00.123-.051.127.127 0 00.032-.083c0-.048-.03-.098-.091-.15A.197.197 0 00.345.336.177.177 0 00.376.231.22.22 0 00.322.082C.274.027.205 0 .115 0 .071 0 .04.006.024.017.008.027 0 .04 0 .052c0 .01.004.018.011.025a.04.04 0 00.028.01.084.084 0 00.025-.003.285.285 0 00.038-.018.245.245 0 01.04-.018.135.135 0 01.039-.006c.033 0 .062.013.086.04a.127.127 0 01.037.09A.176.176 0 01.26.29a.199.199 0 01-.057.035.184.184 0 01-.075.016H.111v.015a.2.2 0 01.077.028.147.147 0 01.057.055.145.145 0 01.018.07.108.108 0 01-.11.113C.103.621.06.594.026.54L.01.548z"/></symbol><symbol id="c"><path d="M.013 0v.018c.043 0 .082.01.118.03.037.019.072.052.106.1.034.047.058.1.071.156A.263.263 0 00.17.254.157.157 0 00.05.31.204.204 0 000 .452c0 .058.017.11.05.155a.185.185 0 00.296.015.306.306 0 00.071-.206A.411.411 0 00.363.21a.458.458 0 00-.15-.158A.305.305 0 00.04 0H.013m.303.34a.78.78 0 01.009.102.362.362 0 01-.016.102.191.191 0 01-.046.084.092.092 0 01-.067.03.097.097 0 01-.076-.04C.098.594.087.555.087.503.087.434.1.38.13.342A.095.095 0 01.208.298C.223.3.241.303.262.31.282.317.3.327.316.34z"/></symbol><symbol id="d"><path d="M0 .597l.161.079h.016v-.56C.177.08.18.057.182.048a.037.037 0 01.02-.02A.164.164 0 01.26.017V0H.01v.018c.032 0 .052.003.061.008.01.005.016.011.02.019a.262.262 0 01.005.072v.357c0 .048-.002.08-.005.093A.038.038 0 01.079.59a.032.032 0 01-.021.007.13.13 0 01-.05-.015L0 .597z"/></symbol><symbol id="e"><path d="M.386.674L.348.59h-.2L.106.502A.349.349 0 00.311.406.216.216 0 00.375.25.22.22 0 00.354.153.257.257 0 00.229.027.264.264 0 00.114 0C.074 0 .045.007.027.02.009.034 0 .049 0 .065c0 .01.004.017.011.024a.04.04 0 00.029.01.056.056 0 00.022-.003.198.198 0 00.032-.02A.13.13 0 01.168.05c.039 0 .072.015.1.043A.144.144 0 01.313.2c0 .04-.013.077-.039.112a.247.247 0 01-.106.08.432.432 0 01-.145.026l.127.257h.237z"/></symbol><use xlink:href="#b" transform="matrix(10 0 0 -10 44.583 13.136)"/><use xlink:href="#a" transform="matrix(10 0 0 -10 49.178 13.02)"/><use xlink:href="#a" transform="matrix(10 0 0 -10 51.678 13.02)"/><use xlink:href="#a" transform="matrix(10 0 0 -10 54.178 13.02)"/><use xlink:href="#a" transform="matrix(10 0 0 -10 56.678 13.02)"/><use xlink:href="#a" transform="matrix(10 0 0 -10 59.178 13.02)"/><use xlink:href="#a" transform="matrix(10 0 0 -10 61.678 13.02)"/><use xlink:href="#a" transform="matrix(10 0 0 -10 64.178 13.02)"/><use xlink:href="#a" transform="matrix(10 0 0 -10 66.678 13.02)"/><use xlink:href="#a" transform="matrix(10 0 0 -10 69.178 13.02)"/><use xlink:href="#a" transform="matrix(10 0 0 -10 71.678 13.02)"/><use xlink:href="#a" transform="matrix(10 0 0 -10 74.178 13.02)"/><use xlink:href="#a" transform="matrix(10 0 0 -10 76.678 13.02)"/><use xlink:href="#a" transform="matrix(10 0 0 -10 79.178 13.02)"/><use xlink:href="#a" transform="matrix(10 0 0 -10 81.678 13.02)"/><use xlink:href="#a" transform="matrix(10 0 0 -10 84.178 13.02)"/><use xlink:href="#a" transform="matrix(10 0 0 -10 86.678 13.02)"/><use xlink:href="#a" transform="matrix(10 0 0 -10 89.178 13.02)"/><use xlink:href="#a" transform="matrix(10 0 0 -10 91.678 13.02)"/><use xlink:href="#a" transform="matrix(10 0 0 -10 94.178 13.02)"/><use xlink:href="#a" transform="matrix(10 0 0 -10 96.678 13.02)"/><use xlink:href="#a" transform="matrix(10 0 0 -10 99.178 13.02)"/><use xlink:href="#a" transform="matrix(10 0 0 -10 101.678 13.02)"/><use xlink:href="#a" transform="matrix(10 0 0 -10 104.178 13.02)"/><use xlink:href="#a" transform="matrix(10 0 0 -10 106.678 13.02)"/><use xlink:href="#a" transform="matrix(10 0 0 -10 109.178 13.02)"/><use xlink:href="#a" transform="matrix(10 0 0 -10 111.678 13.02)"/><use xlink:href="#a" transform="matrix(10 0 0 -10 114.178 13.02)"/><use xlink:href="#a" transform="matrix(10 0 0 -10 116.678 13.02)"/><use xlink:href="#c" transform="matrix(10 0 0 -10 119.573 13.156)"/><use xlink:href="#a" transform="matrix(10 0 0 -10 124.178 13.02)"/><use xlink:href="#a" transform="matrix(10 0 0 -10 126.678 13.02)"/><use xlink:href="#a" transform="matrix(10 0 0 -10 129.178 13.02)"/><use xlink:href="#a" transform="matrix(10 0 0 -10 131.678 13.02)"/><use xlink:href="#a" transform="matrix(10 0 0 -10 134.178 13.02)"/><use xlink:href="#a" transform="matrix(10 0 0 -10 136.678 13.02)"/><use xlink:href="#a" transform="matrix(10 0 0 -10 139.178 13.02)"/><use xlink:href="#a" transform="matrix(10 0 0 -10 141.678 13.02)"/><use xlink:href="#a" transform="matrix(10 0 0 -10 144.178 13.02)"/><use xlink:href="#a" transform="matrix(10 0 0 -10 146.678 13.02)"/><use xlink:href="#a" transform="matrix(10 0 0 -10 149.178 13.02)"/><use xlink:href="#a" transform="matrix(10 0 0 -10 151.678 13.02)"/><use xlink:href="#a" transform="matrix(10 0 0 -10 154.178 13.02)"/><use xlink:href="#a" transform="matrix(10 0 0 -10 156.678 13.02)"/><use xlink:href="#a" transform="matrix(10 0 0 -10 159.178 13.02)"/><use xlink:href="#a" transform="matrix(10 0 0 -10 161.678 13.02)"/><use xlink:href="#a" transform="matrix(10 0 0 -10 164.178 13.02)"/><use xlink:href="#a" transform="matrix(10 0 0 -10 166.678 13.02)"/><use xlink:href="#a" transform="matrix(10 0 0 -10 169.178 13.02)"/><use xlink:href="#a" transform="matrix(10 0 0 -10 171.678 13.02)"/><use xlink:href="#a" transform="matrix(10 0 0 -10 174.178 13.02)"/><use xlink:href="#a" transform="matrix(10 0 0 -10 176.678 13.02)"/><use xlink:href="#a" transform="matrix(10 0 0 -10 179.178 13.02)"/><use xlink:href="#a" transform="matrix(10 0 0 -10 181.678 13.02)"/><use xlink:href="#a" transform="matrix(10 0 0 -10 184.178 13.02)"/><use xlink:href="#a" transform="matrix(10 0 0 -10 186.678 13.02)"/><use xlink:href="#a" transform="matrix(10 0 0 -10 189.178 13.02)"/><use xlink:href="#a" transform="matrix(10 0 0 -10 191.678 13.02)"/><use xlink:href="#a" transform="matrix(10 0 0 -10 194.178 13.02)"/><use xlink:href="#a" transform="matrix(10 0 0 -10 196.678 13.02)"/><use xlink:href="#a" transform="matrix(10 0 0 -10 199.178 13.02)"/><use xlink:href="#a" transform="matrix(10 0 0 -10 201.678 13.02)"/><use xlink:href="#a" transform="matrix(10 0 0 -10 204.178 13.02)"/><use xlink:href="#a" transform="matrix(10 0 0 -10 206.678 13.02)"/><use xlink:href="#a" transform="matrix(10 0 0 -10 209.178 13.02)"/><use xlink:href="#a" transform="matrix(10 0 0 -10 211.678 13.02)"/><use xlink:href="#a" transform="matrix(10 0 0 -10 214.178 13.02)"/><use xlink:href="#d" transform="matrix(10 0 0 -10 215.09 13.02)"/><use xlink:href="#d" transform="matrix(10 0 0 -10 219.72 13.02)"/><use xlink:href="#a" transform="matrix(10 0 0 -10 223.548 13.02)"/><use xlink:href="#a" transform="matrix(10 0 0 -10 226.048 13.02)"/><use xlink:href="#a" transform="matrix(10 0 0 -10 228.548 13.02)"/><use xlink:href="#a" transform="matrix(10 0 0 -10 231.048 13.02)"/><use xlink:href="#a" transform="matrix(10 0 0 -10 233.548 13.02)"/><use xlink:href="#a" transform="matrix(10 0 0 -10 236.048 13.02)"/><use xlink:href="#a" transform="matrix(10 0 0 -10 238.548 13.02)"/><use xlink:href="#a" transform="matrix(10 0 0 -10 241.048 13.02)"/><use xlink:href="#a" transform="matrix(10 0 0 -10 243.548 13.02)"/><use xlink:href="#a" transform="matrix(10 0 0 -10 246.048 13.02)"/><use xlink:href="#a" transform="matrix(10 0 0 -10 248.548 13.02)"/><use xlink:href="#a" transform="matrix(10 0 0 -10 251.048 13.02)"/><use xlink:href="#a" transform="matrix(10 0 0 -10 253.548 13.02)"/><use xlink:href="#a" transform="matrix(10 0 0 -10 256.048 13.02)"/><use xlink:href="#a" transform="matrix(10 0 0 -10 258.548 13.02)"/><use xlink:href="#a" transform="matrix(10 0 0 -10 261.048 13.02)"/><use xlink:href="#a" transform="matrix(10 0 0 -10 263.548 13.02)"/><use xlink:href="#a" transform="matrix(10 0 0 -10 266.048 13.02)"/><use xlink:href="#d" transform="matrix(10 0 0 -10 265.13 13.02)"/><use xlink:href="#e" transform="matrix(10 0 0 -10 269.436 13.136)"/><use xlink:href="#a" transform="matrix(10 0 0 -10 273.958 13.02)"/><use xlink:href="#a" transform="matrix(10 0 0 -10 276.458 13.02)"/><use xlink:href="#a" transform="matrix(10 0 0 -10 278.958 13.02)"/><use xlink:href="#a" transform="matrix(10 0 0 -10 281.458 13.02)"/><use xlink:href="#a" transform="matrix(10 0 0 -10 283.958 13.02)"/><use xlink:href="#a" transform="matrix(10 0 0 -10 286.458 13.02)"/><use xlink:href="#a" transform="matrix(10 0 0 -10 288.958 13.02)"/><use xlink:href="#a" transform="matrix(10 0 0 -10 291.458 13.02)"/><use xlink:href="#a" transform="matrix(10 0 0 -10 293.958 13.02)"/><use xlink:href="#a" transform="matrix(10 0 0 -10 296.458 13.02)"/><use xlink:href="#a" transform="matrix(10 0 0 -10 298.958 13.02)"/><use xlink:href="#a" transform="matrix(10 0 0 -10 301.458 13.02)"/><use xlink:href="#a" transform="matrix(10 0 0 -10 303.958 13.02)"/><use xlink:href="#a" transform="matrix(10 0 0 -10 306.458 13.02)"/><use xlink:href="#a" transform="matrix(10 0 0 -10 308.958 13.02)"/><use xlink:href="#a" transform="matrix(10 0 0 -10 311.458 13.02)"/><use xlink:href="#a" transform="matrix(10 0 0 -10 313.958 13.02)"/><use xlink:href="#a" transform="matrix(10 0 0 -10 316.458 13.02)"/><use xlink:href="#a" transform="matrix(10 0 0 -10 318.958 13.02)"/><use xlink:href="#a" transform="matrix(10 0 0 -10 321.458 13.02)"/><use xlink:href="#a" transform="matrix(10 0 0 -10 323.958 13.02)"/><use xlink:href="#a" transform="matrix(10 0 0 -10 326.458 13.02)"/><use xlink:href="#a" transform="matrix(10 0 0 -10 328.958 13.02)"/><use xlink:href="#a" transform="matrix(10 0 0 -10 331.458 13.02)"/><use xlink:href="#a" transform="matrix(10 0 0 -10 333.958 13.02)"/><use xlink:href="#a" transform="matrix(10 0 0 -10 336.458 13.02)"/><use xlink:href="#a" transform="matrix(10 0 0 -10 338.958 13.02)"/><use xlink:href="#a" transform="matrix(10 0 0 -10 341.458 13.02)"/><use xlink:href="#a" transform="matrix(10 0 0 -10 343.958 13.02)"/><use xlink:href="#a" transform="matrix(10 0 0 -10 346.458 13.02)"/><use xlink:href="#a" transform="matrix(10 0 0 -10 348.958 13.02)"/><use xlink:href="#a" transform="matrix(10 0 0 -10 351.458 13.02)"/><use xlink:href="#a" transform="matrix(10 0 0 -10 353.958 13.02)"/><symbol id="f"><path d="M.579.692L.596.483H.579a.286.286 0 01-.067.118.21.21 0 01-.152.057.216.216 0 01-.193-.1.36.36 0 01-.055-.201c0-.063.013-.12.037-.173A.26.26 0 01.245.07.233.233 0 01.438.042.282.282 0 01.502.07V.26a.17.17 0 01-.007.065.048.048 0 01-.024.024.13.13 0 01-.055.008v.018h.256V.358H.66C.635.358.618.349.608.333A.171.171 0 01.598.26V.06A.485.485 0 00.367 0C.238 0 .141.041.075.123A.329.329 0 000 .336C0 .394.014.45.042.503A.359.359 0 00.179.65.335.335 0 00.35.692.335.335 0 00.416.687.595.595 0 00.5.66.135.135 0 01.537.65c.006 0 .011.002.015.008.005.006.008.017.009.033h.018z"/></symbol><symbol id="g"><path d="M.566.692L.58.467H.566a.283.283 0 01-.087.146.21.21 0 01-.134.044.218.218 0 01-.12-.033.221.221 0 01-.083-.107.479.479 0 01-.03-.182C.111.275.12.223.14.179a.216.216 0 01.087-.1.25.25 0 01.132-.036c.043 0 .08.01.114.027A.379.379 0 01.58.18L.596.17A.348.348 0 00.48.041.294.294 0 00.322 0C.212 0 .128.04.067.122A.349.349 0 000 .336a.38.38 0 00.044.182.33.33 0 00.292.174A.312.312 0 00.48.657a.077.077 0 01.029-.01C.517.646.524.65.53.655a.076.076 0 01.018.036h.017z"/></symbol><symbol id="h"><path d="M.548.662L.556.507H.537a.188.188 0 01-.015.058.096.096 0 01-.04.042.137.137 0 01-.066.014H.323V.115c0-.04.004-.066.013-.076.012-.014.031-.02.057-.02h.023V0h-.28v.018h.023c.028 0 .048.009.06.025.006.01.01.035.01.072V.62h-.08A.222.222 0 01.083.614.09.09 0 01.04.578.144.144 0 01.019.507H0l.008.155h.54z"/></symbol><use xlink:href="#f" transform="matrix(18 0 0 -18 16.526 31.292)"/><use xlink:href="#g" transform="matrix(18 0 0 -18 29.54 31.292)"/><use xlink:href="#h" transform="matrix(18 0 0 -18 41.422 31.02)"/><use xlink:href="#a" transform="matrix(18 0 0 -18 51.57 31.02)"/><symbol id="i"><path d="M0 .074h.252V0H0v.074z"/></symbol><use xlink:href="#i" transform="matrix(18 0 0 -18 55.923 27.644)" fill="red"/><symbol id="j"><path d="M.45.222H.193L.148.117A.165.165 0 01.132.06c0-.01.005-.02.014-.027C.156.025.176.02.208.018V0H0v.018c.028.005.046.011.054.02a.3.3 0 01.055.094l.233.545h.017l.23-.55A.258.258 0 01.64.04.105.105 0 01.704.018V0H.442v.018C.468.02.486.024.495.031.505.04.51.048.51.06a.202.202 0 01-.02.067L.45.222M.437.258L.324.525.208.258h.228z"/></symbol><use xlink:href="#a" transform="matrix(18 0 0 -18 61.205 31.02)"/><use xlink:href="#g" transform="matrix(18 0 0 -18 64.591 31.292)"/><use xlink:href="#f" transform="matrix(18 0 0 -18 76.562 31.292)"/><use xlink:href="#j" transform="matrix(18 0 0 -18 89.066 31.02)"/><use xlink:href="#f" transform="matrix(18 0 0 -18 102.554 31.292)"/><use xlink:href="#f" transform="matrix(18 0 0 -18 115.604 31.292)"/><use xlink:href="#j" transform="matrix(18 0 0 -18 199.98 31.02)"/><use xlink:href="#j" transform="matrix(18 0 0 -18 212.975 31.02)"/><use xlink:href="#f" transform="matrix(18 0 0 -18 226.463 31.292)"/><use xlink:href="#h" transform="matrix(18 0 0 -18 239.371 31.02)"/><use xlink:href="#f" transform="matrix(18 0 0 -18 250.44 31.292)"/><use xlink:href="#f" transform="matrix(18 0 0 -18 263.435 31.292)"/><use xlink:href="#a" transform="matrix(18 0 0 -18 275.852 31.02)"/><use xlink:href="#a" transform="matrix(18 0 0 -18 280.352 31.02)"/><use xlink:href="#a" transform="matrix(18 0 0 -18 284.852 31.02)"/><use xlink:href="#j" transform="matrix(18 0 0 -18 289.943 31.02)"/><use xlink:href="#a" transform="matrix(18 0 0 -18 15.893 49.02)"/><use xlink:href="#f" transform="matrix(18 0 0 -18 16.886 49.292)"/><use xlink:href="#g" transform="matrix(18 0 0 -18 29.9 49.292)"/><use xlink:href="#h" transform="matrix(18 0 0 -18 41.782 49.02)"/><use xlink:href="#g" transform="matrix(18 0 0 -18 52.868 49.292)"/><use xlink:href="#g" transform="matrix(18 0 0 -18 64.064 49.292)"/><use xlink:href="#f" transform="matrix(18 0 0 -18 76.034 49.292)"/><use xlink:href="#j" transform="matrix(18 0 0 -18 88.538 49.02)"/><use xlink:href="#f" transform="matrix(18 0 0 -18 102.026 49.292)"/><use xlink:href="#f" transform="matrix(18 0 0 -18 115.076 49.292)"/><use xlink:href="#f" transform="matrix(18 0 0 -18 128.162 49.292)" fill="green"/><use xlink:href="#g" transform="matrix(18 0 0 -18 141.188 49.292)" fill="red"/><use xlink:href="#h" transform="matrix(18 0 0 -18 153.106 49.02)" fill="#fc0"/><use xlink:href="#f" transform="matrix(18 0 0 -18 164.197 49.292)" fill="green"/><use xlink:href="#g" transform="matrix(18 0 0 -18 177.223 49.292)" fill="red"/><use xlink:href="#h" transform="matrix(18 0 0 -18 189.14 49.02)" fill="#fc0"/><use xlink:href="#f" transform="matrix(18 0 0 -18 200.497 49.292)" fill="green"/><use xlink:href="#f" transform="matrix(18 0 0 -18 213.493 49.292)" fill="green"/><use xlink:href="#f" transform="matrix(18 0 0 -18 226.512 49.292)"/><use xlink:href="#h" transform="matrix(18 0 0 -18 239.42 49.02)"/><use xlink:href="#f" transform="matrix(18 0 0 -18 250.488 49.292)"/><use xlink:href="#f" transform="matrix(18 0 0 -18 263.484 49.292)"/><use xlink:href="#a" transform="matrix(18 0 0 -18 275.848 49.02)"/><use xlink:href="#a" transform="matrix(18 0 0 -18 280.348 49.02)"/><use xlink:href="#a" transform="matrix(18 0 0 -18 284.848 49.02)"/><use xlink:href="#j" transform="matrix(18 0 0 -18 289.974 49.02)"/><use xlink:href="#j" transform="matrix(18 0 0 -18 302.97 49.02)"/><use xlink:href="#f" transform="matrix(18 0 0 -18 316.458 49.292)"/><use xlink:href="#f" transform="matrix(18 0 0 -18 329.454 49.292)"/><use xlink:href="#a" transform="matrix(18 0 0 -18 15.893 67.02)"/><use xlink:href="#a" transform="matrix(18 0 0 -18 20.393 67.02)"/><use xlink:href="#a" transform="matrix(18 0 0 -18 24.893 67.02)"/><use xlink:href="#a" transform="matrix(18 0 0 -18 29.393 67.02)"/><use xlink:href="#g" transform="matrix(18 0 0 -18 30.404 67.292)"/><use xlink:href="#h" transform="matrix(18 0 0 -18 42.772 67.02)"/><use xlink:href="#a" transform="matrix(18 0 0 -18 52.901 67.02)"/><use xlink:href="#i" transform="matrix(18 0 0 -18 55.862 63.644)" fill="red"/><use xlink:href="#g" transform="matrix(18 0 0 -18 64.55 67.292)"/><use xlink:href="#f" transform="matrix(18 0 0 -18 76.521 67.292)"/><use xlink:href="#j" transform="matrix(18 0 0 -18 89.025 67.02)"/><use xlink:href="#f" transform="matrix(18 0 0 -18 102.513 67.292)"/><use xlink:href="#f" transform="matrix(18 0 0 -18 115.51 67.292)"/><use xlink:href="#a" transform="matrix(18 0 0 -18 127.927 67.02)"/><use xlink:href="#a" transform="matrix(18 0 0 -18 132.427 67.02)"/><use xlink:href="#a" transform="matrix(18 0 0 -18 136.927 67.02)"/><use xlink:href="#a" transform="matrix(18 0 0 -18 141.427 67.02)"/><use xlink:href="#a" transform="matrix(18 0 0 -18 145.927 67.02)"/><use xlink:href="#a" transform="matrix(18 0 0 -18 150.427 67.02)"/><use xlink:href="#a" transform="matrix(18 0 0 -18 154.927 67.02)"/><use xlink:href="#a" transform="matrix(18 0 0 -18 159.427 67.02)"/><use xlink:href="#a" transform="matrix(18 0 0 -18 163.927 67.02)"/><use xlink:href="#a" transform="matrix(18 0 0 -18 168.427 67.02)"/><use xlink:href="#a" transform="matrix(18 0 0 -18 172.927 67.02)"/><use xlink:href="#a" transform="matrix(18 0 0 -18 177.427 67.02)"/><use xlink:href="#a" transform="matrix(18 0 0 -18 181.927 67.02)"/><use xlink:href="#a" transform="matrix(18 0 0 -18 186.427 67.02)"/><use xlink:href="#a" transform="matrix(18 0 0 -18 190.927 67.02)"/><use xlink:href="#a" transform="matrix(18 0 0 -18 195.427 67.02)"/><use xlink:href="#j" transform="matrix(18 0 0 -18 200.59 67.02)"/><use xlink:href="#j" transform="matrix(18 0 0 -18 213.585 67.02)"/><use xlink:href="#f" transform="matrix(18 0 0 -18 227.073 67.292)"/><use xlink:href="#h" transform="matrix(18 0 0 -18 239.726 66.693)"/><use xlink:href="#f" transform="matrix(18 0 0 -18 250.793 66.965)"/><use xlink:href="#f" transform="matrix(18 0 0 -18 263.79 66.965)"/><use xlink:href="#a" transform="matrix(18 0 0 -18 276.153 66.693)"/><use xlink:href="#a" transform="matrix(18 0 0 -18 280.653 66.693)"/><use xlink:href="#a" transform="matrix(18 0 0 -18 285.153 66.693)"/><use xlink:href="#j" transform="matrix(18 0 0 -18 290.28 66.693)"/><use xlink:href="#j" transform="matrix(18 0 0 -18 303.275 66.693)"/><use xlink:href="#f" transform="matrix(18 0 0 -18 317.123 66.965)"/><use xlink:href="#f" transform="matrix(18 0 0 -18 330.12 66.965)"/><use xlink:href="#j" transform="matrix(18 0 0 -18 342.12 66.693)"/><use xlink:href="#f" transform="matrix(18 0 0 -18 355.607 66.965)"/><use xlink:href="#a" transform="matrix(18 0 0 -18 15.893 85.02)"/><use xlink:href="#a" transform="matrix(18 0 0 -18 20.393 85.02)"/><use xlink:href="#a" transform="matrix(18 0 0 -18 24.893 85.02)"/><use xlink:href="#a" transform="matrix(18 0 0 -18 29.393 85.02)"/><use xlink:href="#a" transform="matrix(18 0 0 -18 33.893 85.02)"/><use xlink:href="#a" transform="matrix(18 0 0 -18 38.393 85.02)"/><use xlink:href="#a" transform="matrix(18 0 0 -18 42.893 85.02)"/><use xlink:href="#a" transform="matrix(18 0 0 -18 47.393 85.02)"/><use xlink:href="#a" transform="matrix(18 0 0 -18 51.893 85.02)"/><use xlink:href="#g" transform="matrix(18 0 0 -18 64.388 85.292)"/><use xlink:href="#f" transform="matrix(18 0 0 -18 76.358 85.292)"/><use xlink:href="#j" transform="matrix(18 0 0 -18 88.862 85.02)"/><use xlink:href="#f" transform="matrix(18 0 0 -18 102.35 85.292)"/><use xlink:href="#f" transform="matrix(18 0 0 -18 115.4 85.292)"/><use xlink:href="#f" transform="matrix(18 0 0 -18 128.43 85.292)" fill="green"/><use xlink:href="#g" transform="matrix(18 0 0 -18 141.455 85.292)" fill="red"/><use xlink:href="#h" transform="matrix(18 0 0 -18 153.373 85.02)" fill="#fc0"/><use xlink:href="#f" transform="matrix(18 0 0 -18 164.465 85.292)" fill="green"/><use xlink:href="#g" transform="matrix(18 0 0 -18 177.49 85.292)" fill="red"/><use xlink:href="#h" transform="matrix(18 0 0 -18 189.409 85.02)" fill="#fc0"/><use xlink:href="#f" transform="matrix(18 0 0 -18 201.029 85.292)" fill="green"/><use xlink:href="#f" transform="matrix(18 0 0 -18 214.025 85.292)" fill="green"/><use xlink:href="#f" transform="matrix(18 0 0 -18 227.045 85.292)"/><use xlink:href="#h" transform="matrix(18 0 0 -18 239.575 85.02)"/><use xlink:href="#f" transform="matrix(18 0 0 -18 250.643 85.292)"/><use xlink:href="#f" transform="matrix(18 0 0 -18 263.639 85.292)"/><use xlink:href="#a" transform="matrix(18 0 0 -18 276.002 85.02)"/><use xlink:href="#j" transform="matrix(18 0 0 -18 289.786 85.02)"/><use xlink:href="#a" transform="matrix(18 0 0 -18 301.67 85.02)"/><use xlink:href="#a" transform="matrix(18 0 0 -18 306.17 85.02)"/><use xlink:href="#a" transform="matrix(18 0 0 -18 310.67 85.02)"/><use xlink:href="#j" transform="matrix(18 0 0 -18 302.314 85.02)"/><use xlink:href="#f" transform="matrix(18 0 0 -18 315.803 85.292)"/><use xlink:href="#f" transform="matrix(18 0 0 -18 328.799 85.292)"/><use xlink:href="#j" transform="matrix(18 0 0 -18 341.302 85.02)"/><use xlink:href="#f" transform="matrix(18 0 0 -18 354.79 85.292)"/><use xlink:href="#a" transform="matrix(18 0 0 -18 367.208 85.02)"/><use xlink:href="#a" transform="matrix(18 0 0 -18 371.708 85.02)"/><use xlink:href="#a" transform="matrix(18 0 0 -18 376.208 85.02)"/><use xlink:href="#a" transform="matrix(18 0 0 -18 380.708 85.02)"/><use xlink:href="#a" transform="matrix(18 0 0 -18 15.893 103.02)"/><use xlink:href="#a" transform="matrix(18 0 0 -18 20.393 103.02)"/><use xlink:href="#a" transform="matrix(18 0 0 -18 24.893 103.02)"/><use xlink:href="#a" transform="matrix(18 0 0 -18 29.393 103.02)"/><use xlink:href="#a" transform="matrix(18 0 0 -18 33.893 103.02)"/><use xlink:href="#a" transform="matrix(18 0 0 -18 38.393 103.02)"/><use xlink:href="#a" transform="matrix(18 0 0 -18 42.893 103.02)"/><use xlink:href="#a" transform="matrix(18 0 0 -18 47.393 103.02)"/><use xlink:href="#a" transform="matrix(18 0 0 -18 51.893 103.02)"/><use xlink:href="#a" transform="matrix(18 0 0 -18 56.393 103.02)"/><use xlink:href="#a" transform="matrix(18 0 0 -18 60.893 103.02)"/><use xlink:href="#a" transform="matrix(18 0 0 -18 65.393 103.02)"/><use xlink:href="#a" transform="matrix(18 0 0 -18 69.893 103.02)"/><use xlink:href="#f" transform="matrix(18 0 0 -18 76.412 103.292)"/><use xlink:href="#j" transform="matrix(18 0 0 -18 88.916 103.02)"/><use xlink:href="#f" transform="matrix(18 0 0 -18 102.404 103.292)"/><use xlink:href="#f" transform="matrix(18 0 0 -18 115.4 103.292)"/><use xlink:href="#a" transform="matrix(18 0 0 -18 127.763 103.02)"/><use xlink:href="#a" transform="matrix(18 0 0 -18 132.263 103.02)"/><use xlink:href="#a" transform="matrix(18 0 0 -18 136.763 103.02)"/><use xlink:href="#a" transform="matrix(18 0 0 -18 141.263 103.02)"/><use xlink:href="#a" transform="matrix(18 0 0 -18 145.763 103.02)"/><use xlink:href="#a" transform="matrix(18 0 0 -18 150.263 103.02)"/><use xlink:href="#a" transform="matrix(18 0 0 -18 154.763 103.02)"/><use xlink:href="#a" transform="matrix(18 0 0 -18 159.263 103.02)"/><use xlink:href="#a" transform="matrix(18 0 0 -18 163.763 103.02)"/><use xlink:href="#a" transform="matrix(18 0 0 -18 168.263 103.02)"/><use xlink:href="#a" transform="matrix(18 0 0 -18 172.763 103.02)"/><use xlink:href="#a" transform="matrix(18 0 0 -18 187.65 103.02)"/><use xlink:href="#a" transform="matrix(18 0 0 -18 192.15 103.02)"/><use xlink:href="#a" transform="matrix(18 0 0 -18 196.65 103.02)"/><use xlink:href="#a" transform="matrix(18 0 0 -18 201.15 103.02)"/><use xlink:href="#a" transform="matrix(18 0 0 -18 205.65 103.02)"/><use xlink:href="#j" transform="matrix(18 0 0 -18 200.732 103.02)"/><use xlink:href="#j" transform="matrix(18 0 0 -18 213.728 103.02)"/><use xlink:href="#f" transform="matrix(18 0 0 -18 227.216 103.292)"/><use xlink:href="#h" transform="matrix(18 0 0 -18 240.124 103.02)"/><use xlink:href="#f" transform="matrix(18 0 0 -18 251.192 103.292)"/><use xlink:href="#f" transform="matrix(18 0 0 -18 264.188 103.292)"/><use xlink:href="#j" transform="matrix(18 0 0 -18 276.782 103.02)" fill="#00f"/><use xlink:href="#j" transform="matrix(18 0 0 -18 289.79 103.02)"/><use xlink:href="#j" transform="matrix(18 0 0 -18 302.786 103.02)"/><use xlink:href="#f" transform="matrix(18 0 0 -18 315.59 103.292)"/><use xlink:href="#f" transform="matrix(18 0 0 -18 328.586 103.292)"/><use xlink:href="#j" transform="matrix(18 0 0 -18 340.856 103.02)"/><use xlink:href="#f" transform="matrix(18 0 0 -18 354.344 103.292)"/><use xlink:href="#g" transform="matrix(18 0 0 -18 367.357 103.292)"/><use xlink:href="#h" transform="matrix(18 0 0 -18 379.24 103.02)"/><use xlink:href="#a" transform="matrix(18 0 0 -18 15.893 121.02)"/><use xlink:href="#a" transform="matrix(18 0 0 -18 20.393 121.02)"/><use xlink:href="#a" transform="matrix(18 0 0 -18 24.893 121.02)"/><use xlink:href="#a" transform="matrix(18 0 0 -18 29.393 121.02)"/><use xlink:href="#a" transform="matrix(18 0 0 -18 33.893 121.02)"/><use xlink:href="#a" transform="matrix(18 0 0 -18 38.393 121.02)"/><use xlink:href="#a" transform="matrix(18 0 0 -18 42.893 121.02)"/><use xlink:href="#a" transform="matrix(18 0 0 -18 47.393 121.02)"/><use xlink:href="#a" transform="matrix(18 0 0 -18 51.893 121.02)"/><use xlink:href="#a" transform="matrix(18 0 0 -18 56.393 121.02)"/><use xlink:href="#a" transform="matrix(18 0 0 -18 60.893 121.02)"/><use xlink:href="#a" transform="matrix(18 0 0 -18 65.393 121.02)"/><use xlink:href="#a" transform="matrix(18 0 0 -18 69.893 121.02)"/><use xlink:href="#a" transform="matrix(18 0 0 -18 74.393 121.02)"/><use xlink:href="#a" transform="matrix(18 0 0 -18 78.893 121.02)"/><use xlink:href="#a" transform="matrix(18 0 0 -18 83.393 121.02)"/><use xlink:href="#a" transform="matrix(18 0 0 -18 87.893 121.02)"/><use xlink:href="#a" transform="matrix(18 0 0 -18 92.393 121.02)"/><use xlink:href="#a" transform="matrix(18 0 0 -18 96.893 121.02)"/><use xlink:href="#f" transform="matrix(18 0 0 -18 102.026 121.292)"/><use xlink:href="#f" transform="matrix(18 0 0 -18 115.022 121.292)"/><use xlink:href="#a" transform="matrix(18 0 0 -18 127.385 121.02)"/><use xlink:href="#a" transform="matrix(18 0 0 -18 131.885 121.02)"/><use xlink:href="#a" transform="matrix(18 0 0 -18 136.385 121.02)"/><use xlink:href="#a" transform="matrix(18 0 0 -18 140.885 121.02)"/><use xlink:href="#a" transform="matrix(18 0 0 -18 145.385 121.02)"/><use xlink:href="#a" transform="matrix(18 0 0 -18 149.885 121.02)"/><use xlink:href="#a" transform="matrix(18 0 0 -18 154.385 121.02)"/><use xlink:href="#a" transform="matrix(18 0 0 -18 158.885 121.02)"/><use xlink:href="#a" transform="matrix(18 0 0 -18 163.385 121.02)"/><use xlink:href="#a" transform="matrix(18 0 0 -18 167.885 121.02)"/><use xlink:href="#a" transform="matrix(18 0 0 -18 172.385 121.02)"/><use xlink:href="#a" transform="matrix(18 0 0 -18 176.885 121.02)"/><use xlink:href="#a" transform="matrix(18 0 0 -18 181.385 121.02)"/><use xlink:href="#a" transform="matrix(18 0 0 -18 185.885 121.02)"/><use xlink:href="#a" transform="matrix(18 0 0 -18 190.385 121.02)"/><use xlink:href="#j" transform="matrix(18 0 0 -18 200.12 121.02)"/><use xlink:href="#j" transform="matrix(18 0 0 -18 213.584 121.02)"/><use xlink:href="#f" transform="matrix(18 0 0 -18 227.072 121.292)"/><use xlink:href="#h" transform="matrix(18 0 0 -18 239.98 121.02)"/><use xlink:href="#f" transform="matrix(18 0 0 -18 251.048 121.292)"/><use xlink:href="#f" transform="matrix(18 0 0 -18 264.044 121.292)"/><use xlink:href="#a" transform="matrix(18 0 0 -18 276.407 121.02)"/><use xlink:href="#a" transform="matrix(18 0 0 -18 280.907 121.02)"/><use xlink:href="#a" transform="matrix(18 0 0 -18 285.407 121.02)"/><use xlink:href="#a" transform="matrix(18 0 0 -18 290.411 121.02)"/><use xlink:href="#a" transform="matrix(18 0 0 -18 294.911 121.02)"/><use xlink:href="#j" transform="matrix(18 0 0 -18 289.85 121.02)"/><use xlink:href="#j" transform="matrix(18 0 0 -18 302.846 121.02)"/><use xlink:href="#f" transform="matrix(18 0 0 -18 316.334 121.292)"/><use xlink:href="#f" transform="matrix(18 0 0 -18 329.33 121.292)"/><use xlink:href="#j" transform="matrix(18 0 0 -18 341.834 121.02)"/><use xlink:href="#f" transform="matrix(18 0 0 -18 355.322 121.292)"/><use xlink:href="#g" transform="matrix(18 0 0 -18 368.39 121.292)"/><use xlink:href="#h" transform="matrix(18 0 0 -18 379.822 121.02)"/></svg>